<!DOCTYPE svg PUBLIC "-//W3C//DTD SVG 1.1//EN" "http://www.w3.org/Graphics/SVG/1.1/DTD/svg11.dtd">
<!-- Uploaded to: SVG Repo, www.svgrepo.com, Transformed by: SVG Repo Mixer Tools -->
<svg width="800px" height="800px" viewBox="-71.68 -71.68 655.36 655.36" xmlns="http://www.w3.org/2000/svg" fill="#ffffff" stroke="#ffffff" stroke-width="0.00512">
<g id="SVGRepo_bgCarrier" stroke-width="0" transform="translate(0,0), scale(1)">
<path transform="translate(-71.68, -71.68), scale(40.96)" fill="#ffbe33" d="M9.166.33a2.25 2.25 0 00-2.332 0l-5.25 3.182A2.25 2.25 0 00.5 5.436v5.128a2.25 2.25 0 001.084 1.924l5.25 3.182a2.25 2.25 0 002.332 0l5.25-3.182a2.25 2.25 0 001.084-1.924V5.436a2.25 2.25 0 00-1.084-1.924L9.166.33z" strokewidth="0"/>
</g>
<g id="SVGRepo_tracerCarrier" stroke-linecap="round" stroke-linejoin="round"/>
<g id="SVGRepo_iconCarrier"> <path fill="var(--ci-primary-color, #853500)" d="M256.684,16.736A239.3,239.3,0,0,0,87.475,425.245,239.3,239.3,0,0,0,425.894,86.825,237.736,237.736,0,0,0,256.684,16.736Zm-9.9,32.242L146.033,224.237,92.048,130.226A207.136,207.136,0,0,1,246.787,48.978Zm56.437,127.035,45.912,79.413-46.2,80.791h-92.6l-45.859-79.859,46.189-80.345ZM72.648,160.7,173.436,336.217H65.526A207.1,207.1,0,0,1,72.648,160.7Zm9.791,207.515h202.2l-53.494,93.542A207.584,207.584,0,0,1,82.439,368.217Zm184.818,94.849L367.668,287.48l54.168,93.692A207.167,207.167,0,0,1,267.257,463.066ZM441.125,350.6,340.187,176.013H447.908A207.133,207.133,0,0,1,441.125,350.6ZM229.063,144.013l53.825-93.627a207.609,207.609,0,0,1,148.147,93.627Z" class="ci-primary"/> </g>
</svg>