<!DOCTYPE svg PUBLIC "-//W3C//DTD SVG 1.1//EN" "http://www.w3.org/Graphics/SVG/1.1/DTD/svg11.dtd">
<!-- Uploaded to: SVG Repo, www.svgrepo.com, Transformed by: SVG Repo Mixer Tools -->
<svg width="800px" height="800px" viewBox="-4.08 -4.08 32.16 32.16" fill="none" xmlns="http://www.w3.org/2000/svg" stroke="#ffffff" stroke-width="0.00024000000000000003" transform="rotate(0)">
<g id="SVGRepo_bgCarrier" stroke-width="0" transform="translate(0,0), scale(1)">
<path transform="translate(-4.08, -4.08), scale(2.01)" fill="#70dbff" d="M9.166.33a2.25 2.25 0 00-2.332 0l-5.25 3.182A2.25 2.25 0 00.5 5.436v5.128a2.25 2.25 0 001.084 1.924l5.25 3.182a2.25 2.25 0 002.332 0l5.25-3.182a2.25 2.25 0 001.084-1.924V5.436a2.25 2.25 0 00-1.084-1.924L9.166.33z" strokewidth="0"/>
</g>
<g id="SVGRepo_tracerCarrier" stroke-linecap="round" stroke-linejoin="round" stroke="#CCCCCC" stroke-width="0.048"/>
<g id="SVGRepo_iconCarrier"> <g clip-path="url(#clip0_734_37368)"> <path fill-rule="evenodd" clip-rule="evenodd" d="M2.1212 15.5355C0.168583 13.5829 0.168583 10.4171 2.1212 8.46444L8.46438 2.12127C10.417 0.168644 13.5828 0.168644 15.5354 2.12127L21.8786 8.46444C23.8312 10.4171 23.8312 13.5829 21.8786 15.5355L15.5354 21.8787C13.5828 23.8313 10.417 23.8313 8.46438 21.8787L2.1212 15.5355ZM3.53542 9.87865C2.36384 11.0502 2.36385 12.9497 3.53542 14.1213L9.87859 20.4645C11.0502 21.636 12.9497 21.636 14.1212 20.4645L20.4644 14.1213C21.636 12.9497 21.636 11.0502 20.4644 9.87865L14.1212 3.53548C12.9497 2.36391 11.0502 2.36391 9.87859 3.53548L3.53542 9.87865Z" fill="#342acb"/> </g> <defs> <clipPath id="clip0_734_37368"> <rect width="24" height="24" fill="white"/> </clipPath> </defs> </g>
</svg>