<!DOCTYPE svg PUBLIC "-//W3C//DTD SVG 1.1//EN" "http://www.w3.org/Graphics/SVG/1.1/DTD/svg11.dtd">
<!-- Uploaded to: SVG Repo, www.svgrepo.com, Transformed by: SVG Repo Mixer Tools -->
<svg version="1.1" id="Layer_1" xmlns="http://www.w3.org/2000/svg" xmlns:xlink="http://www.w3.org/1999/xlink" viewBox="0 0 512 512" xml:space="preserve" width="800px" height="800px" fill="#000000" stroke="#000000" stroke-width="1.024">
<g id="SVGRepo_bgCarrier" stroke-width="0"/>
<g id="SVGRepo_tracerCarrier" stroke-linecap="round" stroke-linejoin="round" stroke="#949494" stroke-width="5.12"> <path style="fill:#F7B239;" d="M405.537,85.867V207.62c0,5.306-4.306,9.612-9.612,9.612s-9.612-4.306-9.612-9.612V85.867 c0-3.678,2.063-6.882,5.114-8.484c1.346-0.718,2.871-1.128,4.498-1.128C401.231,76.255,405.537,80.562,405.537,85.867z"/> <path style="fill:#E09B2D;" d="M391.427,77.383v99.401h-5.114V85.867C386.313,82.189,388.377,78.985,391.427,77.383z"/> <path style="fill:#F7B239;" d="M395.925,329.103c-14.94,0-28.987-5.82-39.554-16.388l0,0l0,0c-21.814-21.814-21.814-57.308,0-79.122 l32.756-32.769c1.803-1.803,4.247-2.817,6.798-2.817c2.55,0,4.994,1.012,6.799,2.816l32.771,32.771 c21.814,21.814,21.814,57.308,0,79.122C424.927,323.283,410.874,329.103,395.925,329.103z M395.927,221.213l-25.96,25.972 c-14.321,14.319-14.321,37.619-0.001,51.937l0,0c6.936,6.937,16.155,10.757,25.96,10.757c9.813,0,19.037-3.819,25.974-10.757 c14.319-14.318,14.319-37.618,0-51.936L395.927,221.213z"/> <polygon style="fill:#B27214;" points="292.376,76.879 263.082,106.172 148.559,220.709 148.559,158.109 200.482,106.172 229.776,76.879 "/> <polygon style="fill:#995C0D;" points="292.376,76.879 263.082,106.172 200.482,106.172 229.776,76.879 "/> <path style="fill:#F7B239;" d="M422.346,169.336c-1.2-3.597-4.322-6.003-7.841-6.479l1.762-0.587 c5.037-1.679,7.758-7.122,6.079-12.159c-1.68-5.037-7.122-7.758-12.159-6.08l-34.603,11.534c-5.037,1.679-7.758,7.122-6.079,12.159 c1.201,3.6,4.325,6.003,7.85,6.476l-1.771,0.59c-5.037,1.679-7.758,7.122-6.079,12.159c1.201,3.6,4.325,6.003,7.85,6.476 l-1.771,0.59c-5.037,1.679-7.758,7.122-6.079,12.159c1.343,4.028,5.093,6.575,9.117,6.575c1.007,0,2.033-0.16,3.041-0.496 l34.603-11.534c5.037-1.679,7.758-7.122,6.079-12.159c-1.2-3.597-4.322-6.003-7.841-6.478l1.762-0.587 C421.302,179.815,424.023,174.372,422.346,169.336z"/> <path style="fill:#E09B2D;" d="M385.391,210.544c-4.026,0-7.774-2.547-9.117-6.575c-1.679-5.037,1.042-10.48,6.079-12.159 l1.771-0.59c-3.524-0.473-6.649-2.875-7.85-6.476c-1.679-5.037,1.042-10.48,6.079-12.159l1.771-0.59 c-3.524-0.473-6.649-2.875-7.85-6.476c-1.679-5.037,1.042-10.48,6.079-12.159l-6.768,2.204c-5.037,1.679-7.758,7.122-6.079,12.159 c1.201,3.6,4.325,6.003,7.85,6.476l-1.771,0.59c-5.037,1.679-7.758,7.122-6.079,12.159c1.201,3.6,4.325,6.003,7.85,6.476 l-1.771,0.59c-5.037,1.679-7.758,7.122-6.079,12.159c1.343,4.028,5.093,6.575,9.117,6.575c1.007,0,2.033-0.16,3.041-0.496 l6.179-2.06C387.025,210.41,386.203,210.544,385.391,210.544z"/> <g> <polygon style="fill:#B27214;" points="128.695,25.632 125.277,25.632 51.174,25.632 51.174,85.867 125.277,85.867 128.695,85.867 204.439,85.867 265.454,85.867 390.814,85.867 440.781,85.867 440.781,25.632 "/> <polygon style="fill:#B27214;" points="157.547,211.721 157.547,502.388 97.312,502.388 97.312,85.867 97.312,25.632 97.312,0 157.547,0 157.547,25.632 157.547,85.867 157.547,156.945 "/> </g> <path style="fill:#4D4D4D;" d="M468.413,512H43.587c-5.31,0-9.612-4.304-9.612-9.612c0-5.308,4.302-9.612,9.612-9.612h424.825 c5.31,0,9.612,4.304,9.612,9.612C478.025,507.696,473.722,512,468.413,512z"/> <rect x="81.702" y="25.632" style="fill:#995C0D;" width="15.61" height="60.235"/> </g>
<g id="SVGRepo_iconCarrier"> <path style="fill:#F7B239;" d="M405.537,85.867V207.62c0,5.306-4.306,9.612-9.612,9.612s-9.612-4.306-9.612-9.612V85.867 c0-3.678,2.063-6.882,5.114-8.484c1.346-0.718,2.871-1.128,4.498-1.128C401.231,76.255,405.537,80.562,405.537,85.867z"/> <path style="fill:#E09B2D;" d="M391.427,77.383v99.401h-5.114V85.867C386.313,82.189,388.377,78.985,391.427,77.383z"/> <path style="fill:#F7B239;" d="M395.925,329.103c-14.94,0-28.987-5.82-39.554-16.388l0,0l0,0c-21.814-21.814-21.814-57.308,0-79.122 l32.756-32.769c1.803-1.803,4.247-2.817,6.798-2.817c2.55,0,4.994,1.012,6.799,2.816l32.771,32.771 c21.814,21.814,21.814,57.308,0,79.122C424.927,323.283,410.874,329.103,395.925,329.103z M395.927,221.213l-25.96,25.972 c-14.321,14.319-14.321,37.619-0.001,51.937l0,0c6.936,6.937,16.155,10.757,25.96,10.757c9.813,0,19.037-3.819,25.974-10.757 c14.319-14.318,14.319-37.618,0-51.936L395.927,221.213z"/> <polygon style="fill:#B27214;" points="292.376,76.879 263.082,106.172 148.559,220.709 148.559,158.109 200.482,106.172 229.776,76.879 "/> <polygon style="fill:#995C0D;" points="292.376,76.879 263.082,106.172 200.482,106.172 229.776,76.879 "/> <path style="fill:#F7B239;" d="M422.346,169.336c-1.2-3.597-4.322-6.003-7.841-6.479l1.762-0.587 c5.037-1.679,7.758-7.122,6.079-12.159c-1.68-5.037-7.122-7.758-12.159-6.08l-34.603,11.534c-5.037,1.679-7.758,7.122-6.079,12.159 c1.201,3.6,4.325,6.003,7.85,6.476l-1.771,0.59c-5.037,1.679-7.758,7.122-6.079,12.159c1.201,3.6,4.325,6.003,7.85,6.476 l-1.771,0.59c-5.037,1.679-7.758,7.122-6.079,12.159c1.343,4.028,5.093,6.575,9.117,6.575c1.007,0,2.033-0.16,3.041-0.496 l34.603-11.534c5.037-1.679,7.758-7.122,6.079-12.159c-1.2-3.597-4.322-6.003-7.841-6.478l1.762-0.587 C421.302,179.815,424.023,174.372,422.346,169.336z"/> <path style="fill:#E09B2D;" d="M385.391,210.544c-4.026,0-7.774-2.547-9.117-6.575c-1.679-5.037,1.042-10.48,6.079-12.159 l1.771-0.59c-3.524-0.473-6.649-2.875-7.85-6.476c-1.679-5.037,1.042-10.48,6.079-12.159l1.771-0.59 c-3.524-0.473-6.649-2.875-7.85-6.476c-1.679-5.037,1.042-10.48,6.079-12.159l-6.768,2.204c-5.037,1.679-7.758,7.122-6.079,12.159 c1.201,3.6,4.325,6.003,7.85,6.476l-1.771,0.59c-5.037,1.679-7.758,7.122-6.079,12.159c1.201,3.6,4.325,6.003,7.85,6.476 l-1.771,0.59c-5.037,1.679-7.758,7.122-6.079,12.159c1.343,4.028,5.093,6.575,9.117,6.575c1.007,0,2.033-0.16,3.041-0.496 l6.179-2.06C387.025,210.41,386.203,210.544,385.391,210.544z"/> <g> <polygon style="fill:#B27214;" points="128.695,25.632 125.277,25.632 51.174,25.632 51.174,85.867 125.277,85.867 128.695,85.867 204.439,85.867 265.454,85.867 390.814,85.867 440.781,85.867 440.781,25.632 "/> <polygon style="fill:#B27214;" points="157.547,211.721 157.547,502.388 97.312,502.388 97.312,85.867 97.312,25.632 97.312,0 157.547,0 157.547,25.632 157.547,85.867 157.547,156.945 "/> </g> <path style="fill:#4D4D4D;" d="M468.413,512H43.587c-5.31,0-9.612-4.304-9.612-9.612c0-5.308,4.302-9.612,9.612-9.612h424.825 c5.31,0,9.612,4.304,9.612,9.612C478.025,507.696,473.722,512,468.413,512z"/> <rect x="81.702" y="25.632" style="fill:#995C0D;" width="15.61" height="60.235"/> </g>
</svg>