<svg id="Capa_1" enable-background="new 0 0 512 512" height="512" viewBox="0 0 512 512" width="512" xmlns="http://www.w3.org/2000/svg"><g><path d="m447.921 211h-191.921-187.5l-37.5 30v226c0 8.4 6.6 15 15 15h210 210c8.4 0 15-6.6 15-15v-226z" fill="#e64d2e"/><path d="m481 467v-226l-33.079-30h-191.921v271h210c8.4 0 15-6.6 15-15z" fill="#cc2929"/><path d="m466 121h-210-210c-8.4 0-15 6.6-15 15v105h225 225v-105c0-8.4-6.6-15-15-15z" fill="#cc2929"/><path d="m481 136c0-8.4-6.6-15-15-15h-210v120h225z" fill="#991f1f"/><path d="m256 301c-33.09 0-60 26.91-60 60v45c0 8.292 6.708 15 15 15s15-6.708 15-15v-45c0-16.539 13.461-30 30-30s30 13.461 30 30v45c0 8.292 6.708 15 15 15s15-6.708 15-15v-45c0-33.09-26.91-60-60-60z" fill="#edf5ff"/><path d="m286 361v45c0 8.292 6.708 15 15 15s15-6.708 15-15v-45c0-33.09-26.91-60-60-60v30c16.539 0 30 13.461 30 30z" fill="#d0e4e7"/><path d="m331 391h-75-75c-8.292 0-15 6.708-15 15v91c0 8.292 6.708 15 15 15h75 75c8.292 0 15-6.708 15-15v-91c0-8.292-6.708-15-15-15z" fill="#fed843"/><path d="m346 497v-91c0-8.292-6.708-15-15-15h-75v121h75c8.292 0 15-6.708 15-15z" fill="#fabe2c"/><path d="m346 0h-90-90c-8.292 0-15 6.708-15 15v181h105 105v-181c0-8.292-6.708-15-15-15z" fill="#edf5ff"/><path d="m361 15c0-8.292-6.708-15-15-15h-90v196h105z" fill="#d0e4e7"/><path d="m376 181h-120-120c-8.292 0-15 6.708-15 15s6.708 15 15 15h120 120c8.292 0 15-6.708 15-15s-6.708-15-15-15z" fill="#4b2746"/><path d="m391 196c0-8.292-6.708-15-15-15h-120v30h120c8.292 0 15-6.708 15-15z" fill="#351b33"/><path d="m277.21 91 19.395-19.395c5.859-5.859 5.859-15.351 0-21.21-5.86-5.859-15.352-5.859-21.21 0l-19.395 19.395-19.395-19.395c-5.86-5.859-15.352-5.859-21.21 0-5.86 5.859-5.86 15.351 0 21.21l19.395 19.395-19.395 19.395c-5.86 5.859-5.86 15.351 0 21.21 5.858 5.859 15.35 5.859 21.21 0l19.395-19.395 19.395 19.395c5.858 5.859 15.35 5.859 21.21 0 5.859-5.859 5.859-15.351 0-21.21z" fill="#e64d2e"/><path d="m296.605 131.605c5.859-5.859 5.859-15.351 0-21.21l-19.395-19.395 19.395-19.395c5.859-5.859 5.859-15.351 0-21.21-5.86-5.859-15.352-5.859-21.21 0l-19.395 19.395v42.42l19.395 19.395c5.858 5.859 15.35 5.859 21.21 0z" fill="#cc2929"/></g></svg>