<!DOCTYPE svg PUBLIC "-//W3C//DTD SVG 1.1//EN" "http://www.w3.org/Graphics/SVG/1.1/DTD/svg11.dtd">
<!-- Uploaded to: SVG Repo, www.svgrepo.com, Transformed by: SVG Repo Mixer Tools -->
<svg height="800px" width="800px" version="1.1" id="Layer_1" xmlns="http://www.w3.org/2000/svg" xmlns:xlink="http://www.w3.org/1999/xlink" viewBox="0 0 512 512" xml:space="preserve" fill="#000000">
<g id="SVGRepo_bgCarrier" stroke-width="0"/>
<g id="SVGRepo_tracerCarrier" stroke-linecap="round" stroke-linejoin="round"/>
<g id="SVGRepo_iconCarrier"> <circle style="fill:#F7B238;" cx="256.001" cy="256.001" r="245.994"/> <path style="fill:#E09B2C;" d="M308.715,465.678c-135.858,0-245.993-110.134-245.993-245.993 c0-72.584,31.443-137.816,81.444-182.842C64.527,77.562,10.007,160.414,10.007,256c0,135.858,110.134,245.993,245.993,245.993 c63.274,0,120.962-23.898,164.549-63.149C386.996,455.999,348.987,465.678,308.715,465.678z"/> <circle style="fill:#7F184C;" cx="315.352" cy="361.319" r="46.901"/> <path d="M492.484,157.804c-3.805-12.92-12.269-24.701-24.621-33.946c-18.447-13.806-42.003-19.377-63.004-14.899 c-20.159,4.298-37.142,17.764-47.82,37.919c-9.659,18.229-12.999,39.883-9.165,59.405c8.601,43.799,51.738,69.201,88.899,69.201 c1.72,0,3.432-0.055,5.124-0.164c5.515-0.359,9.696-5.12,9.339-10.634c-0.359-5.516-5.114-9.695-10.634-9.339 c-15.262,0.994-31.869-3.753-45.555-13.01c-14.645-9.909-24.422-24.082-27.531-39.912c-2.922-14.876-0.226-32.14,7.211-46.177 c7.858-14.83,20.041-24.673,34.308-27.715c15.21-3.24,33.155,1.106,46.838,11.348c5.154,3.859,9.335,8.261,12.45,13.006 c1.86,3.821,3.615,7.676,5.256,11.564c0.555,2.092,0.919,4.215,1.082,6.358c0.883,11.646-4.098,24.633-13.322,34.74 c-7.993,8.757-17.936,13.865-27.281,14.01c-10.325,0.141-21.266-5.419-27.927-14.214c-1.568-2.07-9.26-13.034-6.674-25.664 c0.579-2.827,1.656-8.091,6.191-12.086c4.769-4.2,10.629-4.539,12.373-4.539c0.013,0,0.027,0,0.039,0 c9.316,0.028,19.546,7.325,20.267,14.413c0.1,1.174,0.003,5.87-2.308,7.401c-1.112,0.737-3.302,1.368-4.359,0.586 c-0.919-0.679-1.353-2.148-1.081-3.659c0.981-5.439-2.633-10.645-8.071-11.626c-5.44-0.977-10.644,2.631-11.626,8.071 c-1.62,8.979,1.868,18.129,8.888,23.314c8.917,6.586,20.139,4.743,27.301,0c12.585-8.337,11.355-24.275,11.174-26.066 c-1.586-15.615-18.087-32.382-40.124-32.449c-4.493,0.007-15.885,0.891-25.7,9.535c-9.57,8.429-11.75,19.083-12.571,23.093 c-4.207,20.551,6.842,37.165,10.329,41.764c10.541,13.918,27.47,22.382,44.194,22.142c14.839-0.232,30.057-7.715,41.753-20.531 c4.035-4.421,7.483-9.283,10.277-14.4c3.704,16.704,5.587,33.857,5.587,51.36c0,130.124-105.862,235.984-235.985,235.984 S20.015,386.124,20.015,256S125.876,20.015,256,20.015c43.387,0,85.795,11.87,122.641,34.331c4.718,2.877,10.876,1.382,13.754-3.337 c2.877-4.719,1.382-10.876-3.337-13.754C349.072,12.881,303.063,0,256,0C114.84,0,0,114.84,0,256c0,141.158,114.84,256,256,256 s256-114.84,256-255.999C512,221.832,505.435,188.873,492.484,157.804z"/> <path d="M315.353,418.224c31.376,0,56.903-25.527,56.903-56.903c0-31.378-25.527-56.903-56.903-56.903s-56.903,25.527-56.903,56.903 C258.45,392.699,283.977,418.224,315.353,418.224z M315.353,324.433c20.34,0,36.888,16.548,36.888,36.888 c0,20.34-16.548,36.888-36.888,36.888c-20.34,0-36.888-16.547-36.888-36.888S295.013,324.433,315.353,324.433z"/> <path d="M237.39,170.169c-5.439-0.977-10.644,2.631-11.626,8.071c-1.62,8.979,1.868,18.131,8.888,23.314 c8.919,6.586,20.137,4.743,27.303,0c12.584-8.337,11.354-24.275,11.172-26.066c-1.586-15.615-18.087-32.382-40.124-32.449 c-4.473-0.001-15.884,0.891-25.7,9.535c-9.567,8.426-11.749,19.081-12.571,23.093c-4.207,20.556,6.844,37.166,10.329,41.764 c10.541,13.92,27.475,22.412,44.194,22.142c14.839-0.232,30.058-7.715,41.753-20.532c12.872-14.105,19.787-32.701,18.494-49.745 c-1.317-17.374-10.817-33.509-26.752-45.436c-18.448-13.809-42.004-19.378-63.004-14.9c-20.159,4.298-37.142,17.764-47.822,37.919 c-9.658,18.229-12.999,39.883-9.165,59.405c8.601,43.799,51.738,69.201,88.899,69.201c1.72,0,3.432-0.055,5.124-0.164 c5.515-0.359,9.696-5.12,9.339-10.634c-0.359-5.516-5.11-9.695-10.634-9.339c-15.261,0.99-31.869-3.752-45.555-13.01 c-14.645-9.909-24.422-24.082-27.531-39.912c-2.921-14.876-0.225-32.14,7.212-46.177c7.858-14.83,20.041-24.673,34.308-27.715 c15.21-3.24,33.155,1.106,46.838,11.348c11.242,8.416,17.913,19.398,18.788,30.928c0.883,11.646-4.096,24.633-13.32,34.739 c-7.993,8.758-17.936,13.866-27.283,14.012c-10.337,0.141-21.265-5.419-27.929-14.216c-1.568-2.07-9.259-13.03-6.673-25.661 c0.579-2.829,1.657-8.094,6.191-12.088c4.806-4.234,10.727-4.494,12.412-4.539c9.316,0.028,19.546,7.325,20.267,14.413 c0.1,1.174,0.003,5.87-2.307,7.401c-1.111,0.737-3.305,1.368-4.361,0.586c-0.919-0.679-1.353-2.148-1.081-3.659 C246.442,176.356,242.829,171.151,237.39,170.169z"/> <circle cx="413.864" cy="68.197" r="10.007"/> </g>
</svg>