<!DOCTYPE svg PUBLIC "-//W3C//DTD SVG 1.1//EN" "http://www.w3.org/Graphics/SVG/1.1/DTD/svg11.dtd">
<!-- Uploaded to: SVG Repo, www.svgrepo.com, Transformed by: SVG Repo Mixer Tools -->
<svg width="800px" height="800px" viewBox="-3.2 -3.2 70.40 70.40" xmlns="http://www.w3.org/2000/svg" fill="#000000" stroke="#000000">
<g id="SVGRepo_bgCarrier" stroke-width="0"/>
<g id="SVGRepo_tracerCarrier" stroke-linecap="round" stroke-linejoin="round" stroke="#CCCCCC" stroke-width="1.024"> <g fill="none" fill-rule="evenodd"> <path fill="#80D25B" d="M48.5044647,16.529591 C51.2658885,16.529591 53.5044647,14.1876959 53.5044647,11.2988218 C53.5044647,8.40994771 48.5044647,-0.470408985 48.5044647,-0.470408985 C48.5044647,-0.470408985 43.5044647,8.40994771 43.5044647,11.2988218 C43.5044647,14.1876959 45.743041,16.529591 48.5044647,16.529591 Z" transform="rotate(75 48.504 8.03)"/> <path fill="#80D25B" d="M18.5044647,16.529591 C21.2658885,16.529591 23.5044647,14.1876959 23.5044647,11.2988218 C23.5044647,8.40994771 18.5044647,-0.470408985 18.5044647,-0.470408985 C18.5044647,-0.470408985 13.5044647,8.40994771 13.5044647,11.2988218 C13.5044647,14.1876959 15.743041,16.529591 18.5044647,16.529591 Z" transform="scale(-1 1) rotate(75 0 -16.086)"/> <path stroke="#22BA8E" stroke-linecap="round" stroke-width="0.8960000000000001" d="M45,9 C38.372583,9 33,14.372583 33,21"/> <path stroke="#22BA8E" stroke-linecap="round" stroke-width="0.8960000000000001" d="M33,9 C26.372583,9 21,14.372583 21,21" transform="matrix(-1 0 0 1 54 0)"/> <path fill="#F2EB52" d="M25.25,22 L40.25,22 L50.2592876,61.1272152 C50.806443,63.2660952 49.4654131,65 47.2551972,65 L18.2448028,65 C16.0385341,65 14.694837,63.2610918 15.2407124,61.1272152 L25.25,22 Z"/> <path fill="#80D35B" d="M24.1144693,37.9803066 L40.9716121,37.9803066 L47.0328599,61.0575657 C47.314625,62.1303426 46.6452003,63 45.5514237,63 L19.5346577,63 C18.434718,63 17.7692441,62.1387655 18.0532215,61.0575657 L24.1144693,37.9803066 Z"/> <circle cx="28.25" cy="43" r="3" fill="#5DAF38"/> <circle cx="39.25" cy="56" r="3" fill="#5DAF38"/> <circle cx="38.75" cy="46.5" r="1.5" fill="#5DAF38"/> <circle cx="32.75" cy="31.5" r="1.5" fill="#5DAF38"/> <circle cx="26.75" cy="58.5" r="1.5" fill="#5DAF38"/> <rect width="21" height="3" x="22" y="19" fill="#E1DA46"/> </g> </g>
<g id="SVGRepo_iconCarrier"> <g fill="none" fill-rule="evenodd"> <path fill="#80D25B" d="M48.5044647,16.529591 C51.2658885,16.529591 53.5044647,14.1876959 53.5044647,11.2988218 C53.5044647,8.40994771 48.5044647,-0.470408985 48.5044647,-0.470408985 C48.5044647,-0.470408985 43.5044647,8.40994771 43.5044647,11.2988218 C43.5044647,14.1876959 45.743041,16.529591 48.5044647,16.529591 Z" transform="rotate(75 48.504 8.03)"/> <path fill="#80D25B" d="M18.5044647,16.529591 C21.2658885,16.529591 23.5044647,14.1876959 23.5044647,11.2988218 C23.5044647,8.40994771 18.5044647,-0.470408985 18.5044647,-0.470408985 C18.5044647,-0.470408985 13.5044647,8.40994771 13.5044647,11.2988218 C13.5044647,14.1876959 15.743041,16.529591 18.5044647,16.529591 Z" transform="scale(-1 1) rotate(75 0 -16.086)"/> <path stroke="#22BA8E" stroke-linecap="round" stroke-width="1.28" d="M45,9 C38.372583,9 33,14.372583 33,21"/> <path stroke="#22BA8E" stroke-linecap="round" stroke-width="1.28" d="M33,9 C26.372583,9 21,14.372583 21,21" transform="matrix(-1 0 0 1 54 0)"/> <path fill="#F2EB52" d="M25.25,22 L40.25,22 L50.2592876,61.1272152 C50.806443,63.2660952 49.4654131,65 47.2551972,65 L18.2448028,65 C16.0385341,65 14.694837,63.2610918 15.2407124,61.1272152 L25.25,22 Z"/> <path fill="#80D35B" d="M24.1144693,37.9803066 L40.9716121,37.9803066 L47.0328599,61.0575657 C47.314625,62.1303426 46.6452003,63 45.5514237,63 L19.5346577,63 C18.434718,63 17.7692441,62.1387655 18.0532215,61.0575657 L24.1144693,37.9803066 Z"/> <circle cx="28.25" cy="43" r="3" fill="#5DAF38"/> <circle cx="39.25" cy="56" r="3" fill="#5DAF38"/> <circle cx="38.75" cy="46.5" r="1.5" fill="#5DAF38"/> <circle cx="32.75" cy="31.5" r="1.5" fill="#5DAF38"/> <circle cx="26.75" cy="58.5" r="1.5" fill="#5DAF38"/> <rect width="21" height="3" x="22" y="19" fill="#E1DA46"/> </g> </g>
</svg>