<!DOCTYPE svg PUBLIC "-//W3C//DTD SVG 1.1//EN" "http://www.w3.org/Graphics/SVG/1.1/DTD/svg11.dtd">
<!-- Uploaded to: SVG Repo, www.svgrepo.com, Transformed by: SVG Repo Mixer Tools -->
<svg height="800px" width="800px" version="1.1" id="Layer_1" xmlns="http://www.w3.org/2000/svg" xmlns:xlink="http://www.w3.org/1999/xlink" viewBox="0 0 512.002 512.002" xml:space="preserve" fill="#000000">
<g id="SVGRepo_bgCarrier" stroke-width="0"/>
<g id="SVGRepo_tracerCarrier" stroke-linecap="round" stroke-linejoin="round"/>
<g id="SVGRepo_iconCarrier"> <path style="fill:#ff4763;" d="M330.682,455.335c-37.771,37.771-87.394,56.657-137.002,56.657 c-49.623,0-99.246-18.886-137.017-56.657C2.473,401.146-12.851,322.574,10.719,254.597l35.998-0.724l10.669,3.192l5.379,1.611 c20.157,6.029,41.702,6.916,62.287,2.571c22.536-4.758,46.032-4.877,68.627-0.384c3.842,0.754,7.64,1.64,11.423,2.675l22.964,6.236 c0.163,0.044,0.31,0.103,0.473,0.163c12.679,1.197,25.536,0.502,38.052-2.143c22.181-4.684,45.278-4.877,67.533-0.606 c4.212,0.798,8.379,1.773,12.517,2.896l22.964,6.236l13.64,1.951C396.398,341.06,377.763,408.254,330.682,455.335z"/> <path style="fill:#ff0019;" d="M330.682,455.335c-37.771,37.771-87.394,56.657-137.002,56.657V260.863 c3.842,0.754,7.64,1.64,11.423,2.675l22.964,6.236c0.163,0.044,0.31,0.103,0.473,0.163c12.679,1.197,25.536,0.502,38.052-2.143 c22.181-4.684,45.278-4.877,67.533-0.606c4.212,0.798,8.379,1.773,12.517,2.896l22.964,6.236l13.64,1.951 C396.398,341.06,377.763,408.254,330.682,455.335z"/> <path style="fill:#BBD7D8;" d="M383.249,278.275c-2.874-13.678-7.262-27.137-13.177-40.156l130.251-130.251 c15.57-15.549,15.57-40.857,0.01-56.416l-39.781-39.781C453.028,4.148,442.997,0.01,432.338,0.01 c-10.68,0-20.69,4.138-28.213,11.661l-130.24,130.24c-72.738-33.072-159.894-17.931-217.23,39.404 c-21.348,21.348-36.666,46.489-45.945,73.28c-23.563,67.972-8.244,146.552,45.945,200.741 c37.774,37.774,87.397,56.656,137.022,56.645c49.602,0.01,99.237-18.881,137.001-56.645 C377.763,408.254,396.395,341.055,383.249,278.275z M193.678,467.679c-38.255-0.01-76.53-14.566-105.652-43.688l-0.01-0.01 c-45.057-45.057-55.266-111.963-30.626-166.906c7.21-16.113,17.42-31.212,30.626-44.42c47.346-47.346,121.065-57.387,179.257-24.42 c8.966,5.079,19.948,3.208,26.812-3.866c0.136-0.115,0.272-0.231,0.408-0.365L432.341,46.156l33.501,33.501L327.994,217.504 c-0.136,0.136-0.241,0.282-0.365,0.408c-7.074,6.866-8.945,17.847-3.866,26.812c4.127,7.284,7.565,14.797,10.365,22.466 c19.52,53.752,6.645,115.361-34.797,156.803C270.198,453.123,231.933,467.689,193.678,467.679z"/> <path style="fill:#B1CCCD;" d="M330.679,455.338c-37.764,37.764-87.397,56.656-137.001,56.645 c-49.623,0.01-99.247-18.871-137.022-56.645l31.358-31.358l0.01,0.01c29.122,29.122,67.397,43.678,105.652,43.688 s76.521-14.556,105.653-43.688c41.442-41.442,54.315-103.051,34.797-156.803c-2.8-7.67-6.238-15.182-10.365-22.466 c-5.079-8.966-3.208-19.948,3.866-26.812c0.126-0.126,0.231-0.272,0.365-0.408L465.84,79.653l-16.75-16.749l31.348-31.348 l19.895,19.895c15.559,15.559,15.559,40.867-0.01,56.416L370.072,238.119c5.914,13.019,10.303,26.478,13.177,40.156 C396.395,341.055,377.763,408.254,330.679,455.338z"/> <path style="fill:#F4B74A;" d="M490.396,157.398c-4.327,4.327-10,6.489-15.674,6.499c-5.675-0.01-11.348-2.174-15.675-6.499 L354.596,52.947c-8.652-8.652-8.652-22.695,0-31.348c8.652-8.652,22.695-8.652,31.348,0l4.127,4.127l14.055-14.055 c7.523-7.523,17.534-11.661,28.213-11.661c10.659,0,20.69,4.138,28.213,11.661l39.781,39.781 c15.559,15.559,15.559,40.867-0.01,56.416l-14.055,14.055l4.127,4.127C499.048,134.701,499.048,148.746,490.396,157.398z"/> <path style="fill:#EFA125;" d="M490.396,157.398c-4.327,4.327-10,6.489-15.674,6.499c-5.675-0.01-11.348-2.174-15.675-6.499 l-52.225-52.225l73.616-73.616l19.895,19.895c15.559,15.559,15.559,40.867-0.01,56.416l-14.055,14.055l4.127,4.127 C499.048,134.701,499.048,148.746,490.396,157.398z"/> <path style="fill:#5c0008;" d="M248.934,379.608c-14.421,0-26.153,11.73-26.153,26.152s11.732,26.152,26.153,26.152 c14.42,0,26.152-11.73,26.152-26.152S263.354,379.608,248.934,379.608z"/> <g> <path style="fill:#940007;" d="M165.506,399.653c-14.42,0-26.152,11.73-26.152,26.152s11.732,26.152,26.152,26.152 s26.152-11.73,26.152-26.152S179.926,399.653,165.506,399.653z"/> <path style="fill:#940007;" d="M118.576,341.83c-14.421,0-26.153,11.73-26.153,26.152c0,14.421,11.732,26.153,26.153,26.153 c14.42,0,26.152-11.732,26.152-26.153C144.727,353.561,132.996,341.83,118.576,341.83z"/> </g> </g>
</svg>