<svg id="Capa_1" enable-background="new 0 0 510 510" height="512" viewBox="0 0 510 510" width="512" xmlns="http://www.w3.org/2000/svg" xmlns:xlink="http://www.w3.org/1999/xlink"><radialGradient id="SVGID_1_" cx="241.22" cy="172.518" gradientUnits="userSpaceOnUse" r="248.228"><stop offset="0" stop-color="#ff4974"/><stop offset=".4497" stop-color="#fe4773"/><stop offset=".6292" stop-color="#fc406d"/><stop offset=".7605" stop-color="#f73464"/><stop offset=".8683" stop-color="#f12257"/><stop offset=".9606" stop-color="#e80c46"/><stop offset="1" stop-color="#e4003d"/></radialGradient><linearGradient id="SVGID_2_" gradientUnits="userSpaceOnUse" x1="297.292" x2="176.237" y1="398.22" y2="265.975"><stop offset="0" stop-color="#e4003d" stop-opacity="0"/><stop offset="1" stop-color="#e4003d"/></linearGradient><linearGradient id="SVGID_3_" gradientUnits="userSpaceOnUse" x1="69.133" x2="183.067" y1="203.201" y2="338.498"><stop offset="0" stop-color="#ffe548"/><stop offset=".1758" stop-color="#ffde50"/><stop offset=".4446" stop-color="#ffca65"/><stop offset=".7709" stop-color="#ffaa87"/><stop offset="1" stop-color="#ff90a4"/></linearGradient><path d="m403.071 72.443c-64.211-3.129-117.397 47.305-118.76 110.502-.003.138-.051.138-.053 0-1.363-63.197-54.549-113.63-118.76-110.502-70.522 3.437-117.327 72.413-104.944 141.923 20.828 116.906 164.708 197.399 210.066 220.098 8.609 4.308 18.72 4.308 27.329 0 45.358-22.699 189.238-103.192 210.065-220.098 12.384-69.51-34.422-138.486-104.943-141.923z" fill="url(#SVGID_1_)"/><path d="m61.891 221.001c.252 1.143.511 2.283.785 3.418.148.611.301 1.22.455 1.829.273 1.076.557 2.149.85 3.219.164.598.326 1.196.496 1.791.331 1.16.678 2.314 1.032 3.466.147.478.286.958.437 1.434.507 1.602 1.035 3.197 1.586 4.784.124.356.257.708.383 1.064.439 1.24.888 2.477 1.354 3.708.224.592.457 1.181.687 1.771.388.994.781 1.987 1.185 2.975.26.637.524 1.272.792 1.906.402.955.815 1.907 1.232 2.856.273.62.543 1.241.822 1.859.473 1.046.96 2.086 1.45 3.125.236.5.464 1.003.704 1.5.705 1.463 1.429 2.917 2.168 4.365.311.608.633 1.211.95 1.817.464.888.93 1.776 1.407 2.659.377.698.762 1.393 1.148 2.088.433.782.87 1.562 1.313 2.339.412.723.826 1.444 1.246 2.163.433.741.873 1.478 1.314 2.215.437.73.872 1.461 1.317 2.186.437.712.884 1.418 1.329 2.126.913 1.454 1.841 2.899 2.785 4.336.367.559.729 1.121 1.101 1.677.563.842 1.137 1.677 1.709 2.513.373.544.745 1.09 1.122 1.631.592.85 1.191 1.696 1.793 2.539.357.5.715.998 1.075 1.496.637.879 1.276 1.756 1.923 2.628.292.393.587.783.881 1.175 2.543 3.39 5.161 6.73 7.852 10.012.011.013.022.027.033.04.864 1.054 1.739 2.1 2.617 3.143l.525.624c.87 1.028 1.747 2.05 2.63 3.067l.432.495c5.984 6.861 12.248 13.471 18.698 19.816l.16.16c49.714 48.854 110.313 82.119 136.947 95.448 8.609 4.308 18.72 4.308 27.329 0 18.753-9.385 54.348-28.657 91.123-56.289l-160.571-160.574c-10.208-11.247-24.359-18.704-40.922-19.511-27.742-1.352-51.687 15.667-60.772 39.941l-19.807-19.697c-11.805-13.056-29.116-21.039-48.279-20.256.06 1.245.143 2.493.24 3.741.028.361.063.722.094 1.083.077.892.162 1.784.258 2.677.045.423.093.846.143 1.268.103.877.217 1.755.339 2.632.053.384.103.768.16 1.152.184 1.244.381 2.488.603 3.733.3 1.686.633 3.363.984 5.034.112.537.236 1.069.353 1.603z" fill="url(#SVGID_2_)"/><path d="m187.575 198.09c-34.961-1.703-63.92 25.757-64.663 60.166-.001.075-.028.075-.029 0-.742-34.41-29.701-61.869-64.663-60.166-38.398 1.871-63.882 39.427-57.14 77.274 11.34 63.653 89.68 107.48 114.377 119.839 4.687 2.346 10.193 2.346 14.88 0 24.697-12.359 103.037-56.186 114.377-119.839 6.743-37.847-18.741-75.403-57.139-77.274z" fill="url(#SVGID_3_)"/></svg>