<!DOCTYPE svg PUBLIC "-//W3C//DTD SVG 1.1//EN" "http://www.w3.org/Graphics/SVG/1.1/DTD/svg11.dtd">
<!-- Uploaded to: SVG Repo, www.svgrepo.com, Transformed by: SVG Repo Mixer Tools -->
<svg height="800px" width="800px" version="1.1" id="Layer_1" xmlns="http://www.w3.org/2000/svg" xmlns:xlink="http://www.w3.org/1999/xlink" viewBox="0 0 512 512" xml:space="preserve" fill="#000000">
<g id="SVGRepo_bgCarrier" stroke-width="0"/>
<g id="SVGRepo_tracerCarrier" stroke-linecap="round" stroke-linejoin="round"/>
<g id="SVGRepo_iconCarrier"> <g> <path style="fill:#c20000;" d="M400.075,117.379c46.824,41.343,73.669,100.855,73.669,163.277 C473.744,400.728,376.071,498.4,256,498.4S38.256,400.728,38.256,280.656c0-62.422,26.846-121.935,73.669-163.277 c15.49-13.668,39.126-12.199,52.794,3.291c13.668,15.476,12.199,39.113-3.278,52.78c-30.749,27.159-48.388,66.23-48.388,107.206 c0,78.824,64.122,142.946,142.946,142.946s142.946-64.122,142.946-142.946c0-40.976-17.639-80.048-48.388-107.206 c-15.476-13.668-16.945-37.304-3.278-52.78C360.949,105.18,384.585,103.711,400.075,117.379z"/> <path style="fill:#c20000;" d="M293.399,50.999v229.657c0,20.658-16.741,37.399-37.399,37.399 c-20.658,0-37.399-16.741-37.399-37.399V50.999c0-20.658,16.741-37.399,37.399-37.399C276.658,13.6,293.399,30.341,293.399,50.999z "/> </g> <path d="M256,512C128.437,512,24.656,408.22,24.656,280.656c0-66.326,28.528-129.553,78.267-173.472 c21.097-18.614,53.392-16.597,71.994,4.488c9.011,10.204,13.511,23.313,12.665,36.909c-0.845,13.596-6.932,26.047-17.14,35.063 c-27.829,24.58-43.79,59.939-43.79,97.012c0,71.322,58.024,129.346,129.346,129.346s129.346-58.026,129.346-129.346 c0-37.073-15.961-72.432-43.791-97.013c-10.207-9.014-16.292-21.466-17.138-35.061c-0.845-13.597,3.656-26.706,12.669-36.914 c18.599-21.081,50.893-23.096,71.986-4.487c6.21,5.485,12.183,11.36,17.753,17.463c5.065,5.547,4.671,14.149-0.877,19.212 c-5.546,5.065-14.149,4.67-19.212-0.877c-4.916-5.385-10.186-10.57-15.665-15.408c-9.837-8.679-24.91-7.744-33.594,2.097 c-4.209,4.767-6.308,10.882-5.914,17.227c0.394,6.344,3.234,12.155,7.997,16.36c33.674,29.742,52.986,72.532,52.986,117.4 c0,86.32-70.227,156.546-156.546,156.546S99.454,366.976,99.454,280.656c0-44.867,19.312-87.658,52.984-117.399 c4.764-4.206,7.604-10.018,7.998-16.362c0.393-6.344-1.705-12.461-5.91-17.223c-8.685-9.845-23.757-10.782-33.603-2.097 c-43.892,38.756-69.067,94.552-69.067,153.08c0,112.566,91.579,204.144,204.144,204.144s204.145-91.579,204.145-204.145 c0-28.157-5.7-55.542-16.942-81.397c-2.995-6.888,0.16-14.9,7.05-17.894c6.884-2.999,14.898,0.16,17.894,7.049 c12.739,29.296,19.197,60.332,19.197,92.242C487.345,408.22,383.563,512,256,512z"/> <path d="M439.121,176.438c-4.466,0-8.841-2.198-11.441-6.23l-0.506-0.783c-4.079-6.308-2.271-14.726,4.036-18.804 c6.308-4.08,14.726-2.27,18.804,4.036l0.522,0.808c4.072,6.312,2.255,14.73-4.057,18.8 C444.199,175.736,441.645,176.438,439.121,176.438z"/> <path d="M256,331.655c-28.121,0-50.999-22.877-50.999-50.999V50.999C205.001,22.877,227.879,0,256,0s50.999,22.877,50.999,50.999 v229.657C306.999,308.778,284.121,331.655,256,331.655z M256,27.199c-13.122,0-23.799,10.677-23.799,23.799v229.657 c0,13.122,10.677,23.799,23.799,23.799c13.122,0,23.799-10.677,23.799-23.799V50.999C279.799,37.876,269.124,27.199,256,27.199z"/> </g>
</svg>