<?xml version="1.0" encoding="iso-8859-1"?>
<!-- Generator: Adobe Illustrator 19.0.0, SVG Export Plug-In . SVG Version: 6.00 Build 0)  -->
<svg version="1.1" id="Capa_1" xmlns="http://www.w3.org/2000/svg" xmlns:xlink="http://www.w3.org/1999/xlink" x="0px" y="0px"
	 viewBox="0 0 468.293 468.293" style="enable-background:new 0 0 468.293 468.293;" xml:space="preserve">
<path style="fill:#3A556A;" d="M221.759,317.394c-19.283-4.623-22.356-13.198-22.356-13.198
	c45.518,7.549,114.039-43.512,114.039-43.512c-16.212,3.954-39.384-8.553-39.384-8.553c62.601-6.923,115.465-69.869,115.465-69.869
	c-15.208,10.089-40.445-4.859-40.445-4.859c59.844-10.176,105.749-89.583,105.749-89.583c-13.704,10.212-36.119,6.844-36.119,6.844
	c42.118-24.502,49.584-89.91,49.584-89.91s-65.746-3.389-96.839,34.128c0,0,0.363-22.663,12.689-34.502
	c0,0-85.873,32.226-105.749,89.583c0,0-10.596-27.351,1.856-40.694c0,0-70.781,41.797-87.901,102.407c0,0-8.527-24.912-1.962-40.254
	c0,0-61.631,59.194-61.667,105.333c0,0-7.953-4.441-9.343-24.221c0,0-28.526,33.945-24.689,69.817c0,0-7.615-0.631-12.307-9.412
	c-0.613-1.146-2.324-0.767-2.231,0.53c1.129,15.759,3.674,48.71,6.634,70.469c20.976,6.497,53.061,14.424,68.42,18.128
	c1.264,0.305,1.919-1.321,0.889-2.113c-7.89-6.071-7.261-13.686-7.261-13.686C183.585,339.951,221.759,317.394,221.759,317.394z"/>
<path style="fill:#D5D6DB;" d="M440.665,25.228l-0.982-0.982C351.78,76.768,65.766,260.501,0,463.911l31.549-31.052
	C31.549,432.859,221.897,170.863,440.665,25.228z"/>
<g>
</g>
<g>
</g>
<g>
</g>
<g>
</g>
<g>
</g>
<g>
</g>
<g>
</g>
<g>
</g>
<g>
</g>
<g>
</g>
<g>
</g>
<g>
</g>
<g>
</g>
<g>
</g>
<g>
</g>
</svg>
