<?xml version="1.0" encoding="iso-8859-1"?>
<!-- Generator: Adobe Illustrator 19.0.0, SVG Export Plug-In . SVG Version: 6.00 Build 0)  -->
<svg version="1.1" id="Capa_1" xmlns="http://www.w3.org/2000/svg" xmlns:xlink="http://www.w3.org/1999/xlink" x="0px" y="0px"
	 viewBox="0 0 512 512" style="enable-background:new 0 0 512 512;" xml:space="preserve">
<path style="fill:#FF915A;" d="M271.913,495.275l200.965-348.082c7.073-12.25-1.768-27.563-15.913-27.563H55.035
	c-14.145,0-22.986,15.313-15.913,27.563l200.965,348.082C247.159,507.526,264.841,507.526,271.913,495.275z"/>
<path style="fill:#FFB864;" d="M472.878,364.806l-124.892-216.32c-1.838,101.243-53.4,190.329-131.306,243.883h240.286
	C471.11,392.369,479.951,377.056,472.878,364.806z"/>
<path style="fill:#FF7955;" d="M456.965,119.631H347.176c0.584,7.676,0.881,15.433,0.881,23.258
	c0,114.719-63.852,214.521-157.952,265.816l49.982,86.571c7.072,12.25,24.754,12.25,31.827,0l200.965-348.082
	C479.951,134.944,471.11,119.631,456.965,119.631z"/>
<path style="fill:#FFCF65;" d="M271.913,16.725l200.965,348.082c7.073,12.25-1.768,27.563-15.913,27.563H55.035
	c-14.145,0-22.986-15.313-15.913-27.563L240.086,16.725C247.159,4.474,264.841,4.474,271.913,16.725z"/>
<path style="fill:#FFB864;" d="M347.986,148.486c-1.838,101.244-53.4,190.33-131.306,243.883h114.647L410.059,256L347.986,148.486z"
	/>
<path style="fill:#FFEBBE;" d="M256.527,186.928c58.715-0.233,111.914,23.55,150.313,62.107c4.263,4.281,4.291,11.202,0.062,15.517
	c-38.092,38.861-91.1,63.066-149.815,63.299s-111.914-23.55-150.313-62.107c-4.263-4.281-4.291-11.202-0.062-15.517
	C144.803,211.366,197.812,187.161,256.527,186.928z"/>
<path style="fill:#F7DBB5;" d="M406.84,249.035c-18.575-18.652-40.621-33.832-65.072-44.523
	c-9.273,44.812-28.465,85.989-55.166,121.154c46.855-6.755,88.709-28.887,120.299-61.115
	C411.131,260.237,411.103,253.316,406.84,249.035z"/>
<path style="fill:#736F7B;" d="M325.826,198.299c1.462,5.649,2.254,11.569,2.279,17.671c0.157,39.467-31.71,71.588-71.177,71.745
	s-71.588-31.71-71.745-71.177c-0.024-6.103,0.721-12.028,2.138-17.689c21.663-7.625,44.945-11.824,69.206-11.921
	S304.103,190.846,325.826,198.299z"/>
<path style="fill:#FFFFFF;" d="M265.815,187.107c12.347,3.882,21.327,15.391,21.381,29.026
	c0.067,16.873-13.557,30.607-30.431,30.674s-30.606-13.557-30.673-30.431c-0.054-13.635,8.834-25.215,21.15-29.195
	c3.08-0.146,6.173-0.24,9.286-0.252C259.64,186.916,262.734,186.985,265.815,187.107z"/>
<g>
	<circle style="fill:#AA4141;" cx="120.51" cy="174.04" r="24.15"/>
	<circle style="fill:#AA4141;" cx="120.51" cy="338.21" r="24.15"/>
</g>
<g>
	<circle style="fill:#963737;" cx="390.76" cy="174.04" r="24.15"/>
	<circle style="fill:#963737;" cx="390.76" cy="338.21" r="24.15"/>
	<circle style="fill:#963737;" cx="256" cy="417.14" r="24.15"/>
</g>
<circle style="fill:#AA4141;" cx="256" cy="92.8" r="24.15"/>
<path d="M418.762,256l60.644-105.037c4.684-8.113,4.684-17.8,0-25.913s-13.073-12.956-22.44-12.956H335.677L278.44,12.956
	C273.757,4.843,265.367,0,256,0s-17.756,4.843-22.44,12.956l-15.04,26.05c-2.081,3.605-0.846,8.214,2.759,10.296
	c3.604,2.08,8.214,0.847,10.296-2.759l15.04-26.05c1.959-3.394,5.468-5.419,9.386-5.419s7.427,2.026,9.386,5.419l52.886,91.601
	h-37.157c4.118-5.348,6.576-12.038,6.576-19.295c0-17.474-14.217-31.69-31.691-31.69s-31.691,14.216-31.691,31.69
	c0,7.256,2.457,13.946,6.576,19.295h-37.157l20.499-35.506c2.081-3.605,0.846-8.214-2.759-10.296
	c-3.605-2.081-8.215-0.847-10.296,2.759l-24.851,43.043H55.035c-9.368,0-17.756,4.843-22.44,12.956s-4.684,17.8,0,25.913L93.238,256
	L32.594,361.037c-4.684,8.113-4.684,17.8,0,25.913s13.073,12.956,22.44,12.956h26.064c4.162,0,7.537-3.374,7.537-7.537
	s-3.374-7.537-7.537-7.537H55.035c-3.918,0-7.427-2.026-9.386-5.419c-1.959-3.394-1.959-7.446,0-10.839l56.113-97.191
	c0.273,0.273,0.551,0.537,0.825,0.808l19.856,34.392c-0.639-0.039-1.281-0.064-1.929-0.064c-17.474,0-31.691,14.217-31.691,31.691
	s14.217,31.691,31.691,31.691c12.396,0,23.146-7.158,28.351-17.554l18.755,32.485h-50.604c-4.162,0-7.537,3.374-7.537,7.537
	s3.374,7.537,7.537,7.537h59.307l57.237,99.138C238.243,507.157,246.632,512,256,512c9.368,0,17.757-4.843,22.44-12.956
	l57.237-99.138h121.287c9.368,0,17.756-4.843,22.44-12.956s4.685-17.8,0-25.913L418.762,256z M256,76.182
	c9.163,0,16.617,7.454,16.617,16.616c0,9.163-7.454,16.617-16.617,16.617s-16.617-7.454-16.617-16.617
	C239.383,83.637,246.837,76.182,256,76.182z M120.514,354.828c-9.163,0-16.617-7.454-16.617-16.617s7.454-16.617,16.617-16.617
	s16.617,7.454,16.617,16.617C137.131,347.374,129.677,354.828,120.514,354.828z M456.965,127.167c3.918,0,7.427,2.026,9.386,5.419
	c1.959,3.394,1.959,7.446,0,10.839l-56.292,97.501l-20.335-35.221c0.344,0.011,0.687,0.026,1.033,0.026
	c17.475,0,31.691-14.217,31.691-31.691s-14.217-31.691-31.691-31.691c-12.075,0-22.592,6.791-27.94,16.753l-18.438-31.935
	C344.379,127.167,456.965,127.167,456.965,127.167z M374.141,174.04c0-9.163,7.454-16.617,16.617-16.617s16.617,7.454,16.617,16.617
	s-7.454,16.617-16.617,16.617C381.595,190.658,374.141,183.203,374.141,174.04z M326.975,127.167l51.111,88.527
	c-31.871-21.23-68.693-33.614-107.448-35.902c-11.155-0.672-22.352-0.488-33.48,0.53c-38.08,3.467-74.051,16.697-105.034,38.474
	l52.902-91.629C185.026,127.167,326.975,127.167,326.975,127.167z M248.667,194.661c5.26-0.228,10.521-0.248,15.782-0.063
	c9.099,3.268,15.171,11.817,15.21,21.565c0.025,6.147-2.346,11.936-6.676,16.3s-10.1,6.781-16.248,6.806
	c-6.174,0.045-11.936-2.346-16.3-6.676c-4.364-4.329-6.781-10.099-6.806-16.247C233.589,206.598,239.594,198,248.667,194.661
	C249.919,194.606,239.594,198,248.667,194.661z M193.779,204.612c9.751-3.208,19.71-5.655,29.815-7.346
	c-3.255,5.676-5.067,12.232-5.04,19.14c0.041,10.174,4.041,19.723,11.263,26.888c7.186,7.129,16.705,11.048,26.82,11.048
	c0.053,0,0.105,0,0.158,0c10.174-0.04,19.723-4.04,26.889-11.263c7.165-7.223,11.089-16.803,11.049-26.977
	c-0.027-6.901-1.887-13.436-5.181-19.082c10.115,1.605,20.089,3.963,29.862,7.092c0.751,3.906,1.138,7.888,1.154,11.888
	c0.068,17.074-6.517,33.153-18.543,45.275c-12.026,12.121-28.052,18.834-45.127,18.902c-0.088,0-0.174,0.001-0.262,0.001
	c-16.977,0-32.955-6.58-45.014-18.544c-12.122-12.026-18.835-28.052-18.903-45.128C192.703,212.51,193.059,208.524,193.779,204.612z
	 M120.514,190.658c-9.163,0-16.617-7.454-16.617-16.617s7.454-16.617,16.617-16.617s16.617,7.454,16.617,16.617
	S129.677,190.658,120.514,190.658z M45.649,143.426c-1.959-3.394-1.959-7.446,0-10.839c1.959-3.394,5.468-5.419,9.386-5.419h112.584
	l-18.823,32.603c-5.23-10.324-15.94-17.421-28.283-17.421c-17.474,0-31.691,14.217-31.691,31.691s14.217,31.691,31.691,31.691
	c0.597,0,1.189-0.02,1.777-0.053l-20.35,35.247L45.649,143.426z M135.509,299.068c35.485,23.638,77.103,36.321,120.712,36.321
	c0.298,0,0.598-0.001,0.895-0.002c4.162-0.017,7.524-3.404,7.507-7.567c-0.017-4.152-3.388-7.506-7.536-7.506c-0.01,0-0.02,0-0.03,0
	c-53.639,0.197-104.062-20.166-142.445-57.44l-3.375-5.845c0.151-0.557,0.427-1.087,0.857-1.526
	c19.104-19.489,41.416-34.645,65.767-44.982c-0.145,2.01-0.223,4.027-0.215,6.046c0.084,21.102,8.38,40.907,23.36,55.769
	c14.904,14.786,34.647,22.917,55.628,22.917c0.107,0,0.216-0.001,0.323-0.001c21.101-0.084,40.907-8.38,55.768-23.36
	c14.861-14.98,23-34.85,22.916-55.951c-0.008-2.021-0.102-4.039-0.264-6.049c23.379,9.705,44.917,23.851,63.603,41.993l2.376,4.115
	l-4.604,7.974c-29.092,27.836-65.167,46.191-104.751,53.209c-4.099,0.726-6.832,4.638-6.106,8.737
	c0.727,4.098,4.64,6.83,8.737,6.105c29.397-5.212,56.992-16.238,81.55-32.423l-49.208,85.23h-141.95L135.509,299.068z
	 M390.757,321.593c9.163,0,16.617,7.454,16.617,16.617s-7.454,16.617-16.617,16.617s-16.617-7.454-16.617-16.617
	C374.141,329.048,381.595,321.593,390.757,321.593z M272.617,417.137c0,9.163-7.454,16.617-16.617,16.617
	s-16.617-7.454-16.617-16.617S246.837,400.52,256,400.52C265.162,400.52,272.617,407.974,272.617,417.137z M265.386,491.507
	c-1.959,3.394-5.468,5.419-9.386,5.419s-7.427-2.026-9.386-5.419l-52.886-91.601h35.696c-3.23,4.964-5.115,10.88-5.115,17.231
	c0,17.474,14.217,31.691,31.691,31.691s31.691-14.217,31.691-31.691c0-6.351-1.885-12.267-5.115-17.231h35.696L265.386,491.507z
	 M466.351,379.414c-1.959,3.394-5.468,5.419-9.386,5.419H344.38l18.369-31.816c5.325,10.033,15.879,16.886,28.008,16.886
	c17.475,0,31.691-14.217,31.691-31.691s-14.217-31.691-31.691-31.691c-0.396,0-0.788,0.015-1.18,0.03l19.167-33.198
	c0.561-0.548,1.118-1.102,1.674-1.656l55.933,96.879C468.31,371.968,468.31,376.02,466.351,379.414z"/>
<g>
</g>
<g>
</g>
<g>
</g>
<g>
</g>
<g>
</g>
<g>
</g>
<g>
</g>
<g>
</g>
<g>
</g>
<g>
</g>
<g>
</g>
<g>
</g>
<g>
</g>
<g>
</g>
<g>
</g>
</svg>
