<!DOCTYPE svg PUBLIC "-//W3C//DTD SVG 1.1//EN" "http://www.w3.org/Graphics/SVG/1.1/DTD/svg11.dtd">
<!-- Uploaded to: SVG Repo, www.svgrepo.com, Transformed by: SVG Repo Mixer Tools -->
<svg height="800px" width="800px" version="1.1" id="Layer_1" xmlns="http://www.w3.org/2000/svg" xmlns:xlink="http://www.w3.org/1999/xlink" viewBox="0 0 512 512" xml:space="preserve" fill="#000000" stroke="#000000" stroke-width="0.512">
<g id="SVGRepo_bgCarrier" stroke-width="0"/>
<g id="SVGRepo_tracerCarrier" stroke-linecap="round" stroke-linejoin="round" stroke="#CCCCCC" stroke-width="6.144"> <path style="fill:#FFC36E;" d="M453.754,352.19L394.879,256l57.832-94.483c1.444-2.362,1.698-5.271,0.681-7.849l-6.013-15.263 c-1.357-3.444-4.582-5.711-8.436-5.587l-113.504,2.91l-52.065-95.763c-1.539-2.836-4.509-4.604-7.733-4.612l-19.219-0.043 c-0.009,0-0.013,0-0.022,0c-3.233,0-6.211,1.768-7.754,4.612l-52.086,95.806l-115.155-2.953c-3.767-0.358-7.224,2.237-8.518,5.802 l-5.126,14.06c-0.922,2.526-0.642,5.336,0.762,7.629L117.121,256L57.94,352.69c-1.707,2.793-1.732,6.293-0.07,9.103l7.72,13.052 c1.63,2.759,4.461,4.414,7.828,4.337l113.142-2.905l53.031,97.535c1.547,2.845,4.526,4.612,7.754,4.612c0.095,0,0.194,0,0.289-0.009 l17.625-0.577c3.129-0.095,5.97-1.854,7.466-4.604l52.715-96.958l115.164,2.957c3.84-0.147,7.073-2.138,8.436-5.578l5.393-13.603 C455.453,357.474,455.202,354.56,453.754,352.19z"/> <path style="fill:#F5B464;" d="M251.645,52.978l8.719,0.02l49.565,91.165l5.161,9.493l10.802-0.277l107.325-2.754l2.138,5.429 l-55.534,90.73L374.179,256l5.642,9.217l56.573,92.428l-1.498,3.78l-109.002-2.798l-10.803-0.277l-5.162,9.494l-50.3,92.513 l-7.131,0.234l-50.428-92.747l-5.162-9.494l-10.803,0.277l-107.956,2.774l-2.38-4.024l56.408-92.16l5.642-9.217l-5.641-9.217 l-56.371-92.099l1.493-4.096l108.807,2.79l10.803,0.277l5.161-9.494L251.645,52.978 M246.422,35.31c-0.009,0-0.013,0-0.022,0 c-3.233,0-6.211,1.768-7.754,4.612l-52.086,95.806l-115.155-2.953c-0.233-0.022-0.465-0.033-0.695-0.033 c-3.491,0-6.609,2.49-7.822,5.835l-5.126,14.06c-0.922,2.526-0.642,5.336,0.762,7.629L117.121,256L57.94,352.69 c-1.707,2.793-1.732,6.293-0.07,9.103l7.72,13.052c1.592,2.697,4.334,4.339,7.602,4.339c0.075,0,0.15-0.001,0.226-0.002 l113.142-2.905l53.031,97.535c1.547,2.845,4.526,4.612,7.754,4.612c0.095,0,0.194,0,0.289-0.009l17.625-0.577 c3.129-0.095,5.97-1.854,7.466-4.604l52.715-96.958l115.164,2.957c3.84-0.147,7.073-2.138,8.436-5.578l5.393-13.603 c1.022-2.578,0.771-5.492-0.676-7.862L394.879,256l57.832-94.483c1.444-2.362,1.698-5.271,0.681-7.849l-6.013-15.263 c-1.322-3.353-4.414-5.591-8.132-5.591c-0.1,0-0.201,0.001-0.303,0.004l-113.504,2.91l-52.065-95.763 c-1.539-2.836-4.509-4.604-7.733-4.612L246.422,35.31L246.422,35.31z"/> <g> <circle style="fill:#FFD782;" cx="256" cy="26.483" r="26.483"/> <path style="fill:#FFD782;" d="M256,286.85l-26.434,13.897c-2.622,1.378-5.687-0.849-5.186-3.768l5.048-29.435l-21.385-20.845 c-2.121-2.068-0.951-5.671,1.981-6.097l29.554-4.295l13.217-26.781c1.311-2.656,5.099-2.656,6.41,0l13.217,26.781l29.554,4.295 c2.932,0.426,4.103,4.029,1.981,6.097l-21.385,20.845l5.048,29.435c0.501,2.92-2.563,5.146-5.186,3.768L256,286.85z"/> <circle style="fill:#FFD782;" cx="256" cy="485.517" r="26.483"/> <circle style="fill:#FFD782;" cx="52.966" cy="141.241" r="26.483"/> <circle style="fill:#FFD782;" cx="459.034" cy="141.241" r="26.483"/> <circle style="fill:#FFD782;" cx="52.966" cy="370.759" r="26.483"/> <circle style="fill:#FFD782;" cx="459.034" cy="370.759" r="26.483"/> </g> <path style="fill:#F5B464;" d="M256,167.724c-48.754,0-88.276,39.522-88.276,88.276s39.522,88.276,88.276,88.276 s88.276-39.522,88.276-88.276S304.754,167.724,256,167.724z M256,317.793c-34.127,0-61.793-27.666-61.793-61.793 s27.666-61.793,61.793-61.793s61.793,27.666,61.793,61.793S290.127,317.793,256,317.793z"/> <path style="fill:#FFD782;" d="M256,353.103c-53.543,0-97.103-43.561-97.103-97.103s43.561-97.103,97.103-97.103 s97.103,43.561,97.103,97.103S309.543,353.103,256,353.103z M256,176.552c-43.806,0-79.448,35.638-79.448,79.448 s35.642,79.448,79.448,79.448S335.448,299.81,335.448,256S299.806,176.552,256,176.552z"/> </g>
<g id="SVGRepo_iconCarrier"> <path style="fill:#FFC36E;" d="M453.754,352.19L394.879,256l57.832-94.483c1.444-2.362,1.698-5.271,0.681-7.849l-6.013-15.263 c-1.357-3.444-4.582-5.711-8.436-5.587l-113.504,2.91l-52.065-95.763c-1.539-2.836-4.509-4.604-7.733-4.612l-19.219-0.043 c-0.009,0-0.013,0-0.022,0c-3.233,0-6.211,1.768-7.754,4.612l-52.086,95.806l-115.155-2.953c-3.767-0.358-7.224,2.237-8.518,5.802 l-5.126,14.06c-0.922,2.526-0.642,5.336,0.762,7.629L117.121,256L57.94,352.69c-1.707,2.793-1.732,6.293-0.07,9.103l7.72,13.052 c1.63,2.759,4.461,4.414,7.828,4.337l113.142-2.905l53.031,97.535c1.547,2.845,4.526,4.612,7.754,4.612c0.095,0,0.194,0,0.289-0.009 l17.625-0.577c3.129-0.095,5.97-1.854,7.466-4.604l52.715-96.958l115.164,2.957c3.84-0.147,7.073-2.138,8.436-5.578l5.393-13.603 C455.453,357.474,455.202,354.56,453.754,352.19z"/> <path style="fill:#F5B464;" d="M251.645,52.978l8.719,0.02l49.565,91.165l5.161,9.493l10.802-0.277l107.325-2.754l2.138,5.429 l-55.534,90.73L374.179,256l5.642,9.217l56.573,92.428l-1.498,3.78l-109.002-2.798l-10.803-0.277l-5.162,9.494l-50.3,92.513 l-7.131,0.234l-50.428-92.747l-5.162-9.494l-10.803,0.277l-107.956,2.774l-2.38-4.024l56.408-92.16l5.642-9.217l-5.641-9.217 l-56.371-92.099l1.493-4.096l108.807,2.79l10.803,0.277l5.161-9.494L251.645,52.978 M246.422,35.31c-0.009,0-0.013,0-0.022,0 c-3.233,0-6.211,1.768-7.754,4.612l-52.086,95.806l-115.155-2.953c-0.233-0.022-0.465-0.033-0.695-0.033 c-3.491,0-6.609,2.49-7.822,5.835l-5.126,14.06c-0.922,2.526-0.642,5.336,0.762,7.629L117.121,256L57.94,352.69 c-1.707,2.793-1.732,6.293-0.07,9.103l7.72,13.052c1.592,2.697,4.334,4.339,7.602,4.339c0.075,0,0.15-0.001,0.226-0.002 l113.142-2.905l53.031,97.535c1.547,2.845,4.526,4.612,7.754,4.612c0.095,0,0.194,0,0.289-0.009l17.625-0.577 c3.129-0.095,5.97-1.854,7.466-4.604l52.715-96.958l115.164,2.957c3.84-0.147,7.073-2.138,8.436-5.578l5.393-13.603 c1.022-2.578,0.771-5.492-0.676-7.862L394.879,256l57.832-94.483c1.444-2.362,1.698-5.271,0.681-7.849l-6.013-15.263 c-1.322-3.353-4.414-5.591-8.132-5.591c-0.1,0-0.201,0.001-0.303,0.004l-113.504,2.91l-52.065-95.763 c-1.539-2.836-4.509-4.604-7.733-4.612L246.422,35.31L246.422,35.31z"/> <g> <circle style="fill:#FFD782;" cx="256" cy="26.483" r="26.483"/> <path style="fill:#FFD782;" d="M256,286.85l-26.434,13.897c-2.622,1.378-5.687-0.849-5.186-3.768l5.048-29.435l-21.385-20.845 c-2.121-2.068-0.951-5.671,1.981-6.097l29.554-4.295l13.217-26.781c1.311-2.656,5.099-2.656,6.41,0l13.217,26.781l29.554,4.295 c2.932,0.426,4.103,4.029,1.981,6.097l-21.385,20.845l5.048,29.435c0.501,2.92-2.563,5.146-5.186,3.768L256,286.85z"/> <circle style="fill:#FFD782;" cx="256" cy="485.517" r="26.483"/> <circle style="fill:#FFD782;" cx="52.966" cy="141.241" r="26.483"/> <circle style="fill:#FFD782;" cx="459.034" cy="141.241" r="26.483"/> <circle style="fill:#FFD782;" cx="52.966" cy="370.759" r="26.483"/> <circle style="fill:#FFD782;" cx="459.034" cy="370.759" r="26.483"/> </g> <path style="fill:#F5B464;" d="M256,167.724c-48.754,0-88.276,39.522-88.276,88.276s39.522,88.276,88.276,88.276 s88.276-39.522,88.276-88.276S304.754,167.724,256,167.724z M256,317.793c-34.127,0-61.793-27.666-61.793-61.793 s27.666-61.793,61.793-61.793s61.793,27.666,61.793,61.793S290.127,317.793,256,317.793z"/> <path style="fill:#FFD782;" d="M256,353.103c-53.543,0-97.103-43.561-97.103-97.103s43.561-97.103,97.103-97.103 s97.103,43.561,97.103,97.103S309.543,353.103,256,353.103z M256,176.552c-43.806,0-79.448,35.638-79.448,79.448 s35.642,79.448,79.448,79.448S335.448,299.81,335.448,256S299.806,176.552,256,176.552z"/> </g>
</svg>