<?xml version="1.0" encoding="iso-8859-1"?>
<!-- Uploaded to: SVG Repo, www.svgrepo.com, Generator: SVG Repo Mixer Tools -->
<svg height="800px" width="800px" version="1.1" id="Layer_1" xmlns="http://www.w3.org/2000/svg" xmlns:xlink="http://www.w3.org/1999/xlink" 
	 viewBox="0 0 512.001 512.001" xml:space="preserve">
<circle style="fill:#F7B239;" cx="256.005" cy="256.004" r="246.855"/>
<path style="fill:#E09B2D;" d="M126.308,385.694c-88.802-88.802-95.799-228.426-20.999-325.241
	c-8.286,6.401-16.258,13.399-23.858,20.999c-96.401,96.401-96.401,252.698,0,349.099s252.698,96.401,349.099,0
	c7.599-7.599,14.597-15.573,20.999-23.858C354.735,481.492,215.109,474.495,126.308,385.694z"/>
<path style="fill:#A81004;" d="M254.349,398.758L254.349,398.758c-33.349,0-60.385-27.035-60.385-60.383v-47.575
	c0-33.349,27.035-60.383,60.383-60.383l0,0c33.349,0,60.383,27.035,60.383,60.383v47.575
	C314.734,371.723,287.699,398.758,254.349,398.758z"/>
<g>
	
		<ellipse transform="matrix(0.7071 -0.7071 0.7071 0.7071 -104.4311 155.2862)" style="fill:#FFFFFF;" cx="135.231" cy="203.703" rx="67.73" ry="53.713"/>
	
		<ellipse transform="matrix(0.7071 0.7071 -0.7071 0.7071 254.396 -206.7572)" style="fill:#FFFFFF;" cx="376.776" cy="203.704" rx="67.73" ry="53.713"/>
</g>
<path style="fill:#F95428;" d="M269.717,335.112c4.575-2.074,9.43-3.196,14.468-3.196c11.236,0,21.605,5.551,29.95,14.932
	c-4.111,29.34-29.315,51.908-59.789,51.908s-55.666-22.581-59.777-51.921c8.344-9.369,18.702-14.92,29.925-14.92
	c5.038,0,9.906,1.122,14.481,3.196C248.795,339.565,259.896,339.553,269.717,335.112z"/>
<path style="fill:#FFFFFF;" d="M306.352,260.098c-13.432,13.078-31.779,21.129-52.006,21.129c-20.214,0-38.562-8.052-51.994-21.117
	c10.504-17.775,29.852-29.693,51.994-29.693c16.677,0,31.767,6.758,42.698,17.689C300.63,251.693,303.753,255.719,306.352,260.098z"
	/>
<path d="M256.001,0C114.842,0,0.001,114.841,0.001,256.001s114.841,256.001,256.001,256.001
	c141.158,0,255.999-114.841,255.999-256.001S397.159,0,256.001,0z M256.001,493.701c-131.069,0-237.702-106.631-237.702-237.7
	S124.932,18.299,256.001,18.299c131.068,0,237.7,106.632,237.7,237.702S387.069,493.701,256.001,493.701z"/>
<path d="M189.596,149.344c-24.513-24.512-68.842-20.067-98.818,9.91c-29.976,29.975-34.421,74.305-9.91,98.818
	c10.649,10.649,25.034,15.832,40.363,15.832c19.953,0,41.502-8.788,58.455-25.742C209.663,218.186,214.109,173.856,189.596,149.344z
	 M186.868,195.651c-1.636,14.178-8.781,28.232-20.12,39.571c-11.339,11.339-25.392,18.485-39.571,20.12
	c-13.388,1.551-25.238-2.082-33.369-10.212c-17.377-17.378-12.933-50.098,9.91-72.939c13.444-13.444,30.309-20.514,45.455-20.514
	c10.588,0,20.334,3.456,27.484,10.605C184.786,170.413,188.414,182.264,186.868,195.651z"/>
<path d="M421.223,159.253c-29.975-29.976-74.307-34.422-98.818-9.91c-24.512,24.512-20.067,68.841,9.91,98.818
	c16.955,16.955,38.499,25.742,58.455,25.742c15.326,0,29.715-5.185,40.363-15.832C455.644,233.559,451.199,189.228,421.223,159.253z
	 M418.193,245.132c-8.13,8.131-19.983,11.761-33.369,10.212c-14.178-1.636-28.232-8.781-39.571-20.12
	c-11.339-11.339-18.485-25.394-20.12-39.572c-1.546-13.388,2.082-25.238,10.212-33.369c7.151-7.15,16.895-10.605,27.484-10.605
	c15.144,0,32.012,7.072,45.455,20.515C431.125,195.034,435.57,227.754,418.193,245.132z"/>
<path d="M303.513,241.637c-13.135-13.135-30.596-20.369-49.167-20.369c-24.468,0-47.408,13.1-59.864,34.177
	c-6.321,10.659-9.661,22.886-9.661,35.36v47.565c0,3.33,0.233,6.623,0.687,9.736c4.777,34.091,34.371,59.8,68.838,59.8
	c34.475,0,64.074-25.703,68.844-59.742c0.46-3.161,0.693-6.456,0.693-9.795v-47.565c0-12.468-3.339-24.698-9.661-35.375
	C311.233,250.395,307.63,245.754,303.513,241.637z M284.184,322.767c-6.233,0-12.371,1.349-18.238,4.009
	c-7.382,3.339-15.836,3.34-23.196,0.004c-5.874-2.663-12.016-4.012-18.258-4.012c-7.461,0-14.659,1.892-21.373,5.541v-37.502
	c0-5.474,0.891-10.873,2.578-16.008c14.112,10.111,30.99,15.58,48.648,15.58c17.667,0,34.547-5.471,48.66-15.587
	c1.687,5.137,2.578,10.54,2.578,16.014v37.578C298.816,324.71,291.553,322.767,284.184,322.767z M254.346,239.567
	c13.683,0,26.55,5.33,36.229,15.009c1.261,1.261,2.441,2.605,3.567,3.994c-11.372,8.747-25.239,13.508-39.794,13.508
	c-14.547,0-28.409-4.758-39.782-13.501C224.21,246.71,238.855,239.567,254.346,239.567z M254.346,389.607
	c-23.922,0-44.65-16.803-49.921-39.78c4.841-4.5,11.648-8.762,20.07-8.762c3.617,0,7.218,0.8,10.701,2.38
	c12.153,5.51,26.109,5.512,38.299,0c3.484-1.58,7.082-2.38,10.692-2.38c8.444,0,15.258,4.269,20.097,8.774
	C299.031,372.789,278.288,389.607,254.346,389.607z"/>
</svg>