<!DOCTYPE svg PUBLIC "-//W3C//DTD SVG 1.1//EN" "http://www.w3.org/Graphics/SVG/1.1/DTD/svg11.dtd">
<!-- Uploaded to: SVG Repo, www.svgrepo.com, Transformed by: SVG Repo Mixer Tools -->
<svg height="800px" width="800px" version="1.1" id="Layer_1" xmlns="http://www.w3.org/2000/svg" xmlns:xlink="http://www.w3.org/1999/xlink" viewBox="0 0 512 512" xml:space="preserve" fill="#000000" transform="rotate(45)">
<g id="SVGRepo_bgCarrier" stroke-width="0"/>
<g id="SVGRepo_tracerCarrier" stroke-linecap="round" stroke-linejoin="round"/>
<g id="SVGRepo_iconCarrier"> <path style="fill:#FFDB56;" d="M342.095,84.663L258.263,2.6c-2.334-2.284-5.81-2.948-8.817-1.681 c-3.009,1.266-4.966,4.213-4.966,7.476v23.288c-51.095,2.422-99.948,22.218-138.344,56.215 C66.087,123.358,39.93,171.91,32.482,224.61c-0.491,3.47,1.303,6.863,4.447,8.41c3.142,1.549,6.925,0.901,9.377-1.602l43.865-44.81 l48.89,49.944c1.546,1.581,3.645,2.437,5.796,2.437c0.728,0,1.462-0.098,2.182-0.298c2.85-0.797,5.04-3.083,5.713-5.964 c10.284-43.966,47.367-76.111,91.726-80.598v20.393c0,3.264,1.957,6.21,4.966,7.476c3.011,1.266,6.484,0.602,8.817-1.681 l83.831-82.064c1.558-1.526,2.436-3.615,2.436-5.794C344.528,88.277,343.653,86.189,342.095,84.663z"/> <path style="fill:#FBA806;" d="M243.902,145.269c-6.094-1.009-12.349-1.542-18.73-1.542c-48.263,0-89.508,30.039-106.067,72.438 l19.958,20.388c1.546,1.581,3.645,2.437,5.796,2.437c0.728,0,1.462-0.098,2.182-0.298c2.85-0.797,5.04-3.083,5.713-5.964 c10.24-43.774,47.045-75.819,91.146-80.528v-6.931H243.902z"/> <path style="fill:#3FC8F2;" d="M237.49,365.016c-0.803-2.855-3.1-5.042-5.989-5.707c-44.413-10.215-76.736-47.563-81.023-92.35 h21.759c3.264,0,6.211-1.958,7.476-4.966c1.265-3.009,0.603-6.483-1.68-8.816l-82.064-83.833c-1.526-1.558-3.614-2.437-5.794-2.437 c-2.181,0-4.27,0.879-5.794,2.437L2.315,253.176c-2.284,2.332-2.946,5.806-1.68,8.816c1.265,3.008,4.21,4.966,7.476,4.966H30.51 c2.404,51.146,22.211,100.046,56.248,138.473c35.503,40.082,84.113,66.238,136.873,73.648c0.378,0.054,0.756,0.079,1.131,0.079 c3.056,0,5.896-1.73,7.274-4.529c1.546-3.143,0.9-6.924-1.604-9.375l-44.655-43.713l49.581-48.536 C237.475,370.933,238.292,367.869,237.49,365.016z"/> <path style="fill:#0DAACE;" d="M231.501,359.309c-44.413-10.215-76.736-47.563-81.023-92.35h21.759c3.264,0,6.211-1.958,7.476-4.966 c1.265-3.009,0.603-6.483-1.68-8.816l-51.445-52.555c-9.694,16.749-15.245,36.193-15.245,56.936 c0,62.867,50.964,113.831,113.831,113.831c3.975,0,7.901-0.205,11.771-0.602c0.869-1.767,1.097-3.815,0.547-5.771 C236.686,362.161,234.39,359.974,231.501,359.309z"/> <path style="fill:#894BA2;" d="M473.296,280.857c-3.148-1.561-6.942-0.918-9.397,1.594l-42.072,42.978l-49.944-51.019 c-2.094-2.141-5.198-2.951-8.069-2.112c-2.874,0.84-5.051,3.195-5.663,6.125c-4.776,22.851-17.306,43.767-35.281,58.894 c-16.057,13.514-35.95,21.915-56.747,24.098v-21.937c0-3.264-1.957-6.21-4.966-7.476c-3.008-1.264-6.484-0.602-8.817,1.681 l-83.833,82.065c-1.558,1.526-2.436,3.615-2.436,5.795c0,2.18,0.879,4.269,2.436,5.794l83.833,82.064 c1.546,1.513,3.593,2.315,5.674,2.315c1.059,0,2.127-0.207,3.142-0.634c3.009-1.266,4.966-4.213,4.966-7.476v-22.593 c50.841-2.464,99.486-22.146,137.762-55.894c39.919-35.197,66.14-83.431,73.833-135.818 C478.228,285.826,476.443,282.417,473.296,280.857z"/> <path style="fill:#763794;" d="M473.296,280.857c-3.148-1.561-6.942-0.918-9.397,1.594l-31.495,32.173 c-20.959,80.374-85.142,143.285-166.235,162.421v3.966c50.825-2.474,99.451-22.154,137.715-55.892 c39.919-35.197,66.14-83.431,73.833-135.818C478.228,285.826,476.443,282.417,473.296,280.857z"/> <path style="fill:#F77935;" d="M511.366,250.046c-1.265-3.009-4.212-4.966-7.476-4.966h-24.064 c-2.541-50.811-22.281-99.415-56.059-137.632c-34.64-39.191-81.865-65.122-133.22-73.245l51.547,50.459 c1.558,1.526,2.436,3.615,2.436,5.794s-0.879,4.269-2.436,5.794l-60.063,58.797c42.173,11.063,72.941,46.936,77.701,90.03h-19.969 c-3.264,0-6.211,1.957-7.476,4.966c-1.265,3.009-0.603,6.483,1.68,8.816l82.064,83.831c1.526,1.558,3.614,2.437,5.794,2.437 s4.27-0.879,5.795-2.437l82.064-83.831C511.969,256.529,512.631,253.055,511.366,250.046z"/> <path style="fill:#D9510D;" d="M511.366,250.046c-1.265-3.009-4.212-4.966-7.476-4.966h-24.064 c-2.541-50.811-22.281-99.415-56.059-137.632c-34.64-39.191-81.865-65.122-133.22-73.245l19.694,19.279 c76.503,36.075,129.452,113.886,129.452,204.076c0,31.053-6.279,60.639-17.632,87.561c2.094-0.062,4.089-0.923,5.56-2.425 l82.064-83.831C511.969,256.529,512.631,253.055,511.366,250.046z"/> </g>
</svg>