<?xml version="1.0" encoding="iso-8859-1"?>
<!-- Uploaded to: SVG Repo, www.svgrepo.com, Generator: SVG Repo Mixer Tools -->
<svg height="800px" width="800px" version="1.1" id="Layer_1" xmlns="http://www.w3.org/2000/svg" xmlns:xlink="http://www.w3.org/1999/xlink" 
	 viewBox="0 0 512 512" xml:space="preserve">
<path style="fill:#4E565A;" d="M139.542,216.521v233.824C139.542,490.822,198.129,512,256,512s116.457-21.177,116.457-61.654
	V216.521H139.542z"/>
<path style="fill:#3E474C;" d="M256,216.521H139.542v197.561c6.409,5.039,14.094,9.852,23.341,14.228
	c22.187,10.499,50.273,16.871,80.179,18.302c7.261,0.348,12.938,6.409,12.938,13.679V512c57.871,0,116.457-21.177,116.457-61.654
	v-36.263V216.521H256z"/>
<path style="fill:#ADA999;" d="M139.542,354.44c0,40.476,58.586,61.654,116.457,61.654s116.457-21.177,116.457-61.654v-28.311
	H139.542V354.44z"/>
<path style="fill:#848075;" d="M256,326.128v89.965c57.871,0,116.457-21.177,116.457-61.654v-28.311H256z"/>
<path style="fill:#4E565A;" d="M40.211,275.66c0,51.075,96.612,92.481,215.789,92.481s215.789-41.405,215.789-92.481
	S375.177,183.179,256,183.179S40.211,224.584,40.211,275.66z M160.094,265.384c0-22.701,42.939-41.103,95.906-41.103
	s95.906,18.402,95.906,41.103S308.967,306.487,256,306.487S160.094,288.085,160.094,265.384z"/>
<path style="fill:#5F6568;" d="M99.887,312.561c38.058,13.401,86.839,22.132,134.082,24.252c1.565,0.07,3.576,0.133,5.786,0.188
	c7.416,0.184,11.257-8.785,6.011-14.031l-18.337-18.337c-39.013-5.21-67.334-20.812-67.334-39.247
	c0-22.701,42.939-41.103,95.906-41.103V183.18c-119.174,0-215.783,41.403-215.789,92.477
	C40.369,278.327,51.37,295.478,99.887,312.561z"/>
<path style="fill:#D5D2BD;" d="M272.922,235.242c5.034-5.058,8.971-10.121,12.566-15.186c3.598-5.065,6.79-10.132,9.619-15.2
	c5.624-10.136,10.045-20.277,13.413-30.424c6.823-20.292,9.76-40.603,9.873-60.925c0.058-20.322-2.763-40.659-9.484-61.011
	c-3.317-10.177-7.707-20.358-13.302-30.545c-2.813-5.094-6.008-10.188-9.596-15.286c-0.049-0.069-0.097-0.138-0.147-0.207
	c-6.057-8.579-18.837-8.618-24.942-0.073c-0.04,0.056-0.079,0.112-0.119,0.167c-3.61,5.065-6.826,10.13-9.66,15.198
	c-5.638,10.136-10.072,20.279-13.432,30.424c-6.807,20.292-9.715,40.603-9.743,60.926c0.025,20.324,2.876,40.659,9.613,61.013
	c3.324,10.177,7.703,20.358,13.283,30.545c2.809,5.093,5.979,10.188,9.555,15.285C263.994,225.04,267.91,230.138,272.922,235.242z"
	/>
<path style="fill:#BD7155;" d="M263.25,74.777c1.115-4.612,5.243-7.859,9.987-7.859c0.005,0,0.011,0,0.016,0
	c4.75,0.007,8.875,3.269,9.978,7.889c2.958,12.388,4.376,24.982,4.336,38.531c-0.074,13.408-1.528,25.837-4.447,37.999
	c-1.11,4.62-5.241,7.877-9.992,7.877c-0.005,0-0.011,0-0.018,0c-4.757-0.008-8.886-3.28-9.982-7.91
	c-2.898-12.25-4.314-24.725-4.331-38.16C258.817,99.628,260.272,87.078,263.25,74.777z"/>
<path style="fill:#E7E4CD;" d="M283.402,196.88c-1.61,0-3.207,0.056-4.79,0.166c-13.391,0.929-26.043-6.037-32.001-18.065
	c-0.2-0.404-0.403-0.808-0.606-1.21c-9.618-19.217-21.968-35.665-36.307-50.1c-14.375-14.397-30.776-26.741-49.918-36.309
	c-9.54-4.813-19.836-8.863-30.979-12.054c-5.582-1.584-11.432-2.896-17.56-3.928l-0.184-0.032
	c-10.387-1.744-19.384,7.292-17.597,17.67l0.055,0.322c1.066,6.161,2.409,12.042,4.018,17.651
	c3.243,11.195,7.334,21.531,12.179,31.104c9.63,19.204,22.001,35.632,36.398,50.008c14.434,14.338,30.856,26.661,50.008,36.215
	c5.667,2.854,11.599,5.439,17.811,7.74c3.486,1.291,5.286,5.068,4.161,8.61c-2.074,6.535-3.196,13.494-3.196,20.716
	c0,14.593,4.577,28.109,12.354,39.221c9.077,1.221,18.732,1.881,28.749,1.881c52.968,0,95.906-18.402,95.906-41.103
	c0-18.917,1.924-42.893-10.474-55.29C329.036,197.696,302.32,196.88,283.402,196.88z"/>
<path style="fill:#C1BDAB;" d="M352.003,248.943c-0.059-7.02-0.422-14.093-1.741-20.551h-24.044h-2.055
	c-5.676,0-10.276,4.601-10.276,10.276s4.599,10.276,10.276,10.276h2.055v0.153c0,10.24-6.305,19.455-15.893,23.053
	c-12.12,4.549-30.498,8.647-54.324,8.647c-15.916,0-29.401-1.829-40.215-4.399c1.681,10.366,5.687,19.951,11.465,28.207
	c9.077,1.221,18.732,1.881,28.749,1.881c52.968,0,95.906-18.402,95.906-41.103C351.906,260.172,352.051,254.575,352.003,248.943z"/>
<path style="fill:#CE9276;" d="M157.707,125.512c-4.046-2.48-9.255-1.855-12.605,1.51c-0.004,0.004-0.008,0.008-0.011,0.011
	c-3.35,3.375-3.96,8.614-1.476,12.675c6.66,10.887,14.556,20.827,24.153,30.409c9.522,9.459,19.331,17.245,29.983,23.801
	c4.047,2.491,9.266,1.87,12.621-1.5c0.004-0.004,0.008-0.008,0.012-0.012c3.354-3.38,3.961-8.632,1.465-12.692
	c-6.607-10.746-14.416-20.599-23.896-30.142C178.393,139.995,168.499,132.124,157.707,125.512z"/>
<circle style="fill:#47423F;" cx="269.702" cy="238.669" r="10.276"/>
</svg>