<!DOCTYPE svg PUBLIC "-//W3C//DTD SVG 1.1//EN" "http://www.w3.org/Graphics/SVG/1.1/DTD/svg11.dtd">
<!-- Uploaded to: SVG Repo, www.svgrepo.com, Transformed by: SVG Repo Mixer Tools -->
<svg height="800px" width="800px" version="1.1" id="Layer_1" xmlns="http://www.w3.org/2000/svg" xmlns:xlink="http://www.w3.org/1999/xlink" viewBox="0 0 512.001 512.001" xml:space="preserve" fill="#000000">
<g id="SVGRepo_bgCarrier" stroke-width="0"/>
<g id="SVGRepo_tracerCarrier" stroke-linecap="round" stroke-linejoin="round"/>
<g id="SVGRepo_iconCarrier"> <polygon style="fill:#ffcc00;" points="225.584,244.867 174.304,380.884 268.543,380.884 209.837,509.421 367.316,333.616 271.782,333.616 303.985,244.867 "/> <polygon style="fill:#CCA400;" points="304.519,244.867 226.118,244.867 207.482,294.3 286.581,294.3 "/> <path style="fill:#757575;" d="M459.559,266.555c28.963,0,52.442-23.478,52.442-52.442s-23.478-52.442-52.442-52.442 c-8.73,0-16.954,2.145-24.195,5.918c-7.207-14.273-19.265-25.672-34.023-32.015c0-0.131,0.01-0.258,0.01-0.389 c0-72.553-58.816-131.368-131.369-131.368c-60.083,0-110.709,40.352-126.348,95.422c-34.593,6.07-61.91,33.213-68.236,67.717 c-6.934-3.382-14.723-5.285-22.958-5.285C23.479,161.672,0,185.15,0,214.114s23.479,52.442,52.442,52.442h407.117V266.555z"/> <path style="opacity:0.41;fill:#000000;enable-background:new ;" d="M458.404,160.434c-8.73,0-16.954,2.145-24.195,5.918 c-7.207-14.273-19.265-25.672-34.023-32.015c0-0.131,0.01-0.258,0.01-0.389c0-72.553-58.816-131.368-131.369-131.368 c-11.656,0-22.952,1.525-33.71,4.375c56.216,14.885,97.655,66.097,97.655,126.995c0,0.131-0.009,0.258-0.01,0.389 c14.757,6.342,26.816,17.742,34.023,32.015c7.241-3.774,15.465-5.918,24.195-5.918c28.963,0,52.442,23.478,52.442,52.442 c0,28.963-23.478,52.442-52.442,52.442h67.424c28.963,0,52.442-23.479,52.442-52.442 C510.846,183.912,487.367,160.434,458.404,160.434z"/> <g style="opacity:0.41;"> <path style="fill:#000000;" d="M258.252,34.812c0,3.364-2.216,6.456-5.612,7.421c-40.109,11.389-68.121,48.482-68.121,90.201 c0,4.264-3.455,7.718-7.718,7.718s-7.718-3.455-7.718-7.718c0-48.587,32.626-91.785,79.341-105.052 c4.1-1.165,8.369,1.216,9.534,5.316C258.157,33.404,258.252,34.114,258.252,34.812z"/> </g> </g>
</svg>