<!DOCTYPE svg PUBLIC "-//W3C//DTD SVG 1.1//EN" "http://www.w3.org/Graphics/SVG/1.1/DTD/svg11.dtd">
<!-- Uploaded to: SVG Repo, www.svgrepo.com, Transformed by: SVG Repo Mixer Tools -->
<svg height="800px" width="800px" version="1.1" id="Layer_1" xmlns="http://www.w3.org/2000/svg" xmlns:xlink="http://www.w3.org/1999/xlink" viewBox="0 0 512 512" xml:space="preserve" fill="#000000" stroke="#000000" stroke-width="0.00512">
<g id="SVGRepo_bgCarrier" stroke-width="0"/>
<g id="SVGRepo_tracerCarrier" stroke-linecap="round" stroke-linejoin="round" stroke="#050505" stroke-width="19.456"> <path style="fill:#CCCCCC;" d="M447.381,247.063c-8.102-7.377-12.091-18.265-10.102-29.043c2.197-11.882,3.253-24.17,3.044-36.739 C438.69,81.373,356.68,0.407,256.761,0.002C154.595-0.416,71.64,82.282,71.64,184.362c0,11.514,1.056,22.783,3.081,33.707 c1.989,10.753-2.025,21.629-10.102,29.006c-15.43,14.055-24.833,34.616-23.875,57.349c1.583,37.55,31.903,68.127,69.44,70.017 c2.737,0.135,5.45,0.123,8.126-0.037c8.728-0.516,16.093,6.42,16.093,15.172v18.977c0,1.854,1.08,3.56,2.774,4.321 c6.273,2.811,12.619,5.389,19.039,7.721v53.52c0,10.753,6.837,20.278,16.989,23.826c53.593,18.744,111.998,18.744,165.591,0 c10.139-3.548,16.989-13.073,16.989-23.826v-53.52c6.408-2.332,12.754-4.91,19.026-7.721c1.694-0.761,2.786-2.467,2.786-4.321 v-18.977c0-8.752,7.353-15.688,16.08-15.172c2.676,0.16,5.389,0.172,8.138,0.037c37.537-1.89,67.857-32.468,69.44-70.03 C472.214,281.679,462.811,261.13,447.381,247.063z"/> <path style="fill:#4D4D4D;" d="M282.637,349.781c7.304,12.656-1.829,28.478-16.436,28.478h-9.01 c-14.607,0-23.74-15.823-16.436-28.478l20.941-36.261L282.637,349.781z"/> <path style="fill:#B3B3B3;" d="M196.721,486.371v-54.217c-1.243-0.259-2.488-0.517-3.729-0.793 c-12.435-2.762-24.71-6.346-36.776-10.765v53.52c0,10.753,6.837,20.278,16.989,23.826c9.665,3.381,19.489,6.141,29.412,8.303 C198.897,500.798,196.721,493.826,196.721,486.371z"/> <path style="fill:#808080;" d="M318.996,431.361c-13.859,3.081-27.901,5.131-41.993,6.138c-13.994,1.031-28.024,1.031-42.005,0 c-14.104-1.007-28.147-3.056-42.005-6.138c-12.435-2.762-24.71-6.346-36.776-10.765v13.282c12.066,4.419,24.342,8.003,36.776,10.765 c13.859,3.081,27.901,5.131,42.005,6.138c13.981,1.031,28.012,1.031,42.005,0c14.092-1.007,28.135-3.057,41.993-6.138 c12.435-2.762,24.722-6.346,36.789-10.765v-13.282C343.718,425.015,331.43,428.6,318.996,431.361z"/> <path style="fill:#B3B3B3;" d="M176.401,389.577c0-8.752-7.365-15.688-16.093-15.172c-2.676,0.16-5.389,0.172-8.126,0.037 c-37.537-1.89-67.857-32.468-69.44-70.017c-0.957-22.734,8.445-43.294,23.875-57.349c8.077-7.377,12.091-18.253,10.102-29.006 c-2.025-10.925-3.081-22.193-3.081-33.707c0-94.703,71.402-172.71,163.3-183.158c-6.63-0.757-13.36-1.174-20.177-1.202 C154.595-0.416,71.64,82.282,71.64,184.362c0,11.514,1.056,22.783,3.081,33.707c1.989,10.753-2.025,21.629-10.102,29.006 c-15.43,14.055-24.833,34.616-23.875,57.349c1.583,37.55,31.903,68.127,69.44,70.017c2.737,0.135,5.45,0.123,8.126-0.037 c8.728-0.516,16.093,6.42,16.093,15.172v18.977c0,1.854,1.08,3.56,2.774,4.321c6.273,2.811,12.619,5.389,19.039,7.721 c6.667,2.442,13.4,4.619,20.185,6.552V389.577z"/> <g> <path style="fill:#808080;" d="M192.992,470.139c-3.729,0-6.751-3.022-6.751-6.751v-72.57c0-3.729,3.022-6.751,6.751-6.751 s6.751,3.022,6.751,6.751v72.57C199.743,467.116,196.72,470.139,192.992,470.139z"/> <path style="fill:#808080;" d="M234.997,482.696c-3.729,0-6.751-3.022-6.751-6.751v-72.57c0-3.729,3.022-6.751,6.751-6.751 s6.751,3.022,6.751,6.751v72.57C241.748,479.674,238.726,482.696,234.997,482.696z"/> <path style="fill:#808080;" d="M277.003,482.696c-3.729,0-6.751-3.022-6.751-6.751v-72.57c0-3.729,3.022-6.751,6.751-6.751 s6.751,3.022,6.751,6.751v72.57C283.754,479.674,280.731,482.696,277.003,482.696z"/> <path style="fill:#808080;" d="M318.996,470.139c-3.729,0-6.751-3.022-6.751-6.751v-72.57c0-3.729,3.022-6.751,6.751-6.751 c3.729,0,6.751,3.022,6.751,6.751v72.57C325.747,467.116,322.724,470.139,318.996,470.139z"/> <path style="fill:#808080;" d="M354.299,352.285c-5.084,0-9.206-4.122-9.206-9.206V166.133c0-5.084,4.122-9.206,9.206-9.206 s9.206,4.122,9.206,9.206v176.946C363.505,348.163,359.383,352.285,354.299,352.285z"/> <path style="fill:#808080;" d="M157.688,352.285c-5.084,0-9.206-4.122-9.206-9.206V166.133c0-5.084,4.122-9.206,9.206-9.206 s9.206,4.122,9.206,9.206v176.946C166.895,348.163,162.773,352.285,157.688,352.285z"/> </g> <g> <path style="fill:#4D4D4D;" d="M157.688,228.638l67.525,67.525c-26.404,26.404-69.207,26.404-95.611,0 c-13.282-13.294-19.886-30.725-19.8-48.131C109.926,223.249,140.172,211.121,157.688,228.638z"/> <path style="fill:#4D4D4D;" d="M402.184,248.033c0.086,17.406-6.506,34.837-19.8,48.131c-26.392,26.404-69.207,26.404-95.611,0 l67.525-67.525C371.816,211.121,402.074,223.249,402.184,248.033z"/> </g> </g>
<g id="SVGRepo_iconCarrier"> <path style="fill:#CCCCCC;" d="M447.381,247.063c-8.102-7.377-12.091-18.265-10.102-29.043c2.197-11.882,3.253-24.17,3.044-36.739 C438.69,81.373,356.68,0.407,256.761,0.002C154.595-0.416,71.64,82.282,71.64,184.362c0,11.514,1.056,22.783,3.081,33.707 c1.989,10.753-2.025,21.629-10.102,29.006c-15.43,14.055-24.833,34.616-23.875,57.349c1.583,37.55,31.903,68.127,69.44,70.017 c2.737,0.135,5.45,0.123,8.126-0.037c8.728-0.516,16.093,6.42,16.093,15.172v18.977c0,1.854,1.08,3.56,2.774,4.321 c6.273,2.811,12.619,5.389,19.039,7.721v53.52c0,10.753,6.837,20.278,16.989,23.826c53.593,18.744,111.998,18.744,165.591,0 c10.139-3.548,16.989-13.073,16.989-23.826v-53.52c6.408-2.332,12.754-4.91,19.026-7.721c1.694-0.761,2.786-2.467,2.786-4.321 v-18.977c0-8.752,7.353-15.688,16.08-15.172c2.676,0.16,5.389,0.172,8.138,0.037c37.537-1.89,67.857-32.468,69.44-70.03 C472.214,281.679,462.811,261.13,447.381,247.063z"/> <path style="fill:#4D4D4D;" d="M282.637,349.781c7.304,12.656-1.829,28.478-16.436,28.478h-9.01 c-14.607,0-23.74-15.823-16.436-28.478l20.941-36.261L282.637,349.781z"/> <path style="fill:#B3B3B3;" d="M196.721,486.371v-54.217c-1.243-0.259-2.488-0.517-3.729-0.793 c-12.435-2.762-24.71-6.346-36.776-10.765v53.52c0,10.753,6.837,20.278,16.989,23.826c9.665,3.381,19.489,6.141,29.412,8.303 C198.897,500.798,196.721,493.826,196.721,486.371z"/> <path style="fill:#808080;" d="M318.996,431.361c-13.859,3.081-27.901,5.131-41.993,6.138c-13.994,1.031-28.024,1.031-42.005,0 c-14.104-1.007-28.147-3.056-42.005-6.138c-12.435-2.762-24.71-6.346-36.776-10.765v13.282c12.066,4.419,24.342,8.003,36.776,10.765 c13.859,3.081,27.901,5.131,42.005,6.138c13.981,1.031,28.012,1.031,42.005,0c14.092-1.007,28.135-3.057,41.993-6.138 c12.435-2.762,24.722-6.346,36.789-10.765v-13.282C343.718,425.015,331.43,428.6,318.996,431.361z"/> <path style="fill:#B3B3B3;" d="M176.401,389.577c0-8.752-7.365-15.688-16.093-15.172c-2.676,0.16-5.389,0.172-8.126,0.037 c-37.537-1.89-67.857-32.468-69.44-70.017c-0.957-22.734,8.445-43.294,23.875-57.349c8.077-7.377,12.091-18.253,10.102-29.006 c-2.025-10.925-3.081-22.193-3.081-33.707c0-94.703,71.402-172.71,163.3-183.158c-6.63-0.757-13.36-1.174-20.177-1.202 C154.595-0.416,71.64,82.282,71.64,184.362c0,11.514,1.056,22.783,3.081,33.707c1.989,10.753-2.025,21.629-10.102,29.006 c-15.43,14.055-24.833,34.616-23.875,57.349c1.583,37.55,31.903,68.127,69.44,70.017c2.737,0.135,5.45,0.123,8.126-0.037 c8.728-0.516,16.093,6.42,16.093,15.172v18.977c0,1.854,1.08,3.56,2.774,4.321c6.273,2.811,12.619,5.389,19.039,7.721 c6.667,2.442,13.4,4.619,20.185,6.552V389.577z"/> <g> <path style="fill:#808080;" d="M192.992,470.139c-3.729,0-6.751-3.022-6.751-6.751v-72.57c0-3.729,3.022-6.751,6.751-6.751 s6.751,3.022,6.751,6.751v72.57C199.743,467.116,196.72,470.139,192.992,470.139z"/> <path style="fill:#808080;" d="M234.997,482.696c-3.729,0-6.751-3.022-6.751-6.751v-72.57c0-3.729,3.022-6.751,6.751-6.751 s6.751,3.022,6.751,6.751v72.57C241.748,479.674,238.726,482.696,234.997,482.696z"/> <path style="fill:#808080;" d="M277.003,482.696c-3.729,0-6.751-3.022-6.751-6.751v-72.57c0-3.729,3.022-6.751,6.751-6.751 s6.751,3.022,6.751,6.751v72.57C283.754,479.674,280.731,482.696,277.003,482.696z"/> <path style="fill:#808080;" d="M318.996,470.139c-3.729,0-6.751-3.022-6.751-6.751v-72.57c0-3.729,3.022-6.751,6.751-6.751 c3.729,0,6.751,3.022,6.751,6.751v72.57C325.747,467.116,322.724,470.139,318.996,470.139z"/> <path style="fill:#808080;" d="M354.299,352.285c-5.084,0-9.206-4.122-9.206-9.206V166.133c0-5.084,4.122-9.206,9.206-9.206 s9.206,4.122,9.206,9.206v176.946C363.505,348.163,359.383,352.285,354.299,352.285z"/> <path style="fill:#808080;" d="M157.688,352.285c-5.084,0-9.206-4.122-9.206-9.206V166.133c0-5.084,4.122-9.206,9.206-9.206 s9.206,4.122,9.206,9.206v176.946C166.895,348.163,162.773,352.285,157.688,352.285z"/> </g> <g> <path style="fill:#4D4D4D;" d="M157.688,228.638l67.525,67.525c-26.404,26.404-69.207,26.404-95.611,0 c-13.282-13.294-19.886-30.725-19.8-48.131C109.926,223.249,140.172,211.121,157.688,228.638z"/> <path style="fill:#4D4D4D;" d="M402.184,248.033c0.086,17.406-6.506,34.837-19.8,48.131c-26.392,26.404-69.207,26.404-95.611,0 l67.525-67.525C371.816,211.121,402.074,223.249,402.184,248.033z"/> </g> </g>
</svg>