<?xml version="1.0" encoding="iso-8859-1"?>
<!-- Uploaded to: SVG Repo, www.svgrepo.com, Generator: SVG Repo Mixer Tools -->
<svg height="800px" width="800px" version="1.1" id="Layer_1" xmlns="http://www.w3.org/2000/svg" xmlns:xlink="http://www.w3.org/1999/xlink" 
	 viewBox="0 0 512 512" xml:space="preserve">
<path style="fill:#FFDB6C;" d="M147.68,328.121c0,34.446,0,40.894,0,75.338c0,67.233,44.782,108.54,100.022,108.54h12.346
	c55.241,0,100.022-41.307,100.022-108.54c0-34.446,0-40.892,0-75.338H147.68z M237.125,392.619l-9.98,2.981
	c-22.109,6.605-45.386-5.962-51.992-28.071l9.979-2.981C207.242,357.943,230.52,370.511,237.125,392.619L237.125,392.619z
	 M280.607,395.6l-9.979-2.981l0,0c6.605-22.109,29.883-34.676,51.991-28.071l9.979,2.981
	C325.992,389.638,302.716,402.206,280.607,395.6z"/>
<path style="fill:#FFB04C;" d="M312.116,328.121c0,15.562,0,25.408,0,34.704c3.412,0.139,6.862,0.7,10.284,1.722l9.979,2.981
	c-3.312,11.085-10.817,19.77-20.264,24.845c0,3.371,0,7.028,0,11.085c0,59.884-35.527,99.2-82.327,107.08
	c5.743,0.967,11.657,1.461,17.695,1.461h12.346c55.241,0,100.022-41.307,100.022-108.54c0-34.446,0-40.892,0-75.338L312.116,328.121
	L312.116,328.121z"/>
<g>
	<path style="fill:#FD4DD7;" d="M257.616,480.518h-7.479c-21.658,0-41.323-9.476-53.953-26.001
		c-2.852-3.732-2.139-9.069,1.593-11.922c3.731-2.853,9.069-2.14,11.921,1.592c9.523,12.46,23.884,19.321,40.439,19.321h7.479
		c16.313,0,30.542-6.689,40.065-18.837c2.898-3.699,8.244-4.343,11.939-1.446c3.697,2.898,4.344,8.244,1.446,11.939
		C298.436,471.278,278.954,480.518,257.616,480.518z"/>
	<path style="fill:#FD4DD7;" d="M188.999,24.413c-8.887-3.66-16.691,6.942-10.613,14.388c19.335,23.686,30.422,54.261,29.091,87.214
		c-0.406,10.067-1.938,19.522-4.469,28.332v119.968h101.089v-118.35C291.625,89.815,253.229,50.869,188.999,24.413z"/>
</g>
<circle style="fill:#FFDB6C;" cx="162.21" cy="18.313" r="18.313"/>
<path style="fill:#FFB04C;" d="M168.445,1.099c-1.887-0.683-3.812-1.024-5.714-1.078c6.044,4.75,8.666,13.001,5.906,20.623
	c-2.759,7.622-10.055,12.283-17.738,12.065c1.496,1.176,3.193,2.147,5.08,2.829c9.51,3.443,20.011-1.476,23.452-10.987
	C182.872,15.041,177.956,4.54,168.445,1.099z"/>
<circle style="fill:#FFDB6C;" cx="25.3" cy="223.501" r="18.313"/>
<path style="fill:#FFB04C;" d="M31.533,206.282c-1.004-0.363-2.02-0.613-3.036-0.795c5.424,4.835,7.669,12.65,5.045,19.901
	c-3.079,8.507-11.804,13.319-20.417,11.782c1.691,1.507,3.682,2.734,5.942,3.552c9.51,3.443,20.011-1.476,23.452-10.986
	C45.963,220.225,41.044,209.725,31.533,206.282z"/>
<circle style="fill:#FFDB6C;" cx="486.7" cy="220.893" r="18.313"/>
<path style="fill:#FFB04C;" d="M476.862,222.047c3.443-9.51,13.943-14.428,23.452-10.987c0.867,0.314,1.683,0.705,2.471,1.131
	c-2.061-3.815-5.46-6.925-9.857-8.517c-9.51-3.443-20.011,1.476-23.452,10.987c-3.129,8.643,0.663,18.084,8.516,22.322
	C475.594,232.549,475.011,227.159,476.862,222.047z"/>
<path style="fill:#FC4C59;" d="M360.395,274.316H148.839c-6.528,0-11.82,5.292-11.82,11.82v31.298c0,6.528,5.292,11.82,11.82,11.82
	h211.556c6.528,0,11.82-5.292,11.82-11.82v-31.298C372.215,279.608,366.923,274.316,360.395,274.316z"/>
<path style="fill:#E83A64;" d="M360.395,274.316h-43.394c6.528,0,11.82,5.292,11.82,11.82v31.298c0,6.528-5.292,11.82-11.82,11.82
	h43.394c6.528,0,11.82-5.292,11.82-11.82v-31.298C372.215,279.608,366.923,274.316,360.395,274.316z"/>
<path style="fill:#E846AA;" d="M300.14,138.938c-6.993,4.082-13.523,8.88-19.496,14.29c-10.008,9.066-26.027,1.914-26.027-11.59l0,0
	c-9.805-51.996-35.637-87.18-77.432-112.706c-1.451,2.969-1.382,6.703,1.202,9.869c19.335,23.686,30.422,54.261,29.091,87.214
	c-0.406,10.067-1.938,19.522-4.469,28.332v105.642l101.089,0.719V155.963C302.988,150.073,301.661,144.408,300.14,138.938z"/>
<path style="fill:#7C54B8;" d="M157.192,274.316h97.716v-22.166c0-63.959-51.143-116.935-115.1-117.48
	c-45.988-0.392-85.859,25.955-105.011,64.431c-3.88,7.795,5.155,15.832,12.43,11.047c12.087-7.949,26.555-12.574,42.103-12.574
	C131.714,197.572,157.192,231.931,157.192,274.316z"/>
<path style="fill:#674799;" d="M157.192,274.316h49.017c0-54.591-27.208-99.088-85.087-99.581
	c-32.905-0.28-62.672,13.132-83.965,34.878c2.681,2.168,6.576,2.831,10.069,0.534c12.088-7.949,26.555-12.574,42.103-12.574
	C131.714,197.572,157.192,231.931,157.192,274.316z"/>
<path style="fill:#3CC247;" d="M352.123,274.316h-97.458v-22.166c0-63.959,51.143-116.935,115.1-117.48
	c45.988-0.392,85.859,25.955,105.011,64.431c3.88,7.795-5.155,15.832-12.43,11.047c-12.087-7.949-26.555-12.574-42.103-12.574
	C377.858,197.572,352.123,231.931,352.123,274.316z"/>
<path style="fill:#2DA85F;" d="M389.042,173.223c-58.402,0.498-94.221,43.573-94.221,101.093h57.303
	c0-42.385,25.735-76.743,68.12-76.743c15.549,0,30.017,4.625,42.103,12.574c3.995,2.627,8.515,1.385,11.141-1.556
	C452.163,186.556,422.194,172.941,389.042,173.223z"/>
<g>
	<circle style="fill:#FFDB6C;" cx="169.671" cy="301.789" r="8.278"/>
	<circle style="fill:#FFDB6C;" cx="202.941" cy="301.789" r="8.278"/>
	<circle style="fill:#FFDB6C;" cx="236.222" cy="301.789" r="8.278"/>
	<circle style="fill:#FFDB6C;" cx="269.504" cy="301.789" r="8.278"/>
	<circle style="fill:#FFDB6C;" cx="302.774" cy="301.789" r="8.278"/>
	<circle style="fill:#FFDB6C;" cx="336.055" cy="301.789" r="8.278"/>
</g>
</svg>