<!DOCTYPE svg PUBLIC "-//W3C//DTD SVG 1.1//EN" "http://www.w3.org/Graphics/SVG/1.1/DTD/svg11.dtd">
<!-- Uploaded to: SVG Repo, www.svgrepo.com, Transformed by: SVG Repo Mixer Tools -->
<svg height="800px" width="800px" version="1.1" id="Capa_1" xmlns="http://www.w3.org/2000/svg" xmlns:xlink="http://www.w3.org/1999/xlink" viewBox="0 0 58 58" xml:space="preserve" fill="#b3b3b3" stroke="#b3b3b3" stroke-width="0.23199999999999998" data-darkreader-inline-fill="" data-darkreader-inline-stroke="" style="--darkreader-inline-fill: #43484b; --darkreader-inline-stroke: #b8b2a9;">
<g id="SVGRepo_bgCarrier" stroke-width="0"/>
<g id="SVGRepo_tracerCarrier" stroke-linecap="round" stroke-linejoin="round"/>
<g id="SVGRepo_iconCarrier"> <path style="fill: rgb(236, 240, 241); --darkreader-inline-fill: #dedbd6;" d="M22.649,19.554c-1.535-2.025-4.047-4.432-9.325-5.211c-5.126-0.756-9.761,3.356-9.337,8.52 c0.121,1.473,0.538,3.179,1.37,5.151c0,0,8.392,28.509-5.357,28.509c0,0,6.985,1.63,13.893-3.888 c2.156-1.723,3.806-3.865,4.975-6.259c1.583-3.242,2.075-6.909,1.657-10.492c-0.394-3.375-0.476-8.612,2.199-11.287 C24.033,23.286,23.767,21.029,22.649,19.554z" data-darkreader-inline-fill=""/> <path style="fill: rgb(236, 240, 241); --darkreader-inline-fill: #dedbd6;" d="M35.351,19.554c1.535-2.025,4.047-4.432,9.325-5.211c5.126-0.756,9.761,3.356,9.337,8.52 c-0.121,1.473-0.538,3.179-1.37,5.151c0,0-8.392,28.509,5.357,28.509c0,0-6.985,1.63-13.893-3.888 c-2.156-1.723-3.806-3.865-4.975-6.259c-1.583-3.242-2.075-6.909-1.657-10.492c0.394-3.375,0.476-8.612-2.199-11.287 C33.967,23.286,34.233,21.029,35.351,19.554z" data-darkreader-inline-fill=""/> <path style="fill: rgb(243, 213, 91); --darkreader-inline-fill: #f3d55d;" d="M28.949,1.253c-8.1,0-14.667,2.686-14.667,6s6.567,6,14.667,6s14.667-2.686,14.667-6 S37.049,1.253,28.949,1.253z M38.285,7.6c-1.784,0.812-5.009,1.653-9.336,1.653S21.397,8.412,19.614,7.6 c-0.295-0.134-0.295-0.559,0-0.693c1.784-0.812,5.009-1.653,9.336-1.653s7.552,0.841,9.336,1.653 C38.58,7.041,38.58,7.465,38.285,7.6z" data-darkreader-inline-fill=""/> </g>
</svg>