<?xml version="1.0" encoding="iso-8859-1"?>
<!-- Generator: Adobe Illustrator 19.0.0, SVG Export Plug-In . SVG Version: 6.00 Build 0)  -->
<svg version="1.1" id="Layer_1" xmlns="http://www.w3.org/2000/svg" xmlns:xlink="http://www.w3.org/1999/xlink" x="0px" y="0px"
	 viewBox="0 0 505.794 505.794" style="enable-background:new 0 0 505.794 505.794;" xml:space="preserve">
<path style="fill:#199B94;" d="M63.612,196.655c0,0,1.552-135.758,23.273-181.527l60.509,169.115l-31.806,14.739L63.612,196.655z"/>
<path style="fill:#102D35;" d="M94.642,227.685c0,0-27.927-162.133-6.206-224.194c0,0,40.339,54.303,43.442,78.352l21.721-20.17
	l1.552,24.048l14.739-18.618l1.552,11.636l15.515-6.206l3.103,7.758l30.255-1.552l-7.758,74.473l-70.594,65.939L94.642,227.685z"/>
<path style="fill:#199B94;" d="M442.182,196.655c0,0-1.552-135.758-23.273-181.527L358.4,184.242l31.806,14.739L442.182,196.655z"/>
<g>
	<path style="fill:#102D35;" d="M411.152,227.685c0,0,27.927-162.133,6.206-224.194c0,0-40.339,54.303-43.442,78.352l-21.721-20.17
		l-1.552,24.048l-14.739-18.618l-1.552,11.636l-15.515-6.206l-3.103,7.758l-30.255-1.552l7.758,74.473l70.594,65.939
		L411.152,227.685z"/>
	<polygon style="fill:#102D35;" points="99.297,273.455 63.612,218.376 57.406,264.145 26.376,262.594 50.424,288.194 
		14.739,307.588 104.727,370.424 78.352,407.661 113.261,389.818 113.261,412.315 130.327,399.903 130.327,411.539 141.188,406.109 
		154.376,424.727 117.139,304.485 	"/>
	<polygon style="fill:#102D35;" points="89.988,191.224 66.715,129.164 51.2,173.382 20.945,164.848 38.788,195.103 0,205.964 
		74.473,286.642 40.339,317.673 77.576,307.588 72.145,329.309 92.315,320.776 89.988,332.412 102.4,330.085 110.933,351.03 
		100.848,224.582 	"/>
	<polygon style="fill:#102D35;" points="406.497,273.455 442.182,218.376 448.388,264.145 479.418,262.594 455.37,288.194 
		491.055,307.588 401.067,370.424 427.442,407.661 392.533,389.818 392.533,412.315 375.467,399.903 375.467,411.539 
		364.606,406.109 351.418,424.727 388.655,304.485 	"/>
	<polygon style="fill:#102D35;" points="415.806,191.224 439.079,129.164 454.594,173.382 484.849,164.848 467.006,195.103 
		505.794,205.964 431.321,286.642 465.455,317.673 428.218,307.588 433.648,329.309 413.479,320.776 415.806,332.412 
		403.394,330.085 394.861,351.03 404.945,224.582 	"/>
	<path style="fill:#102D35;" d="M428.994,223.806c0-83.782-79.127-152.048-176.097-152.048S76.8,140.024,76.8,224.582
		c0,40.339,17.842,86.885,46.545,124.897c16.291,74.473,68.267,152.824,129.552,152.824s113.261-78.352,128.776-153.6
		C411.152,310.691,428.994,264.145,428.994,223.806z"/>
</g>
<path style="fill:#3EC1B1;" d="M299.442,416.194c0,17.842-20.945,31.806-46.545,31.806s-46.545-13.964-46.545-31.806
	c0-17.842,20.945-16.291,46.545-16.291S299.442,398.352,299.442,416.194z"/>
<path style="fill:#199B94;" d="M299.442,416.194c0,17.842-20.945,31.806-46.545,31.806s-46.545-13.964-46.545-31.806"/>
<path style="fill:#E57F23;" d="M127.224,236.218L127.224,236.218c-9.309,26.376,3.879,55.855,31.03,65.164
	c26.376,9.309,55.855-3.879,65.164-31.03l0,0L127.224,236.218z"/>
<path style="fill:#FF9C39;" d="M127.224,236.218L127.224,236.218c-9.309,26.376,10.861,40.339,37.236,49.648
	c26.376,9.309,49.648,11.636,58.958-14.739l0,0L127.224,236.218z"/>
<circle style="fill:#102D35;" cx="170.667" cy="272.679" r="9.309"/>
<path style="fill:#E57F23;" d="M378.57,236.218L378.57,236.218c9.309,26.376-3.879,55.855-31.03,65.164
	c-26.376,9.309-55.855-3.879-65.164-31.03l0,0L378.57,236.218z"/>
<path style="fill:#FF9C39;" d="M378.57,236.218L378.57,236.218c9.309,26.376-10.861,40.339-37.236,49.648
	c-26.376,9.309-49.648,11.636-58.958-14.739l0,0L378.57,236.218z"/>
<circle style="fill:#102D35;" cx="335.127" cy="272.679" r="9.309"/>
<g>
	<ellipse style="fill:#194951;" cx="252.897" cy="106.667" rx="58.958" ry="23.273"/>
	<ellipse style="fill:#194951;" cx="252.897" cy="366.545" rx="51.976" ry="14.739"/>
</g>
<ellipse style="fill:#56DBC8;" cx="252.897" cy="404.558" rx="33.358" ry="5.43"/>
<g>
	<path style="fill:#194951;" d="M235.83,247.079c-6.206,10.085-36.461,4.655-68.267-13.964
		c-31.806-17.842-52.752-41.115-47.321-51.2c6.206-10.085,30.255,6.206,62.061,24.824
		C214.885,224.582,242.036,236.218,235.83,247.079z"/>
	<path style="fill:#194951;" d="M269.964,247.079c6.206,10.085,36.461,4.655,68.267-13.964c31.806-17.842,52.751-41.115,47.321-51.2
		c-6.206-10.085-30.255,6.206-62.061,24.824C290.909,224.582,263.758,236.218,269.964,247.079z"/>
</g>
<polygon style="fill:#E2F2EF;" points="178.424,462.739 198.594,502.303 218.764,462.739 "/>
<polygon style="fill:#9AB2AC;" points="194.715,462.739 198.594,502.303 218.764,462.739 "/>
<polygon style="fill:#E2F2EF;" points="287.03,462.739 307.2,502.303 327.37,462.739 "/>
<polygon style="fill:#9AB2AC;" points="303.321,462.739 307.2,502.303 327.37,462.739 "/>
<g>
</g>
<g>
</g>
<g>
</g>
<g>
</g>
<g>
</g>
<g>
</g>
<g>
</g>
<g>
</g>
<g>
</g>
<g>
</g>
<g>
</g>
<g>
</g>
<g>
</g>
<g>
</g>
<g>
</g>
</svg>
