<svg id="Capa_1" enable-background="new 0 0 496.997 496.997" height="512" viewBox="0 0 496.997 496.997" width="512" xmlns="http://www.w3.org/2000/svg"><g><g><path d="m401.837 453.684c-.873 0-1.762-.153-2.628-.478l-261.257-89.765c-2.017-.755-3.612-2.34-4.379-4.352l-92.765-264.257c-1.476-3.871.465-8.205 4.335-9.68 3.873-1.475 8.205.465 9.68 4.335l91.558 261.092 258.085 88.578c3.879 1.452 5.847 5.773 4.396 9.653-1.128 3.013-3.987 4.874-7.025 4.874z" fill="#fef6ad"/></g><path d="m488.087 485.02c-2.85 2.78-7.49 5.52-13.08 7.68-15.07 5.83-37.07 7.4-49.79-6.14l-28.544-28.545c-3.073-3.073-4.837-7.21-4.924-11.555-.568-28.212-4.77-136.901-35.861-164.72-6.05-5.42-12.95-10.12-20.25-14.2-12.28-6.88-25.69-11.97-38-15.71-9.14-2.77-17.43-7.77-24.19-14.52l-13.76-13.76c-6.75-6.76-11.75-15.05-14.52-24.19-3.74-12.31-8.83-25.72-15.71-38-4.08-7.3-8.78-14.2-14.2-20.25-27.819-31.091-136.509-35.294-164.72-35.861-4.346-.087-8.482-1.851-11.555-4.924l-28.546-28.545c-13.54-12.72-11.97-34.72-6.14-49.79 2.16-5.59 4.9-10.23 7.68-13.08 11.88-11.88 31.14-11.88 43.02 0 20.61 18.01 9.22 36.26.12 53.17-1.27 2.37-2.5 4.7-3.59 7.01 0 0 2.71.01 7.5.07 33.59.49 169.67 4.07 197.71 30.47 5.74 5.41 10.93 11.89 15.56 18.89 21.29 32.07 31.19 74.99 31.19 74.99s42.92 9.9 74.99 31.19c7 4.63 13.48 9.82 18.89 15.56 26.48 28.13 30 164.96 30.47 198.01.06 4.61.07 7.2.07 7.2 2.31-1.09 4.65-2.32 7.02-3.59 16.91-9.1 35.16-20.49 53.16.12 11.88 11.88 11.88 31.14 0 43.02z" fill="#fdb4ba"/><g><path d="m488.087 442c-18-20.61-36.25-9.22-53.16-.12-2.37 1.27-4.71 2.5-7.02 3.59 0 0-.01-2.59-.07-7.2-.47-33.05-3.99-169.88-30.47-198.01-5.41-5.74-11.89-10.93-18.89-15.56-32.07-21.29-74.99-31.19-74.99-31.19s-9.9-42.92-31.19-74.99c-4.63-7-9.82-13.48-15.56-18.89-28.04-26.4-164.12-29.98-197.71-30.47-4.79-.06-7.5-.07-7.5-.07 1.09-2.31 2.32-4.64 3.59-7.01 9.1-16.91 20.49-35.16-.12-53.17-11.88-11.88-31.14-11.88-43.02 0-2.78 2.85-5.52 7.49-7.68 13.08 10.576-10.081 30.53-15.496 38.62-7.406 20.727 18.107 11.075 35.63 1.95 52.628-1.637 3.049.536 6.745 3.996 6.794 33.455.479 158.99 20.026 187.054 46.444 5.74 5.41 10.93 11.89 15.56 18.89 21.29 32.07 31.19 74.99 31.19 74.99s42.92 9.9 74.99 31.19c7 4.63 13.48 9.82 18.89 15.56 26.418 28.064 46.437 154.596 46.917 188.052.05 3.46 3.746 5.633 6.794 3.996 16.997-9.125 32.724-19.08 50.83 1.648 8.09 8.09 3.763 27.005-6.081 37.924-.942.364-1.911.712-2.903 1.041.992-.328 1.961-.676 2.903-1.041 5.59-2.16 10.23-4.9 13.08-7.68 11.88-11.88 11.88-31.14 0-43.02z" fill="#fe99a0"/></g><path d="m140.577 356.42-26.48 26.48-1.52 1.53h-.01l-40.33 40.33-32.975-12.304c-5.739-2.142-7.341-9.502-3.009-13.834l33.124-33.132 5.3-5.3h.01l16.825-16.825c2.33-2.33 5.805-3.086 8.892-1.934z" fill="#ecf4ff"/><path d="m155.566 396.592c1.152 3.087.396 6.562-1.934 8.892l-16.825 16.825-6.83 6.83-31.602 31.602c-4.332 4.332-11.693 2.731-13.835-3.009l-12.303-32.972 29.21-29.21 11.13-11.12 1.52-1.53 26.48-26.48z" fill="#ecf4ff"/><g><path d="m119.927 377.07 20.65-20.65-40.172-14.989c-3.087-1.152-6.563-.396-8.892 1.934l-16.826 16.825z" fill="#d2e5fd"/></g><g><path d="m155.566 396.592-14.989-40.172-20.65 20.65 15.141 40.578c1.06 2.84.365 6.037-1.779 8.18l3.518-3.518 16.825-16.825c2.33-2.33 3.086-5.806 1.934-8.893z" fill="#d2e5fd"/></g><path d="m378.477 224.7-42.84 42.84c-12.28-6.88-25.69-11.97-38-15.71-9.14-2.77-17.43-7.77-24.19-14.52l-13.76-13.76c-6.75-6.76-11.75-15.05-14.52-24.19-3.74-12.31-8.83-25.72-15.71-38l42.84-42.84c21.29 32.07 31.19 74.99 31.19 74.99s42.92 9.9 74.99 31.19z" fill="#a44f3e"/><path d="m378.477 224.7c-32.07-21.29-74.99-31.19-74.99-31.19s-9.9-42.92-31.19-74.99l-20.82 20.82c21.29 32.07 31.19 74.99 31.19 74.99s42.92 9.9 74.99 31.19z" fill="#883f2e"/><g><path d="m126.947 379.7c-1.13 3.02-3.99 4.88-7.03 4.88-.87 0-1.75-.15-2.62-.48l-3.2-1.2-42.04-15.68c-1.04-.39-1.95-.99-2.68-1.73l5.3-5.3h.01l5.82-5.82 42.03 15.68c1.04.39 1.94.98 2.68 1.73 2.02 2 2.79 5.08 1.73 7.92z" fill="#5294fe"/></g><g><path d="m129.977 429.14-11.13 11.13c-.74-.73-1.33-1.64-1.72-2.68l-15.68-42.04-1.2-3.2c-1.45-3.88.52-8.2 4.4-9.65 2.84-1.06 5.92-.29 7.93 1.73.74.74 1.33 1.64 1.72 2.67z" fill="#5294fe"/></g><g><path d="m58.053 446.444c-1.919 0-3.839-.732-5.303-2.197-2.929-2.929-2.929-7.678 0-10.606l323.002-323.002c2.93-2.929 7.678-2.929 10.607 0s2.929 7.678 0 10.606l-323.002 323.002c-1.465 1.464-3.384 2.197-5.304 2.197z" fill="#0055a3"/></g><g><path d="m51.527 69.09c1.09-2.31 2.32-4.64 3.59-7.01l-14.24-14.25 2.27-20.07c.47-4.12-2.49-7.83-6.61-8.3-4.11-.47-7.83 2.49-8.3 6.61l-2.67 23.67c-.26 2.27.53 4.53 2.15 6.15l17.261 17.261c1.362 1.362 3.648 1.053 4.599-.623z" fill="#fd4755"/></g><g><path d="m427.907 445.47c2.31-1.09 4.65-2.32 7.02-3.59l14.53 14.53 20.08-2.27c4.1-.46 7.83 2.5 8.29 6.61.47 4.12-2.49 7.83-6.61 8.3l-23.67 2.67c-.28.04-.56.05-.84.05-1.98 0-3.89-.78-5.3-2.19l-16.874-16.903c-1.715-1.718-1.311-4.6.811-5.781z" fill="#fd4755"/></g><path d="m434.897 72.17v42.21c-.01 14.5-11.6 26.53-26.11 26.64-4.45.03-8.66-1.05-12.34-2.97-3.74-1.95-6.95-4.76-9.36-8.18-3.652-2.764-2.232-12.809-9.06-15.5-12.57-2.05-22.14-12.99-22.04-26.16.11-14.5 12.12-26.11 26.63-26.11h42.21c1.21 0 2.37.22 3.45.61 3.86 1.41 6.62 5.11 6.62 9.46z" fill="#fd4755"/><path d="m428.277 62.71c-1.08-.39-2.24-.61-3.45-.61h-24.2c1.22 0 2.38.22 3.45.61 3.87 1.41 6.63 5.11 6.63 9.46v42.21c-.01 10.22-5.78 19.22-14.26 23.67 3.68 1.92 7.89 3 12.34 2.97 14.51-.11 26.1-12.14 26.11-26.64v-42.21c0-4.35-2.76-8.05-6.62-9.46z" fill="#fb2b3a"/></g></svg>