<!DOCTYPE svg PUBLIC "-//W3C//DTD SVG 1.1//EN" "http://www.w3.org/Graphics/SVG/1.1/DTD/svg11.dtd">
<!-- Uploaded to: SVG Repo, www.svgrepo.com, Transformed by: SVG Repo Mixer Tools -->
<svg height="800px" width="800px" version="1.1" id="Layer_1" xmlns="http://www.w3.org/2000/svg" xmlns:xlink="http://www.w3.org/1999/xlink" viewBox="0 0 512 512" xml:space="preserve" fill="#000000" transform="rotate(45)matrix(1, 0, 0, 1, 0, 0)" stroke="#000000" stroke-width="0.512">
<g id="SVGRepo_bgCarrier" stroke-width="0"/>
<g id="SVGRepo_tracerCarrier" stroke-linecap="round" stroke-linejoin="round" stroke="#000000" stroke-width="2.048"/>
<g id="SVGRepo_iconCarrier"> <path style="fill:#616267;" d="M282.208,512H99.459c-9.217,0-16.696-7.473-16.696-16.696s7.479-16.696,16.696-16.696h182.749 c64.805,0,117.772-52.174,118.087-116.31V109.446c0-9.223,7.479-16.696,16.696-16.696s16.696,7.473,16.696,16.696V362.38 C433.285,444.918,365.328,512,282.208,512z"/> <path style="fill:#696B6F;" d="M379.663,67.864l-39.352-39.352c-6.52-6.52-6.52-17.091,0-23.611l0,0c6.52-6.52,17.091-6.52,23.611,0 l39.352,39.352c6.52,6.52,6.52,17.091,0,23.611l0,0C396.754,74.383,386.183,74.383,379.663,67.864z"/> <path style="fill:#C1C4CE;" d="M474.108,75.734L257.671,292.17l-70.834-70.834L403.274,4.9c6.532-6.532,17.079-6.534,23.611,0 l47.222,47.222C480.64,58.655,480.64,69.2,474.108,75.734z"/> <path style="fill:#B7B9C4;" d="M474.108,75.734L257.671,292.17l-11.806-11.806L474.108,52.122 C480.64,58.655,480.64,69.2,474.108,75.734z"/> <path style="fill:#696B6F;" d="M161.554,294.957H98.108c-9.217,0-16.696-7.473-16.696-16.696s7.479-16.696,16.696-16.696h63.446 c9.217,0,16.696,7.473,16.696,16.696C178.25,287.484,170.771,294.957,161.554,294.957z"/> <path style="fill:#7E7F85;" d="M167.576,423.194c-6.076-6.934-5.392-17.484,1.544-23.56c6.957-6.087,17.489-5.386,23.565,1.538 c13.127,14.984,35.489,14.939,48.771,1.657c10.316-10.316,12.718-26.5,5.848-39.353c-4.348-8.131-1.272-18.245,6.859-22.593 c8.097-4.342,18.239-1.282,22.598,6.853c13.956,26.114,9.261,57.745-11.696,78.707C238.337,453.171,193.632,452.897,167.576,423.194 z"/> <path style="fill:#816952;" d="M142.922,489.717l88.541-124.432c4.723-6.611,3.936-15.741-1.81-21.486l-47.222-47.222 c-3.149-3.149-7.398-4.88-11.806-4.88c-4.408,0-8.657,1.732-11.805,4.88l-111.13,111.13c-19.597,19.597-19.597,51.237,0,70.834 l18.418,18.418C88.772,519.624,126,515.138,142.922,489.717z"/> <path style="fill:#77604B;" d="M66.106,496.958l-18.418-18.418l158.353-158.353l23.611,23.611c5.746,5.746,6.532,14.875,1.81,21.486 l-88.54,124.432C126,515.138,88.772,519.624,66.106,496.958z"/> <path style="fill:#A3A5AE;" d="M356.052,217.401l-82.639-82.639l-114.12,114.12c-19.597,19.597-19.597,51.237,0,70.834 l47.222,47.222c3.149,3.149,7.398,4.88,11.806,4.88h47.222c4.408,0,8.657-1.732,11.805-4.88l78.704-78.704 C375.649,268.638,375.649,236.998,356.052,217.401z"/> <path style="fill:#999CA4;" d="M356.052,288.234l-78.704,78.704c-3.148,3.148-7.397,4.88-11.805,4.88H218.32 c-4.408,0-8.657-1.732-11.806-4.88l-23.611-23.611L332.441,193.79l23.611,23.611C375.649,236.998,375.649,268.638,356.052,288.234z"/> <path d="M252.902,296.459h0.115H252.902z"/> <g> <path style="fill:#85878D;" d="M277.347,248.882L277.347,248.882c-6.52-6.52-6.52-17.091,0-23.611l43.287-43.287l23.611,23.611 l-43.287,43.287C294.438,255.402,283.868,255.402,277.347,248.882z"/> <path style="fill:#85878D;" d="M230.125,296.105L230.125,296.105c-6.52-6.52-6.52-17.091,0-23.611l0,0 c6.52-6.52,17.091-6.52,23.611,0l0,0c6.52,6.52,6.52,17.091,0,23.611l0,0C247.216,302.624,236.646,302.624,230.125,296.105z"/> </g> <g> <path style="fill:#7E7F85;" d="M253.736,296.104c6.52-6.52,6.519-17.092,0-23.611l-23.611,23.611 C236.645,302.624,247.216,302.624,253.736,296.104z"/> <path style="fill:#7E7F85;" d="M277.347,248.882c6.519,6.519,17.091,6.52,23.611,0l43.287-43.287l-11.806-11.806L277.347,248.882z"/> </g> </g>
</svg>