<?xml version="1.0" encoding="iso-8859-1"?>
<!-- Uploaded to: SVG Repo, www.svgrepo.com, Generator: SVG Repo Mixer Tools -->
<svg height="800px" width="800px" version="1.1" id="Capa_1" xmlns="http://www.w3.org/2000/svg" xmlns:xlink="http://www.w3.org/1999/xlink" 
	 viewBox="0 0 464 464" xml:space="preserve">
<g>
	<path style="fill:#D2504B;" d="M232,220.431c20.716-9.604,43.692-33.146,43.692-52.732c0-14.146-11.467-25.613-25.613-25.613
		c-7.058,0-13.447,2.856-18.08,7.473c-4.633-4.617-11.022-7.473-18.08-7.473c1.793,0,3.541,0.188,5.23,0.539
		C197.032,157.19,212.414,200.091,232,220.431z"/>
	<path style="fill:#BE3C3C;" d="M188.308,167.699c0,19.586,22.977,43.127,43.692,52.732c-19.586-20.339-34.968-63.241-12.85-77.806
		c-1.689-0.351-3.437-0.539-5.23-0.539C199.775,142.086,188.308,153.553,188.308,167.699z"/>
	<path style="fill:#D2504B;" d="M163.234,89.625c0.512-0.137,1.025-0.246,1.537-0.328C164.258,89.38,163.745,89.488,163.234,89.625z
		"/>
	<path style="fill:#D2504B;" d="M185.559,131.623c10.366-8.66,19.891-25.629,16.892-36.82c-2.166-8.083-10.474-12.879-18.556-10.713
		c-4.033,1.081-7.246,3.691-9.186,7.038c-2.923-1.681-6.404-2.392-9.92-1.832c0.506-0.08,1.012-0.135,1.516-0.163
		C155.896,100.841,171.254,123,185.559,131.623z"/>
	<path style="fill:#BE3C3C;" d="M185.559,131.623c-14.305-8.623-29.663-30.782-19.255-42.49c-0.503,0.028-1.009,0.083-1.516,0.163
		c-0.006,0.001-0.012,0.001-0.018,0.002c-0.512,0.082-1.025,0.19-1.537,0.328c-8.083,2.166-12.879,10.474-10.714,18.556
		C155.519,119.373,172.252,129.307,185.559,131.623z"/>
	<path style="fill:#D2504B;" d="M280.105,84.897c0.512,0.137,1.01,0.299,1.495,0.485C281.115,85.197,280.617,85.034,280.105,84.897z
		"/>
	<path style="fill:#D2504B;" d="M281.623,85.392c0.476,0.183,0.94,0.388,1.388,0.613C282.563,85.779,282.1,85.575,281.623,85.392z"
		/>
	<path style="fill:#D2504B;" d="M278.441,132.431c13.307-2.316,30.04-12.25,33.039-23.441c2.166-8.083-2.631-16.391-10.714-18.556
		c-4.033-1.081-8.121-0.427-11.475,1.502c-1.447-2.497-3.605-4.582-6.281-5.93C268.143,90.941,270.364,117.81,278.441,132.431z"/>
	<path style="fill:#BE3C3C;" d="M278.441,132.431c-8.077-14.621-10.298-41.489,4.57-46.425h0h0c-0.448-0.226-0.912-0.43-1.388-0.613
		c-0.008-0.003-0.015-0.007-0.023-0.01c-0.484-0.186-0.983-0.348-1.495-0.485c-8.083-2.166-16.391,2.631-18.556,10.713
		C258.55,106.802,268.075,123.771,278.441,132.431z"/>
	<path style="fill:#FFE6D2;" d="M88.959,312.024c0.097-0.043,0.193-0.086,0.29-0.129C89.152,311.938,89.056,311.981,88.959,312.024z
		"/>
	<path style="fill:#FFE6D2;" d="M91.087,311.036c0.178-0.086,0.357-0.171,0.534-0.258C91.444,310.866,91.265,310.95,91.087,311.036z
		"/>
	<path style="fill:#FFE6D2;" d="M3.294,316.436c17.277,36.487,60.521,60.612,100.256,63.667
		C63.815,377.047,20.571,352.922,3.294,316.436z"/>
	<path style="fill:#FFE6D2;" d="M93.279,309.93c0.191-0.1,0.382-0.197,0.572-0.299C93.661,309.733,93.47,309.83,93.279,309.93z"/>
	<path style="fill:#FFE6D2;" d="M112,380.431c-2.792,0-5.612-0.11-8.45-0.329C106.388,380.32,109.208,380.431,112,380.431z"/>
	<path style="fill:#FFE6D2;" d="M3.294,316.436C2.06,313.829,0.958,311.16,0,308.431C0.958,311.16,2.06,313.829,3.294,316.436z"/>
	<path style="fill:#FFE6D2;" d="M207.587,254.705c-2.774-19.432-19.431-34.61-39.579-34.61c2.957,0,5.819,0.376,8.593,0.995
		c-17.978,3.084-29.949,17.514-32.585,39.005c-1.063,8.664-4.361,17.837-9.5,26.195c3.735,5.462,6.343,9.753,7.865,12.376
		c1.079,1.86,1.619,3.976,1.619,6.188v0.043c0,6.902-5.375,12.264-11.544,11.451c-6.651-0.876-15.719-2.337-25.961-4.708
		c-15.725,7.428-32.847,8.633-47.952,7.349c-7.804,0.416-15.406-0.049-22.407-0.983c14.851,29.744,46.964,51.035,79.974,58.982
		c11.102-37.228,44.099-64.947,84.109-68.165c-10.792,33.208-33.688,64.038-73.289,70.29c0.051,0.008,0.101,0.018,0.152,0.025
		c-4.805,0.769-9.775,1.292-15.083,1.292c64.194,0,90.977-59.138,95.345-106.204c0.44-4.746,0.655-9.37,0.655-13.796
		C208,258.488,207.854,256.578,207.587,254.705z M176,260.431c-4.418,0-8-3.582-8-8c0-4.418,3.582-8,8-8s8,3.582,8,8
		C184,256.849,180.418,260.431,176,260.431z"/>
	<circle style="fill:#6E4141;" cx="176" cy="252.431" r="8"/>
	<path style="fill:#FFD7B4;" d="M126.931,379.113c39.601-6.251,62.497-37.082,73.289-70.29
		c-40.011,3.218-73.008,30.938-84.109,68.165c-33.009-7.948-65.123-29.238-79.974-58.982c-0.009-0.018-0.019-0.035-0.028-0.053
		C15.465,315.186,0,308.431,0,308.431c0.958,2.729,2.06,5.398,3.294,8.005c17.277,36.486,60.521,60.612,100.256,63.667
		c2.838,0.218,5.659,0.329,8.45,0.329c5.308,0,10.278-0.524,15.083-1.292C127.032,379.131,126.981,379.121,126.931,379.113z"/>
	<path style="fill:#FFD7B4;" d="M106.495,311.641c-3.589-0.831-7.324-1.777-11.149-2.845c-0.497,0.283-0.994,0.566-1.495,0.835
		c-0.19,0.102-0.382,0.199-0.572,0.299c-0.551,0.29-1.103,0.574-1.658,0.848c-0.178,0.087-0.356,0.172-0.534,0.258
		c-0.611,0.295-1.224,0.583-1.839,0.859c-0.096,0.043-0.193,0.086-0.29,0.129c-10.077,4.465-20.68,6.431-30.926,6.926
		c0.168,0.015,0.341,0.025,0.51,0.039C73.648,320.274,90.769,319.069,106.495,311.641z"/>
	<path style="fill:#FFD7B4;" d="M134.516,286.29c5.14-8.358,8.437-17.531,9.5-26.195c2.636-21.491,14.607-35.921,32.585-39.005
		c-2.774-0.619-5.636-0.995-8.593-0.995c-22.09,0-37.008,15.336-39.992,39.664c-0.414,3.372-1.165,6.821-2.231,10.27
		c-0.306,0.989-0.643,1.978-1,2.965C128.615,277.905,131.852,282.395,134.516,286.29z"/>
	<path style="fill:#EBC3A5;" d="M106.495,311.641c10.243,2.371,19.31,3.832,25.961,4.708C138.625,317.162,144,311.8,144,304.898
		v-0.043c0-2.213-0.54-4.329-1.619-6.188c-1.522-2.624-4.13-6.915-7.865-12.376c-2.664-3.895-5.901-8.385-9.731-13.297
		C103.128,245.221,62.557,204.037,0,181.561c0,0,11.7,42.5,28.8,80c2.469,5.415,23.959,12.316,27.612,16.009
		c0.995,1.006-14.993,6.754-13.212,7.991c16.021,11.126,34.999,18.444,52.146,23.234
		C99.171,309.864,102.906,310.811,106.495,311.641z"/>
	<path style="fill:#6E4141;" d="M256.413,254.705l-20.301,6.091c-2.728,0.818-4.096,2.212-4.112,3.609
		c-0.016-1.397-1.384-2.791-4.112-3.609l-20.301-6.091c0.267,1.874,0.413,3.784,0.413,5.726c0,4.427-0.215,9.051-0.655,13.796
		l20.543-6.164c2.728-0.818,4.096-2.213,4.112-3.61c0.016,1.397,1.384,2.792,4.112,3.61l20.543,6.164
		c-0.44-4.746-0.655-9.37-0.655-13.796C256,258.488,256.146,256.578,256.413,254.705z"/>
	<path style="fill:#FFE6D2;" d="M360.45,380.102c39.735-3.055,82.979-27.18,100.256-63.667
		C443.429,352.922,400.185,377.047,360.45,380.102z"/>
	<path style="fill:#FFE6D2;" d="M374.751,311.895c0.096,0.043,0.193,0.086,0.29,0.129
		C374.944,311.981,374.848,311.938,374.751,311.895z"/>
	<path style="fill:#FFE6D2;" d="M337.069,379.113c-39.601-6.251-62.497-37.082-73.289-70.29
		c40.011,3.218,73.008,30.938,84.109,68.165c33.009-7.948,65.123-29.238,79.974-58.982c-7.001,0.935-14.603,1.399-22.407,0.983
		c-15.105,1.285-32.227,0.079-47.952-7.349c-10.243,2.371-19.31,3.832-25.961,4.708C325.375,317.162,320,311.8,320,304.898v-0.043
		c0-2.213,0.54-4.329,1.619-6.188c1.522-2.624,4.13-6.915,7.865-12.376c-5.14-8.358-8.437-17.531-9.5-26.195
		c-2.636-21.491-14.607-35.921-32.585-39.005c2.774-0.619,5.636-0.995,8.593-0.995c-20.148,0-36.805,15.178-39.579,34.61
		c-0.267,1.874-0.413,3.784-0.413,5.726c0,4.427,0.215,9.051,0.655,13.796c4.368,47.065,31.151,106.204,95.345,106.204
		c-5.308,0-10.278-0.524-15.083-1.292C336.968,379.131,337.019,379.121,337.069,379.113z M288,244.431c4.418,0,8,3.582,8,8
		c0,4.418-3.582,8-8,8s-8-3.582-8-8C280,248.013,283.582,244.431,288,244.431z"/>
	<path style="fill:#FFE6D2;" d="M464,308.431c-0.958,2.729-2.06,5.398-3.294,8.005C461.94,313.829,463.042,311.16,464,308.431z"/>
	<path style="fill:#FFE6D2;" d="M360.45,380.102c-2.838,0.218-5.659,0.329-8.45,0.329
		C354.792,380.431,357.612,380.32,360.45,380.102z"/>
	<path style="fill:#FFE6D2;" d="M370.149,309.631c0.19,0.102,0.382,0.199,0.572,0.299
		C370.53,309.83,370.339,309.733,370.149,309.631z"/>
	<path style="fill:#FFE6D2;" d="M372.378,310.778c0.178,0.087,0.356,0.172,0.534,0.258
		C372.735,310.95,372.556,310.866,372.378,310.778z"/>
	<circle style="fill:#6E4141;" cx="288" cy="252.431" r="8"/>
	<path style="fill:#FFD7B4;" d="M427.864,318.006c-14.851,29.744-46.964,51.035-79.974,58.982
		c-11.102-37.228-44.099-64.947-84.109-68.165c10.792,33.208,33.688,64.038,73.289,70.29c-0.051,0.008-0.101,0.018-0.152,0.025
		c4.805,0.769,9.775,1.292,15.083,1.292c2.792,0,5.612-0.11,8.45-0.329c39.735-3.055,82.979-27.18,100.256-63.667
		c1.234-2.606,2.336-5.276,3.294-8.005c0,0-15.465,6.755-36.108,9.523C427.883,317.972,427.873,317.989,427.864,318.006z"/>
	<path style="fill:#FFD7B4;" d="M319.984,260.095c1.063,8.664,4.361,17.837,9.5,26.195c2.664-3.895,5.901-8.385,9.731-13.297
		c-0.357-0.987-0.694-1.976-1-2.965c-1.066-3.448-1.818-6.897-2.231-10.27c-2.984-24.328-17.902-39.664-39.992-39.664
		c-2.957,0-5.819,0.376-8.593,0.995C305.377,224.174,317.348,238.604,319.984,260.095z"/>
	<path style="fill:#FFD7B4;" d="M357.505,311.641c15.725,7.428,32.847,8.633,47.952,7.349c0.169-0.014,0.341-0.024,0.51-0.039
		c-10.247-0.495-20.85-2.461-30.926-6.926c-0.097-0.043-0.193-0.086-0.29-0.129c-0.615-0.276-1.228-0.564-1.839-0.859
		c-0.178-0.086-0.357-0.171-0.534-0.258c-0.555-0.273-1.107-0.558-1.658-0.848c-0.191-0.1-0.382-0.197-0.572-0.299
		c-0.501-0.269-0.998-0.552-1.495-0.835C364.829,309.864,361.094,310.811,357.505,311.641z"/>
	<path style="fill:#EBC3A5;" d="M329.484,286.29c-3.735,5.462-6.343,9.753-7.865,12.376c-1.079,1.86-1.619,3.976-1.619,6.188v0.043
		c0,6.902,5.375,12.264,11.544,11.451c6.651-0.876,15.719-2.337,25.961-4.708c3.589-0.831,7.324-1.777,11.149-2.845
		c17.147-4.79,36.125-12.108,52.146-23.234c1.781-1.236-14.207-6.984-13.212-7.991c3.653-3.693,25.143-10.594,27.612-16.009
		c17.1-37.5,28.8-80,28.8-80c-62.557,22.476-103.128,63.659-124.784,91.432C335.385,277.905,332.148,282.395,329.484,286.29z"/>
</g>
</svg>