<svg height="512pt" viewBox="-4 0 512 512.6501" width="512pt" xmlns="http://www.w3.org/2000/svg"><path d="m139.824219 407.863281c-.042969.871094-.128907 1.742188-.261719 2.605469v.085938l-94.15625 93.808593c-6.488281 6.964844-16.265625 9.832031-25.488281 7.476563-9.222657-2.355469-16.425781-9.558594-18.78125-18.78125-2.355469-9.226563.511719-19 7.476562-25.488282l94.242188-94.15625c.746093-.128906 1.5-.21875 2.253906-.261718 19.171875 0 34.714844 15.542968 34.714844 34.710937zm0 0" fill="#e4c05c"/><path d="m504.296875 34.277344c-.035156 8.011718-3.179687 15.695312-8.765625 21.433594l-355.96875 354.757812c.132812-.863281.21875-1.734375.261719-2.605469 0-19.167969-15.542969-34.710937-34.714844-34.710937-.753906.042968-1.507813.132812-2.253906.261718l358.050781-357.878906c10.570312-9.707031 27.003906-9.007812 36.707031 1.558594 4.429688 4.609375 6.835938 10.796875 6.683594 17.183594zm0 0" fill="#b19046"/><path d="m53.042969 485.964844c0 14.378906-11.65625 26.035156-26.035157 26.035156-14.375 0-26.03125-11.65625-26.03125-26.035156 0-14.375 11.65625-26.03125 26.03125-26.03125 14.378907 0 26.035157 11.65625 26.035157 26.03125zm0 0" fill="#b19046"/><g fill="#59474e"><path d="m460.90625 60.746094c0 4.792968-3.882812 8.675781-8.675781 8.675781s-8.679688-3.882813-8.679688-8.675781c0-4.792969 3.886719-8.679688 8.679688-8.679688s8.675781 3.886719 8.675781 8.679688zm0 0"/><path d="m252.636719 269.015625c0 4.792969-3.886719 8.679687-8.679688 8.679687s-8.675781-3.886718-8.675781-8.679687 3.882812-8.675781 8.675781-8.675781 8.679688 3.882812 8.679688 8.675781zm0 0"/><path d="m226.601562 295.050781c0 4.792969-3.882812 8.679688-8.675781 8.679688s-8.679687-3.886719-8.679687-8.679688 3.886718-8.679687 8.679687-8.679687 8.675781 3.886718 8.675781 8.679687zm0 0"/><path d="m200.570312 321.085938c0 4.792968-3.886718 8.675781-8.679687 8.675781s-8.679687-3.882813-8.679687-8.675781c0-4.792969 3.886718-8.679688 8.679687-8.679688s8.679687 3.886719 8.679687 8.679688zm0 0"/><path d="m278.671875 242.984375c0 4.792969-3.886719 8.675781-8.679687 8.675781-4.792969 0-8.679688-3.882812-8.679688-8.675781s3.886719-8.679687 8.679688-8.679687c4.792968 0 8.679687 3.886718 8.679687 8.679687zm0 0"/></g><path d="m29.613281 338.441406c-1.949219.003906-3.894531-.152344-5.816406-.46875-7.964844-.941406-14.914063-5.835937-18.484375-13.015625-5.984375-13.3125 3.222656-30 20.976562-37.992187 7.4375-3.472656 15.726563-4.714844 23.855469-3.570313 7.976563.953125 14.929688 5.867188 18.484375 13.070313 5.980469 13.304687-3.230468 29.992187-20.976562 37.984375-5.664063 2.582031-11.8125 3.941406-18.039063 3.992187zm0 0" fill="#285680"/><path d="m61.722656 312.40625c-4.792968 0-8.679687-3.882812-8.679687-8.675781v-130.171875c0-4.792969 3.886719-8.675782 8.679687-8.675782 4.789063 0 8.675782 3.882813 8.675782 8.675782 0 8.191406 7.628906 15.003906 16.488281 22.902344 11.96875 10.707031 26.902343 24.039062 26.902343 46.523437-.527343 13.378906-3.773437 26.507813-9.546874 38.589844-2.140626 4.292969-7.351563 6.035156-11.644532 3.894531-4.292968-2.136719-6.035156-7.351562-3.898437-11.644531 4.585937-9.671875 7.214843-20.152344 7.734375-30.839844 0-14.753906-10.265625-23.882813-21.132813-33.585937-1.640625-1.464844-3.277343-2.933594-4.902343-4.425782v98.757813c0 4.792969-3.886719 8.675781-8.675782 8.675781zm0 0" fill="#285680"/><path d="m142.425781 173.558594c-1.949219.003906-3.890625-.152344-5.8125-.46875-7.976562-.945313-14.929687-5.859375-18.484375-13.058594-5.988281-13.3125 3.21875-30 20.972656-37.992188 7.4375-3.476562 15.726563-4.714843 23.855469-3.566406 7.976563.949219 14.929688 5.867188 18.484375 13.066406 5.980469 13.304688-3.226562 29.992188-20.972656 37.984376-5.664062 2.597656-11.8125 3.972656-18.042969 4.035156zm0 0" fill="#b0d3f0"/><path d="m174.535156 147.527344c-4.792968 0-8.679687-3.886719-8.679687-8.679688v-130.167968c0-4.792969 3.886719-8.679688 8.679687-8.679688 4.792969 0 8.675782 3.886719 8.675782 8.679688 0 8.191406 7.628906 15.003906 16.488281 22.898437 11.96875 10.710937 26.902343 24.039063 26.902343 46.523437-.523437 13.378907-3.773437 26.511719-9.546874 38.589844-2.136719 4.292969-7.351563 6.039063-11.644532 3.898438-4.292968-2.140625-6.035156-7.355469-3.894531-11.648438 4.582031-9.667968 7.210937-20.148437 7.730469-30.839844 0-14.753906-10.265625-23.882812-21.128906-33.582031-1.640626-1.46875-3.28125-2.933593-4.90625-4.425781v98.753906c0 4.792969-3.882813 8.679688-8.675782 8.679688zm0 0" fill="#b0d3f0"/></svg>