<!DOCTYPE svg PUBLIC "-//W3C//DTD SVG 1.1//EN" "http://www.w3.org/Graphics/SVG/1.1/DTD/svg11.dtd">
<!-- Uploaded to: SVG Repo, www.svgrepo.com, Transformed by: SVG Repo Mixer Tools -->
<svg version="1.1" id="Layer_1" xmlns="http://www.w3.org/2000/svg" xmlns:xlink="http://www.w3.org/1999/xlink" viewBox="-34.73 -34.73 565.62 565.62" xml:space="preserve" width="800px" height="800px" fill="#000000" stroke="#000000" stroke-width="1.9846320000000002">
<g id="SVGRepo_bgCarrier" stroke-width="0" transform="translate(0,0), scale(1)">
<rect x="-34.73" y="-34.73" width="565.62" height="565.62" rx="282.81" fill="#01004d" strokewidth="0"/>
</g>
<g id="SVGRepo_tracerCarrier" stroke-linecap="round" stroke-linejoin="round" stroke="#0f72bd" stroke-width="25.800216"> <path style="fill:#0f72bd;" d="M248.082,0.003C111.07,0.003,0,111.063,0,248.085c0,137.001,111.07,248.07,248.082,248.07 c137.006,0,248.076-111.069,248.076-248.07C496.158,111.062,385.088,0.003,248.082,0.003z"/> <g> <circle style="fill:#D8BD80;" cx="263.179" cy="311.979" r="8.231"/> <circle style="fill:#D8BD80;" cx="251.859" cy="273.229" r="10.631"/> <circle style="fill:#D8BD80;" cx="243.629" cy="312.159" r="8.231"/> </g> <g> <path style="fill:#EAD08F;" d="M241.654,312.924c-4.34-1.225-8.659,0.611-12.205,13.173c-3.545,12.562-2.526,32.892,1.814,34.117 c4.341,1.226,10.358-17.119,13.905-29.681C248.713,317.973,245.994,314.15,241.654,312.924z"/> <path style="fill:#EAD08F;" d="M230.047,437.309c-2.185-3.812-6.138-5.65-15.81-0.102c-9.673,5.55-20.814,19.248-18.628,23.057 c2.186,3.811,20.541-3.652,30.213-9.202C235.495,445.514,232.231,441.12,230.047,437.309z"/> </g> <circle style="fill:#BC9F66;" cx="210.209" cy="445.229" r="1.801"/> <path style="fill:#EAD08F;" d="M231.92,363.662c-4.332-0.272-8.102,3.555-9.239,21.537c-1.136,17.979,3.429,44.947,7.76,45.221 c4.333,0.274,6.789-26.249,7.926-44.228C239.505,368.21,236.249,363.938,231.92,363.662z"/> <g> <circle style="fill:#D8BD80;" cx="230.939" cy="359.489" r="6.86"/> <circle style="fill:#D8BD80;" cx="227.849" cy="432.889" r="6.859"/> </g> <path style="fill:#EAD08F;" d="M274.284,309.373c-14.078,0-17.25,3.933-17.25,8.785c0,4.85,3.172,8.783,17.25,8.783 c14.079,0,34.884-6.997,34.884-11.848C309.167,310.242,288.362,309.373,274.284,309.373z"/> <circle style="fill:#D8BD80;" cx="302.969" cy="318.329" r="6.86"/> <g> <path style="fill:#EAD08F;" d="M312.658,171.941c-3.338-3.034-17.805,11.675-27.189,21.996c-9.385,10.321-8.793,15.105-5.458,18.14 c3.336,3.033,8.156,3.168,17.542-7.152C306.937,194.604,315.994,174.975,312.658,171.941z"/> <path style="fill:#EAD08F;" d="M298.776,118.669c-8.641-4.291-24.23-4.956-26.183-1.022c-1.954,3.935,10.465,10.979,19.106,15.271 c8.642,4.292,12.171,2.068,14.126-1.866C307.779,127.118,307.416,122.96,298.776,118.669z"/> </g> <circle style="fill:#BC9F66;" cx="294.759" cy="120.869" r="1.801"/> <g> <path style="fill:#EAD08F;" d="M317.892,159.184c-1.754-10.847-10.06-25.957-14.02-25.317c-3.961,0.64-2.078,16.788-0.325,27.635 c1.753,10.85,5.359,12.774,9.321,12.135C316.828,172.996,319.644,170.033,317.892,159.184z"/> <path style="fill:#EAD08F;" d="M252.832,206.516c-10.91,0-22.552,3.182-22.552,14.405c0,11.223,5.661,46.988,22.552,46.988 s22.552-35.766,22.552-46.988C275.384,209.698,263.742,206.516,252.832,206.516z"/> </g> <circle style="fill:#D8BD80;" cx="229.649" cy="225.039" r="7.545"/> <g> <path style="fill:#EAD08F;" d="M324.754,394.97c-5.957-9.426-10.311-9.649-14.023-7.302c-3.713,2.346-8.653,4.705-2.697,14.133 c5.955,9.428,18.69,24.607,22.404,22.261C334.152,421.717,330.708,404.398,324.754,394.97z"/> <path style="fill:#EAD08F;" d="M314.98,338.744c-3.034-17.761-7.188-21.167-11.467-20.438c-4.277,0.731-7.062,5.325-4.025,23.085 c3.035,17.758,8.283,43.871,12.563,43.141C316.329,383.801,318.013,356.5,314.98,338.744z"/> <path style="fill:#EAD08F;" d="M252.832,278.542c-14.323,0-19.122,5.83-19.122,24.58c0,5.871,9.872,7.535,19.122,7.535 c9.251,0,19.122-1.664,19.122-7.535C271.954,284.887,267.154,278.542,252.832,278.542z"/> </g> <circle style="fill:#BC9F66;" cx="322.449" cy="399.909" r="1.801"/> <rect x="293.729" y="39.996" style="fill:#FBCBAB;" width="2.058" height="81.29"/> <circle style="fill:#D8BD80;" cx="251.859" cy="204.119" r="5.831"/> <path style="fill:#EAD08F;" d="M252.832,145.464c-10.91,0-19.754,9.099-19.754,20.322c0,11.223,2.863,36.614,19.754,36.614 s19.754-25.391,19.754-36.614C272.586,154.563,263.742,145.464,252.832,145.464z"/> <g> <circle style="fill:#D8BD80;" cx="279.039" cy="215.089" r="7.545"/> <circle style="fill:#D8BD80;" cx="310.509" cy="173.589" r="6.516"/> <circle style="fill:#D8BD80;" cx="302.629" cy="134.149" r="6.516"/> </g> <g> <rect x="321.519" y="63.659" style="fill:#FBCBAB;" width="2.058" height="336.47"/> <rect x="204.476" y="50.736" transform="matrix(-0.9997 0.0247 -0.0247 -0.9997 417.075 491.0518)" style="fill:#FBCBAB;" width="2.058" height="394.732"/> </g> <circle style="fill:#D8BD80;" cx="312.569" cy="385.899" r="6.86"/> <path style="fill:#EAD08F;" d="M228.629,225.26c-4.242-1.528-8.748,0.189-13.478,13.313c-4.728,13.123-5.597,34.723-1.354,36.251 c4.244,1.529,11.991-17.592,16.721-30.715C235.246,230.986,232.871,226.79,228.629,225.26z"/> <circle style="fill:#D8BD80;" cx="213.109" cy="273.399" r="6.517"/> <path style="fill:#EAD08F;" d="M213.762,272.001c-3.255-2.345-7.343-2.236-13.764,6.682c-6.42,8.919-11.214,25.481-7.957,27.825 c3.256,2.344,13.328-10.416,19.749-19.334C218.212,278.255,217.018,274.347,213.762,272.001z"/> <circle style="fill:#D8BD80;" cx="192.869" cy="303.239" r="6.516"/> <path style="fill:#EAD08F;" d="M191.965,303.313c-2.579-3.556-6.431-5.161-14.239,0.505c-7.807,5.668-15.623,19.171-13.042,22.727 s14.579-4.184,22.387-9.852C194.879,311.026,194.546,306.868,191.965,303.313z"/> <circle style="fill:#BC9F66;" cx="183.049" cy="304.949" r="1.801"/> <rect x="181.315" y="83.219" transform="matrix(-1 0.0066 -0.0066 -1 365.9657 387.4047)" style="fill:#FBCBAB;" width="2.058" height="222.175"/> <polygon style="fill:#000000;" points="330.518,56.459 264.665,52.086 298.364,38.967 297.849,35.88 256.177,51.829 195.211,51.315 194.954,54.273 232.511,57.746 169.23,81.154 169.423,85.142 179.841,87.456 246.659,59.804 324.409,67.328 331.033,62.119 "/> <polygon style="fill:#2f5593;" points="258.492,51.829 297.849,35.88 289.103,34.851 245.887,51.572 202.671,47.971 195.211,51.315 234.826,55.173 169.23,81.154 179.777,83.212 246.401,56.202 323.766,61.926 330.518,56.459 "/> </g>
<g id="SVGRepo_iconCarrier"> <path style="fill:#0f72bd;" d="M248.082,0.003C111.07,0.003,0,111.063,0,248.085c0,137.001,111.07,248.07,248.082,248.07 c137.006,0,248.076-111.069,248.076-248.07C496.158,111.062,385.088,0.003,248.082,0.003z"/> <g> <circle style="fill:#D8BD80;" cx="263.179" cy="311.979" r="8.231"/> <circle style="fill:#D8BD80;" cx="251.859" cy="273.229" r="10.631"/> <circle style="fill:#D8BD80;" cx="243.629" cy="312.159" r="8.231"/> </g> <g> <path style="fill:#EAD08F;" d="M241.654,312.924c-4.34-1.225-8.659,0.611-12.205,13.173c-3.545,12.562-2.526,32.892,1.814,34.117 c4.341,1.226,10.358-17.119,13.905-29.681C248.713,317.973,245.994,314.15,241.654,312.924z"/> <path style="fill:#EAD08F;" d="M230.047,437.309c-2.185-3.812-6.138-5.65-15.81-0.102c-9.673,5.55-20.814,19.248-18.628,23.057 c2.186,3.811,20.541-3.652,30.213-9.202C235.495,445.514,232.231,441.12,230.047,437.309z"/> </g> <circle style="fill:#BC9F66;" cx="210.209" cy="445.229" r="1.801"/> <path style="fill:#EAD08F;" d="M231.92,363.662c-4.332-0.272-8.102,3.555-9.239,21.537c-1.136,17.979,3.429,44.947,7.76,45.221 c4.333,0.274,6.789-26.249,7.926-44.228C239.505,368.21,236.249,363.938,231.92,363.662z"/> <g> <circle style="fill:#D8BD80;" cx="230.939" cy="359.489" r="6.86"/> <circle style="fill:#D8BD80;" cx="227.849" cy="432.889" r="6.859"/> </g> <path style="fill:#EAD08F;" d="M274.284,309.373c-14.078,0-17.25,3.933-17.25,8.785c0,4.85,3.172,8.783,17.25,8.783 c14.079,0,34.884-6.997,34.884-11.848C309.167,310.242,288.362,309.373,274.284,309.373z"/> <circle style="fill:#D8BD80;" cx="302.969" cy="318.329" r="6.86"/> <g> <path style="fill:#EAD08F;" d="M312.658,171.941c-3.338-3.034-17.805,11.675-27.189,21.996c-9.385,10.321-8.793,15.105-5.458,18.14 c3.336,3.033,8.156,3.168,17.542-7.152C306.937,194.604,315.994,174.975,312.658,171.941z"/> <path style="fill:#EAD08F;" d="M298.776,118.669c-8.641-4.291-24.23-4.956-26.183-1.022c-1.954,3.935,10.465,10.979,19.106,15.271 c8.642,4.292,12.171,2.068,14.126-1.866C307.779,127.118,307.416,122.96,298.776,118.669z"/> </g> <circle style="fill:#BC9F66;" cx="294.759" cy="120.869" r="1.801"/> <g> <path style="fill:#EAD08F;" d="M317.892,159.184c-1.754-10.847-10.06-25.957-14.02-25.317c-3.961,0.64-2.078,16.788-0.325,27.635 c1.753,10.85,5.359,12.774,9.321,12.135C316.828,172.996,319.644,170.033,317.892,159.184z"/> <path style="fill:#EAD08F;" d="M252.832,206.516c-10.91,0-22.552,3.182-22.552,14.405c0,11.223,5.661,46.988,22.552,46.988 s22.552-35.766,22.552-46.988C275.384,209.698,263.742,206.516,252.832,206.516z"/> </g> <circle style="fill:#D8BD80;" cx="229.649" cy="225.039" r="7.545"/> <g> <path style="fill:#EAD08F;" d="M324.754,394.97c-5.957-9.426-10.311-9.649-14.023-7.302c-3.713,2.346-8.653,4.705-2.697,14.133 c5.955,9.428,18.69,24.607,22.404,22.261C334.152,421.717,330.708,404.398,324.754,394.97z"/> <path style="fill:#EAD08F;" d="M314.98,338.744c-3.034-17.761-7.188-21.167-11.467-20.438c-4.277,0.731-7.062,5.325-4.025,23.085 c3.035,17.758,8.283,43.871,12.563,43.141C316.329,383.801,318.013,356.5,314.98,338.744z"/> <path style="fill:#EAD08F;" d="M252.832,278.542c-14.323,0-19.122,5.83-19.122,24.58c0,5.871,9.872,7.535,19.122,7.535 c9.251,0,19.122-1.664,19.122-7.535C271.954,284.887,267.154,278.542,252.832,278.542z"/> </g> <circle style="fill:#BC9F66;" cx="322.449" cy="399.909" r="1.801"/> <rect x="293.729" y="39.996" style="fill:#FBCBAB;" width="2.058" height="81.29"/> <circle style="fill:#D8BD80;" cx="251.859" cy="204.119" r="5.831"/> <path style="fill:#EAD08F;" d="M252.832,145.464c-10.91,0-19.754,9.099-19.754,20.322c0,11.223,2.863,36.614,19.754,36.614 s19.754-25.391,19.754-36.614C272.586,154.563,263.742,145.464,252.832,145.464z"/> <g> <circle style="fill:#D8BD80;" cx="279.039" cy="215.089" r="7.545"/> <circle style="fill:#D8BD80;" cx="310.509" cy="173.589" r="6.516"/> <circle style="fill:#D8BD80;" cx="302.629" cy="134.149" r="6.516"/> </g> <g> <rect x="321.519" y="63.659" style="fill:#FBCBAB;" width="2.058" height="336.47"/> <rect x="204.476" y="50.736" transform="matrix(-0.9997 0.0247 -0.0247 -0.9997 417.075 491.0518)" style="fill:#FBCBAB;" width="2.058" height="394.732"/> </g> <circle style="fill:#D8BD80;" cx="312.569" cy="385.899" r="6.86"/> <path style="fill:#EAD08F;" d="M228.629,225.26c-4.242-1.528-8.748,0.189-13.478,13.313c-4.728,13.123-5.597,34.723-1.354,36.251 c4.244,1.529,11.991-17.592,16.721-30.715C235.246,230.986,232.871,226.79,228.629,225.26z"/> <circle style="fill:#D8BD80;" cx="213.109" cy="273.399" r="6.517"/> <path style="fill:#EAD08F;" d="M213.762,272.001c-3.255-2.345-7.343-2.236-13.764,6.682c-6.42,8.919-11.214,25.481-7.957,27.825 c3.256,2.344,13.328-10.416,19.749-19.334C218.212,278.255,217.018,274.347,213.762,272.001z"/> <circle style="fill:#D8BD80;" cx="192.869" cy="303.239" r="6.516"/> <path style="fill:#EAD08F;" d="M191.965,303.313c-2.579-3.556-6.431-5.161-14.239,0.505c-7.807,5.668-15.623,19.171-13.042,22.727 s14.579-4.184,22.387-9.852C194.879,311.026,194.546,306.868,191.965,303.313z"/> <circle style="fill:#BC9F66;" cx="183.049" cy="304.949" r="1.801"/> <rect x="181.315" y="83.219" transform="matrix(-1 0.0066 -0.0066 -1 365.9657 387.4047)" style="fill:#FBCBAB;" width="2.058" height="222.175"/> <polygon style="fill:#000000;" points="330.518,56.459 264.665,52.086 298.364,38.967 297.849,35.88 256.177,51.829 195.211,51.315 194.954,54.273 232.511,57.746 169.23,81.154 169.423,85.142 179.841,87.456 246.659,59.804 324.409,67.328 331.033,62.119 "/> <polygon style="fill:#2f5593;" points="258.492,51.829 297.849,35.88 289.103,34.851 245.887,51.572 202.671,47.971 195.211,51.315 234.826,55.173 169.23,81.154 179.777,83.212 246.401,56.202 323.766,61.926 330.518,56.459 "/> </g>
</svg>