<?xml version="1.0" encoding="iso-8859-1"?>
<!-- Uploaded to: SVG Repo, www.svgrepo.com, Generator: SVG Repo Mixer Tools -->
<svg height="800px" width="800px" version="1.1" id="Layer_1" xmlns="http://www.w3.org/2000/svg" xmlns:xlink="http://www.w3.org/1999/xlink" 
	 viewBox="0 0 512 512" xml:space="preserve">
<path style="fill:#EDEDEE;" d="M256,512c70.693,0,128-57.307,128-128s-57.307-128-128-128s-128-57.307-128-128S185.307,0,256,0
	c141.385,0,256,114.615,256,256S397.385,512,256,512z"/>
<path style="fill:#504B5A;" d="M256,0c-70.693,0-128,57.307-128,128s57.307,128,128,128s128,57.307,128,128s-57.307,128-128,128
	C114.615,512,0,397.385,0,256S114.615,0,256,0z"/>
<circle style="fill:#EDEDEE;" cx="256" cy="384" r="45.714"/>
<circle style="fill:#504B5A;" cx="256" cy="128" r="45.714"/>
</svg>