<!DOCTYPE svg PUBLIC "-//W3C//DTD SVG 1.1//EN" "http://www.w3.org/Graphics/SVG/1.1/DTD/svg11.dtd">
<!-- Uploaded to: SVG Repo, www.svgrepo.com, Transformed by: SVG Repo Mixer Tools -->
<svg version="1.1" id="Layer_1" xmlns="http://www.w3.org/2000/svg" xmlns:xlink="http://www.w3.org/1999/xlink" viewBox="0 0 511.999 511.999" xml:space="preserve" width="800px" height="800px" fill="#8c8c8c" stroke="#8c8c8c" stroke-width="3.071994" transform="matrix(-1, 0, 0, 1, 0, 0)">
<g id="SVGRepo_bgCarrier" stroke-width="0"/>
<g id="SVGRepo_tracerCarrier" stroke-linecap="round" stroke-linejoin="round" stroke="#CCCCCC" stroke-width="14.335972000000002"> <rect x="214.459" y="66.782" style="fill:#6B8F9C;" width="66.782" height="33.391"/> <path style="fill:#325763;" d="M214.459,33.391c-36.883,0-66.782,29.899-66.782,66.782h66.782V66.782h66.782V33.391H214.459z"/> <path style="fill:#05232E;" d="M438.649,65.201C395.182,21.733,338.212,0,281.241,0c-18.442,0-33.391,14.95-33.391,33.391h33.391 v189.216c34.773-34.773,91.152-34.773,125.926,0s34.773,91.152,0,125.926c-69.547,69.547-182.304,69.546-251.851,0l-31.482,31.481 L8.15,495.7c21.733,21.733,56.97,21.733,78.704,0l31.481-31.482c21.733,21.733,56.97,21.733,78.704,0l26.564-26.564 c74.265,19.831,156.786,0.622,215.048-57.64C525.583,293.081,525.583,152.134,438.649,65.201z"/> <path style="fill:#325763;" d="M407.167,222.607c-34.773-34.773-91.152-34.773-125.926,0l102.315,102.315 c-56.416,56.416-148.213,56.415-204.63,0l-23.611,23.611c69.547,69.546,182.304,69.547,251.851,0 C441.94,313.759,441.941,257.381,407.167,222.607z"/> <path style="fill:#05232E;" d="M281.241,222.607L178.926,324.922c56.416,56.415,148.213,56.416,204.63,0L281.241,222.607z"/> </g>
<g id="SVGRepo_iconCarrier"> <rect x="214.459" y="66.782" style="fill:#6B8F9C;" width="66.782" height="33.391"/> <path style="fill:#325763;" d="M214.459,33.391c-36.883,0-66.782,29.899-66.782,66.782h66.782V66.782h66.782V33.391H214.459z"/> <path style="fill:#05232E;" d="M438.649,65.201C395.182,21.733,338.212,0,281.241,0c-18.442,0-33.391,14.95-33.391,33.391h33.391 v189.216c34.773-34.773,91.152-34.773,125.926,0s34.773,91.152,0,125.926c-69.547,69.547-182.304,69.546-251.851,0l-31.482,31.481 L8.15,495.7c21.733,21.733,56.97,21.733,78.704,0l31.481-31.482c21.733,21.733,56.97,21.733,78.704,0l26.564-26.564 c74.265,19.831,156.786,0.622,215.048-57.64C525.583,293.081,525.583,152.134,438.649,65.201z"/> <path style="fill:#325763;" d="M407.167,222.607c-34.773-34.773-91.152-34.773-125.926,0l102.315,102.315 c-56.416,56.416-148.213,56.415-204.63,0l-23.611,23.611c69.547,69.546,182.304,69.547,251.851,0 C441.94,313.759,441.941,257.381,407.167,222.607z"/> <path style="fill:#05232E;" d="M281.241,222.607L178.926,324.922c56.416,56.415,148.213,56.416,204.63,0L281.241,222.607z"/> </g>
</svg>