<svg id="Capa_1" enable-background="new 0 0 512 512" height="512" viewBox="0 0 512 512" width="512" xmlns="http://www.w3.org/2000/svg"><g><g><g><g><path d="m205.666 298.038-25.222-25.222-171.698 158.5c-11.346 10.474-11.702 28.283-.783 39.202 10.919 10.919 28.728 10.563 39.202-.783z" fill="#873f30"/><path d="m46.407 470.528c-10.557 10.557-27.786 10.647-38.441-.008-3.152-3.152-5.36-6.875-6.631-10.834 9.417 3.063 20.161.823 27.59-6.606.261-.261.521-.538.774-.806l158.504-171.701 17.465 17.465-158.503 171.7c-.253.268-.505.537-.758.79z" fill="#6c3328"/></g><path d="m230.504 213.053-58.08 69.28 23.726 23.725 69.28-58.079z" fill="#873f30"/><path d="m230.504 213.053-18.767 22.387 5.631 5.631c4.145 4.145 4.145 10.865 0 15.009l-35.598 35.598 14.38 14.38 69.28-58.079z" fill="#6c3328"/><g><path d="m182.043 319.471-23.031-23.031c-6.658-6.658-6.658-17.454 0-24.112 6.658-6.658 17.454-6.658 24.112 0l23.031 23.031c6.658 6.658 6.658 17.453 0 24.112-6.658 6.658-17.454 6.658-24.112 0z" fill="#ba5d4f"/><path d="m206.148 319.47c-3.332 3.332-7.698 4.993-12.048 4.994-4.366 0-8.732-1.662-12.064-4.994l-17.457-17.457c3.332 3.332 7.698 4.994 12.056 4.985 4.358.008 8.724-1.654 12.056-4.985 6.663-6.663 6.655-17.457 0-24.112l17.457 17.457c6.663 6.664 6.664 17.449 0 24.112z" fill="#a34f41"/></g></g><g><g><path d="m209.872 63.681h72.331v113.557h-72.331z" fill="#ba5d4f" transform="matrix(.707 .707 -.707 .707 157.241 -138.693)"/></g><g><path d="m321.858 175.666h72.331v113.557h-72.331z" fill="#a34f41" transform="matrix(-.707 -.707 .707 -.707 446.821 649.969)"/></g></g><g><path d="m165.925 152.617-1.776-1.776c-6.736-6.736-6.736-17.657 0-24.394l87.877-87.877c6.736-6.736 17.657-6.736 24.394 0l1.776 1.776c6.736 6.736 6.736 17.657 0 24.394l-87.877 87.877c-6.736 6.736-17.657 6.736-24.394 0z" fill="#873f30"/><path d="m325.866 312.557 1.776 1.776c6.736 6.736 17.657 6.736 24.394 0l87.877-87.877c6.736-6.736 6.736-17.657 0-24.394l-1.776-1.776c-6.736-6.736-17.657-6.736-24.394 0l-87.877 87.877c-6.737 6.737-6.737 17.658 0 24.394z" fill="#6c3328"/><g><path d="m261.417 90.7h81.227v171.505h-81.227z" fill="#fcc16d" transform="matrix(.707 .707 -.707 .707 213.233 -161.886)"/><path d="m230.461 170.079h171.505v41.112h-171.505z" fill="#fca62f" transform="matrix(.707 -.707 .707 .707 -42.183 279.433)"/><path d="m334.208 84.646-14.07-5.752c-4.823-1.972-10.359-.858-14.043 2.827l-98.796 98.796c-3.685 3.685-4.799 9.22-2.827 14.043l5.752 14.07c2.332 5.705 9.723 7.193 14.081 2.835l112.737-112.738c4.359-4.358 2.871-11.749-2.834-14.081z" fill="#873f30"/><path d="m393.837 144.275 5.752 14.07c1.972 4.823.858 10.359-2.827 14.043l-98.796 98.796c-3.685 3.685-9.22 4.799-14.043 2.827l-14.07-5.752c-5.705-2.332-7.193-9.723-2.835-14.081l112.738-112.738c4.358-4.358 11.749-2.87 14.081 2.835z" fill="#6c3328"/></g></g></g><g><g><path d="m445.921 420.777h-209.481v-29.397c0-6.069 4.92-10.989 10.989-10.989h187.503c6.069 0 10.989 4.92 10.989 10.989z" fill="#ba5d4f"/><path d="m445.918 391.382v29.395h-22.988v-29.395c0-6.066-4.923-10.989-10.989-10.989h22.989c6.065 0 10.988 4.923 10.988 10.989z" fill="#a34f41"/></g><path d="m492.089 478.478h-301.817c-8.006 0-13.324-8.286-9.991-15.564l10.67-23.297c9.242-20.18 29.401-33.12 51.597-33.12h197.265c22.196 0 42.355 12.94 51.597 33.12l10.67 23.297c3.333 7.278-1.986 15.564-9.991 15.564z" fill="#873f30"/><path d="m492.093 478.479h-29.384c8 0 13.318-8.286 9.989-15.56l-10.67-23.307c-9.242-20.176-29.406-33.12-51.593-33.12h29.373c22.197 0 42.362 12.945 51.604 33.12l10.67 23.307c3.33 7.275-1.989 15.56-9.989 15.56z" fill="#6c3328"/><g><g id="XMLID_233_"><path d="m476.084 362.195c-1.956 0-3.91-.749-5.398-2.245-2.963-2.982-2.949-7.801.032-10.765l8.237-8.188c2.982-2.963 7.801-2.948 10.765.032 2.963 2.982 2.949 7.801-.032 10.765l-8.237 8.188c-1.485 1.476-3.427 2.213-5.367 2.213z" fill="#fcc16d"/></g><g id="XMLID_232_"><path d="m452.063 345.171c-.613 0-1.236-.075-1.858-.231-4.077-1.023-6.553-5.157-5.531-9.234l2.857-11.39c1.023-4.078 5.16-6.553 9.234-5.531 4.077 1.023 6.553 5.157 5.531 9.234l-2.857 11.39c-.866 3.456-3.968 5.762-7.376 5.762z" fill="#fcc16d"/></g><g id="XMLID_153_"><path d="m492.971 386.315c-3.426 0-6.537-2.329-7.387-5.805-.999-4.084 1.501-8.204 5.585-9.202l11.41-2.791c4.086-1 8.203 1.501 9.202 5.585s-1.501 8.204-5.585 9.202l-11.41 2.791c-.608.148-1.216.22-1.815.22z" fill="#fcc16d"/></g></g></g></g></svg>