<svg id="Capa_1" enable-background="new 0 0 512 512" height="512" viewBox="0 0 512 512" width="512" xmlns="http://www.w3.org/2000/svg"><g><g><path d="m423.445 338.231v-.031h30.451c23.166 0 41.946 18.78 41.946 41.947v69.744h-223.977v-69.744c0-23.167 18.78-41.947 41.946-41.947h30.451v.031z" fill="#0ab69f"/><path d="m344.262 306.598v31.633c0 21.866 17.725 39.592 39.591 39.592s39.591-17.726 39.591-39.592c0-11.088 0-20.921 0-31.633z" fill="#ffb09e"/><path d="m344.262 338.231c0 1.831.135 3.629.375 5.394 12.011 5.399 25.354 8.409 39.408 8.409 13.896 0 27.096-2.942 39.001-8.227.257-1.822.398-3.682.398-5.575 0-11.088 0-20.922 0-31.633h-79.183c.001 10.827.001 19.509.001 31.632z" fill="#ffa78f"/><path d="m492.716 233.864h-155.357v-135.32h105.006c27.808 0 50.351 22.543 50.351 50.351z" fill="#c86d36"/><path d="m337.359 257.31h-48.946c-17.901 0-32.413-14.512-32.413-32.413s14.512-32.413 32.413-32.413h48.946z" fill="#ffb09e"/><path d="m430.641 192.484h48.946c17.901 0 32.413 14.512 32.413 32.413s-14.512 32.413-32.413 32.413h-48.946z" fill="#ffa78f"/><path d="m288.731 207.038v35.717c0 52.043 42.673 94.233 95.314 94.233 52.64 0 92.52-42.189 92.52-94.233v-35.717c0-52.043-39.88-94.233-92.52-94.233s-95.314 42.19-95.314 94.233z" fill="#ffcebf"/><g><path d="m311.821 274.32h16.56c4.959 0 8.978-4.019 8.978-8.978s-4.019-8.978-8.978-8.978h-16.56c-4.959 0-8.978 4.019-8.978 8.978s4.019 8.978 8.978 8.978z" fill="#fe8f83"/></g><path d="m385.811 112.828c-4.168.053-8.274.363-12.297.928 46.226 6.501 81.774 45.784 81.774 93.282v35.717c0 47.498-35.547 87.163-81.774 93.664 4.024.566 8.13.493 12.298.546 51.824-.932 93.547-42.751 93.547-94.211v-35.717c0-51.459-41.723-93.278-93.548-94.209z" fill="#ffb09e"/><path d="m368.215 62.227h16.841c2.739.152 6.501.49 15.881 1.222 9.97.778 19.559 3.34 28.377 7.433 15.625 7.253 21.094 22.935 21.094 40.161v20.252c0 33.793-22.883 61.188-56.676 61.188h-121.867v-30.05c0-54.07 42.789-98.125 96.35-100.206z" fill="#d77f4a"/><g><path d="m439.619 274.32h16.56c4.959 0 8.978-4.019 8.978-8.978s-4.019-8.978-8.978-8.978h-16.56c-4.959 0-8.978 4.019-8.978 8.978s4.019 8.978 8.978 8.978z" fill="#fe8f83"/></g><path d="m429.315 70.882c-8.819-4.094-18.408-6.655-28.377-7.433-3.446-.269-25.672-2.548-41.813-.451 7.378.589 19.202.976 34.083 7.884 15.625 7.253 25.606 22.935 25.606 40.161v20.252c0 33.793-27.395 61.188-61.188 61.188h36.108c33.793 0 61.188-27.395 61.188-61.188v-20.252c-.002-17.225-9.983-32.908-25.607-40.161z" fill="#c86d36"/><g><path d="m453.896 338.2h-30.451v.135c22.605.642 39.298 19.051 39.298 41.811v69.744h33.099v-69.744c0-23.166-18.78-41.946-41.946-41.946z" fill="#01998d"/></g><g><path d="m384 298.892c-15.58 0-28.255-12.675-28.255-28.254 0-4.397 3.564-7.961 7.961-7.961s7.961 3.564 7.961 7.961c0 6.799 5.532 12.332 12.333 12.332 6.799 0 12.332-5.532 12.332-12.332 0-4.397 3.564-7.961 7.961-7.961s7.961 3.564 7.961 7.961c0 15.579-12.674 28.254-28.254 28.254z" fill="#ffa799"/></g><g><g><path d="m430.641 248.73c-4.397 0-7.961-3.564-7.961-7.961v-17.596c0-4.397 3.564-7.961 7.961-7.961s7.961 3.564 7.961 7.961v17.596c0 4.397-3.564 7.961-7.961 7.961z" fill="#5a5a5a"/></g><g><path d="m337.359 248.73c-4.397 0-7.961-3.564-7.961-7.961v-17.596c0-4.397 3.564-7.961 7.961-7.961s7.961 3.564 7.961 7.961v17.596c0 4.397-3.564 7.961-7.961 7.961z" fill="#5a5a5a"/></g></g></g><g><path d="m139.657 62.127c-14.501 0-8.336-.271-28.741 1.322-21.562 1.683-41.343 11.705-55.4 27.526-7.632 8.59-19.491 12.066-30.436 8.567l-10.083-3.222s-5.151 107.866 25.974 121.433h199.017v-55.319c0-55.405-44.926-100.306-100.331-100.307z" fill="#d77f4a"/><path d="m88.408 338.231v-.031h-30.45c-23.166 0-41.946 18.78-41.946 41.947v69.744h223.977v-69.744c0-23.167-18.78-41.947-41.946-41.947z" fill="#3c87d0"/><path d="m88.262 306.598v31.633c0 21.866 17.725 39.592 39.591 39.592s39.591-17.726 39.591-39.592c0-11.088 0-20.921 0-31.633z" fill="#ffb09e"/><path d="m88.262 338.231c0 1.831.135 3.629.375 5.394 12.011 5.399 25.354 8.409 39.408 8.409 13.896 0 27.096-2.942 39.001-8.227.257-1.822.398-3.682.398-5.575 0-11.088 0-20.922 0-31.633h-79.182z" fill="#ffa78f"/><path d="m81.359 257.31h-48.946c-17.901 0-32.413-14.512-32.413-32.413s14.512-32.413 32.413-32.413h48.946z" fill="#ffb09e"/><path d="m174.641 192.484h48.946c17.901 0 32.413 14.512 32.413 32.413s-14.512 32.413-32.413 32.413h-48.946z" fill="#ffa78f"/><path d="m32.731 207.038v35.717c0 52.043 42.673 94.233 95.314 94.233 52.64 0 92.607-42.466 92.607-94.51l.391-34.826c0-52.043-40.358-94.847-92.998-94.847s-95.314 42.19-95.314 94.233z" fill="#ffcebf"/><g><path d="m72.234 274.32h-16.56c-4.959 0-8.978-4.019-8.978-8.978s4.019-8.978 8.978-8.978h16.56c4.959 0 8.978 4.019 8.978 8.978s-4.019 8.978-8.978 8.978z" fill="#fe8f83"/></g><path d="m131.263 112.872c-3.633.103-7.22.389-10.74.884 46.226 6.501 81.774 45.784 81.774 93.282v35.717c0 47.498-35.547 86.781-81.774 93.282 3.52.495 7.107.782 10.74.884 51.149-1.678 92.096-43.189 92.096-94.167v-35.717c0-50.977-40.947-92.486-92.096-94.165z" fill="#ffb09e"/><path d="m143.638 62.227h-16.841c-2.739.152-6.501.49-15.881 1.222-20.848 1.627-40.029 11.052-53.983 25.975v41.871c0 33.793 27.395 61.188 61.188 61.188h121.867v-30.05c0-54.07-42.788-98.125-96.35-100.206z" fill="#d77f4a"/><path d="m143.639 62.227h-16.841c-2.307.128-5.354.389-11.859.905 48.733 6.842 86.234 48.682 86.234 99.301v30.05h38.815v-30.05c0-54.07-42.789-98.125-96.349-100.206z" fill="#c86d36"/><g><path d="m198.041 338.2h-30.451l-.146.003v.084c22 1.295 39.445 19.534 39.445 41.859v69.744h33.099v-69.744c-.001-23.166-18.781-41.946-41.947-41.946z" fill="#0078c8"/></g><g><path d="m200.032 274.32h-16.56c-4.959 0-8.978-4.019-8.978-8.978s4.019-8.978 8.978-8.978h16.56c4.959 0 8.978 4.019 8.978 8.978s-4.018 8.978-8.978 8.978z" fill="#fe8f83"/></g><g><path d="m127.854 298.892c-15.58 0-28.255-12.675-28.255-28.254 0-4.397 3.564-7.961 7.961-7.961s7.961 3.564 7.961 7.961c0 6.799 5.532 12.332 12.333 12.332 6.799 0 12.332-5.532 12.332-12.332 0-4.397 3.564-7.961 7.961-7.961s7.961 3.564 7.961 7.961c0 15.579-12.675 28.254-28.254 28.254z" fill="#ffa799"/></g><g><g><path d="m174.495 248.73c-4.397 0-7.961-3.564-7.961-7.961v-17.596c0-4.397 3.564-7.961 7.961-7.961s7.961 3.564 7.961 7.961v17.596c0 4.397-3.564 7.961-7.961 7.961z" fill="#5a5a5a"/></g><g><path d="m81.212 248.73c-4.397 0-7.961-3.564-7.961-7.961v-17.596c0-4.397 3.564-7.961 7.961-7.961s7.961 3.564 7.961 7.961v17.596c0 4.397-3.563 7.961-7.961 7.961z" fill="#5a5a5a"/></g></g></g></g></svg>