<svg id="Capa_1" enable-background="new 0 0 512 512" height="512" viewBox="0 0 512 512" width="512" xmlns="http://www.w3.org/2000/svg"><g><path d="m434.158 330.648h-119.21-2.954-1.19c-22.503 0-40.744 18.242-40.744 40.744v66.768h204.843v-66.768c-.001-22.503-18.243-40.744-40.745-40.744z" fill="#f07281"/><path d="m198.243 330.648h-119.211-2.954-1.19c-22.503 0-40.744 18.242-40.744 40.744v66.768h204.843v-66.768c0-22.503-18.242-40.744-40.744-40.744z" fill="#ffc344"/><path d="m496.919 352.131h15.081v-56.777c0-29.987-24.309-54.297-54.297-54.297h-15.081v56.777c.001 29.987 24.31 54.297 54.297 54.297z" fill="#5a5a5a"/><path d="m457.703 241.057h-15.081v1.233c24.46 5.279 42.792 27.026 42.792 53.064v55.545c3.709.8 7.556 1.233 11.504 1.233h15.082v-56.777c0-29.989-24.309-54.298-54.297-54.298z" fill="#444"/><path d="m15.081 352.131h-15.081v-56.777c0-29.987 24.309-54.297 54.297-54.297h15.081v56.777c-.001 29.987-24.31 54.297-54.297 54.297z" fill="#5a5a5a"/><path d="m468.218 218.453h26.394c7.305 0 13.227 5.922 13.227 13.227s-5.922 13.227-13.227 13.227h-26.394z" fill="#f07281"/><path d="m44.13 244.906h-26.395c-7.305 0-13.227-5.922-13.227-13.227s5.922-13.227 13.227-13.227h26.395z" fill="#ffe177"/><path d="m437.111 330.648h-33.371c22.503 0 40.745 18.242 40.745 40.744v66.768h33.371v-66.768c0-22.502-18.242-40.744-40.745-40.744z" fill="#eb5569"/><path d="m373.822 373.56c-19.6 0-35.489-15.889-35.489-35.489v-85.405h70.977v85.405c.001 19.601-15.888 35.489-35.488 35.489z" fill="#ffb09e"/><path d="m338.333 334.125c10.795 4.913 22.777 7.671 35.411 7.671 12.694 0 24.731-2.784 35.566-7.742v-81.387h-70.977z" fill="#ffa78f"/><path d="m332.593 252.651h-44.585c-16.046 0-29.054-13.008-29.054-29.054s13.008-29.054 29.054-29.054h44.585z" fill="#ffb09e"/><path d="m413.209 252.651h46.164c16.046 0 29.054-13.008 29.054-29.054s-13.008-29.054-29.054-29.054h-46.164z" fill="#ffa78f"/><path d="m373.744 324.073c-47.283 0-85.612-38.33-85.612-85.612v-29.729c0-47.282 38.33-85.612 85.612-85.612s85.612 38.33 85.612 85.612v29.729c.001 47.282-38.329 85.612-85.612 85.612z" fill="#ffcebf"/><g><path d="m325.88 270.996h-16.28c-4.875 0-8.826-3.951-8.826-8.826s3.951-8.826 8.826-8.826h16.28c4.875 0 8.826 3.951 8.826 8.826s-3.951 8.826-8.826 8.826z" fill="#fe8f83"/></g><path d="m373.744 123.119c-4.011 0-7.951.297-11.816.831 41.688 5.758 73.797 41.51 73.797 84.782v29.728c0 43.271-32.109 79.023-73.797 84.781 3.865.533 7.804.831 11.816.831 47.282 0 85.612-38.33 85.612-85.612v-29.728c.001-47.282-38.33-85.613-85.612-85.613z" fill="#ffb09e"/><path d="m382.758 73.84c-5.008 0-9.067 4.059-9.067 9.066 0-5.007-4.06-9.066-9.067-9.066-54.037 0-97.843 43.806-97.843 97.843v22.829h57.094c27.512 0 49.815-22.303 49.816-49.814.001 27.512 22.304 49.814 49.816 49.814h57.095v-22.829c-.001-54.037-43.807-97.843-97.844-97.843z" fill="#5a5a5a"/><g><path d="m382.758 73.84c-2.598 0-4.934 1.098-6.587 2.848 42.71 10.508 74.396 49.042 74.396 94.995v22.829h30.034v-22.829c0-54.037-43.806-97.843-97.843-97.843z" fill="#444"/></g><g><path d="m438.315 270.996h-16.28c-4.875 0-8.826-3.951-8.826-8.826s3.951-8.826 8.826-8.826h16.28c4.875 0 8.826 3.951 8.826 8.826s-3.951 8.826-8.826 8.826z" fill="#fe8f83"/></g><path d="m201.196 330.648h-33.371c22.503 0 40.745 18.242 40.745 40.744v66.768h33.371v-66.768c0-22.502-18.242-40.744-40.745-40.744z" fill="#f6ab31"/><path d="m138.178 373.56c19.6 0 35.489-15.889 35.489-35.489v-85.405h-70.977v85.405c-.001 19.601 15.888 35.489 35.488 35.489z" fill="#ffb09e"/><path d="m173.667 334.125c-10.795 4.913-22.777 7.671-35.411 7.671-12.694 0-24.731-2.784-35.566-7.742v-81.387h70.977z" fill="#ffa78f"/><path d="m97.212 252.651h-44.585c-16.046 0-29.054-13.008-29.054-29.054s13.008-29.054 29.054-29.054h44.585z" fill="#ffb09e"/><path d="m177.828 252.651h46.164c16.046 0 29.054-13.008 29.054-29.054s-13.008-29.054-29.054-29.054h-46.164z" fill="#ffa78f"/><path d="m138.363 324.073c-47.283 0-85.612-38.33-85.612-85.612v-29.729c0-47.282 38.33-85.612 85.612-85.612s85.612 38.33 85.612 85.612v29.729c0 47.282-38.329 85.612-85.612 85.612z" fill="#ffcebf"/><path d="m138.363 123.119c-4.011 0-7.951.297-11.816.831 41.688 5.758 73.797 41.51 73.797 84.782v29.728c0 43.271-32.109 79.023-73.797 84.781 3.865.533 7.804.831 11.816.831 47.282 0 85.612-38.33 85.612-85.612v-29.728c0-47.282-38.33-85.613-85.612-85.613z" fill="#ffb09e"/><path d="m147.377 73.84c-5.008 0-9.067 4.059-9.067 9.066 0-5.007-4.06-9.066-9.067-9.066-54.037 0-97.843 43.806-97.843 97.843v22.829h57.094c27.512 0 49.815-22.303 49.816-49.814.001 27.512 22.304 49.814 49.816 49.814h57.095v-22.829c-.001-54.037-43.807-97.843-97.844-97.843z" fill="#5a5a5a"/><g><path d="m147.377 73.84c-2.598 0-4.934 1.098-6.587 2.848 42.71 10.508 74.396 49.042 74.396 94.995v22.829h30.034v-22.829c0-54.037-43.806-97.843-97.843-97.843z" fill="#444"/></g><g><path d="m73.685 270.996h16.28c4.875 0 8.826-3.951 8.826-8.826s-3.951-8.826-8.826-8.826h-16.28c-4.875 0-8.826 3.951-8.826 8.826s3.951 8.826 8.826 8.826z" fill="#fe8f83"/></g><g><path d="m186.12 270.996h16.28c4.875 0 8.826-3.951 8.826-8.826s-3.951-8.826-8.826-8.826h-16.28c-4.875 0-8.826 3.951-8.826 8.826s3.951 8.826 8.826 8.826z" fill="#fe8f83"/></g><g><path d="m138.042 290.48c-14.34 0-26.005-11.665-26.005-26.005 0-4.317 3.499-7.815 7.816-7.815s7.816 3.499 7.816 7.815c0 5.72 4.654 10.374 10.374 10.374 5.721 0 10.375-4.654 10.375-10.374 0-4.317 3.499-7.815 7.816-7.815s7.816 3.499 7.816 7.815c-.002 14.339-11.668 26.005-26.008 26.005z" fill="#ffa799"/></g><g><path d="m96.9 246.225c-4.317 0-7.816-3.499-7.816-7.816v-10.285c-4.301-.018-7.782-3.511-7.782-7.816 0-4.317 3.499-7.816 7.816-7.816h7.782c4.317 0 7.816 3.499 7.816 7.816v18.101c-.001 4.318-3.499 7.816-7.816 7.816z" fill="#5a5a5a"/></g><g><path d="m179.772 246.225c-4.317 0-7.816-3.499-7.816-7.816v-18.101c0-4.317 3.499-7.816 7.816-7.816h7.783c4.317 0 7.816 3.499 7.816 7.816 0 4.306-3.481 7.798-7.783 7.816v10.285c-.001 4.318-3.5 7.816-7.816 7.816z" fill="#5a5a5a"/></g><g><path d="m373.397 290.48c-14.34 0-26.006-11.665-26.006-26.005 0-4.317 3.499-7.815 7.816-7.815s7.815 3.499 7.815 7.815c0 5.72 4.654 10.374 10.375 10.374s10.375-4.654 10.375-10.374c0-4.317 3.499-7.815 7.816-7.815s7.815 3.499 7.815 7.815c0 14.339-11.667 26.005-26.006 26.005z" fill="#ffa799"/></g><g><path d="m332.254 246.225c-4.317 0-7.816-3.499-7.816-7.816v-10.285c-4.301-.018-7.782-3.511-7.782-7.816 0-4.317 3.499-7.816 7.816-7.816h7.782c4.317 0 7.816 3.499 7.816 7.816v18.101c0 4.318-3.499 7.816-7.816 7.816z" fill="#5a5a5a"/></g><g><path d="m415.126 246.225c-4.317 0-7.816-3.499-7.816-7.816v-18.101c0-4.317 3.499-7.816 7.816-7.816h7.783c4.317 0 7.815 3.499 7.815 7.816 0 4.306-3.481 7.798-7.783 7.816v10.285c.001 4.318-3.498 7.816-7.815 7.816z" fill="#5a5a5a"/></g></g></svg>