<?xml version="1.0" encoding="iso-8859-1"?>
<!-- Generator: Adobe Illustrator 19.0.0, SVG Export Plug-In . SVG Version: 6.00 Build 0)  -->
<svg version="1.1" id="Capa_1" xmlns="http://www.w3.org/2000/svg" xmlns:xlink="http://www.w3.org/1999/xlink" x="0px" y="0px"
	 viewBox="0 0 512 512" style="enable-background:new 0 0 512 512;" xml:space="preserve">
<path style="fill:#FFDC64;" d="M379.023,352.061L338.58,338.58H173.419l-40.443,13.481c-20.233,6.744-33.88,25.679-33.88,47.006
	v96.416c0,9.122,7.395,16.516,16.516,16.516h280.775c9.122,0,16.516-7.395,16.516-16.516v-96.416
	C412.903,377.74,399.256,358.806,379.023,352.061z"/>
<g>
	<polygon style="fill:#A0D755;" points="189.934,338.581 173.419,338.581 156.902,344.086 156.902,462.452 189.934,462.452 	"/>
	<polygon style="fill:#A0D755;" points="322.064,338.581 338.58,338.581 355.096,344.086 355.096,462.452 322.064,462.452 	"/>
</g>
<rect x="322.059" y="338.58" style="fill:#8CC355;" width="16.516" height="123.87"/>
<path style="fill:#FFDC64;" d="M317.183,0H187.589c-8.152,0-15.085,5.948-16.324,14.005l-14.362,93.35h198.194l-21.82-94.553
	C331.547,5.308,324.874,0,317.183,0z"/>
<path style="fill:#FFC850;" d="M216.173,73.067L227.413,0h-39.826c-8.152,0-15.085,5.948-16.324,14.005l-14.361,93.35h198.194
	l-5.717-24.774H224.335C219.273,82.581,215.404,78.069,216.173,73.067z"/>
<path style="fill:#9B735A;" d="M371.612,123.871H140.386c0,0-22.536,82.631-24.62,161.918c-0.185,7.052,4.264,13.359,10.896,15.766
	c20.541,7.456,68.136,22.647,129.337,28.767c61.202-6.12,108.796-21.312,129.337-28.767c6.631-2.407,11.081-8.714,10.896-15.766
	C394.147,206.501,371.612,123.871,371.612,123.871z"/>
<g>
	<path style="fill:#8C5F50;" d="M182.447,148.645h147.107c15.92,0,31.582-1.775,46.887-5.202
		c-2.843-12.294-4.827-19.572-4.827-19.572H140.386c0,0-1.984,7.278-4.827,19.572C150.863,146.87,166.525,148.645,182.447,148.645z"
		/>
	<path style="fill:#8C5F50;" d="M379.016,303.777c-12.488-124.59-106.5-171.648-106.5-171.648l-132.129-8.258
		c0,0-22.536,82.631-24.62,161.918c-0.185,7.052,4.264,13.359,10.896,15.766c20.541,7.456,68.136,22.647,129.337,28.767
		C311.665,324.756,355.981,311.707,379.016,303.777L379.016,303.777z"/>
</g>
<rect x="206.449" y="256" style="fill:#F5AF73;" width="99.1" height="99.1"/>
<path style="fill:#F5965F;" d="M255.999,313.806c17.837,0,34.678-4.495,49.548-12.319V256h-99.097v45.488
	C221.322,309.311,238.162,313.806,255.999,313.806z"/>
<path style="fill:#FFC850;" d="M260.128,421.161h-8.258c-4.561,0-8.258-3.697-8.258-8.258v-66.065h24.774v66.065
	C268.386,417.464,264.689,421.161,260.128,421.161z"/>
<path style="fill:#F5C882;" d="M355.096,165.161h-8.258c-9.121,0-16.516-7.395-16.516-16.516v-16.516H165.16v74.323
	c0,50.169,40.67,90.839,90.839,90.839c48.208,0,87.536-37.582,90.545-85.03c3.361,2.048,7.455,3.015,11.87,2.108
	c7.897-1.622,13.198-9.177,13.198-17.239v-15.451C371.612,172.555,364.217,165.161,355.096,165.161z"/>
<path style="fill:#F5AF73;" d="M255.999,148.645h74.323v-24.774H165.16v82.581c0.094-0.055,0.201,5.865,0.293,5.808
	c3.01,47.449,42.337,85.03,90.545,85.03c5.676,0,11.215-0.563,16.6-1.559c-42.313-7.743-74.406-44.73-74.406-89.279l0,0
	C198.193,174.526,224.074,148.645,255.999,148.645z"/>
<g>
	<path style="fill:#784B41;" d="M214.71,189.935c-4.565,0-8.258-3.698-8.258-8.258v-8.258c0-4.56,3.694-8.258,8.258-8.258
		s8.258,3.698,8.258,8.258v8.258C222.967,186.238,219.273,189.935,214.71,189.935z"/>
	<path style="fill:#784B41;" d="M297.289,189.935c-4.565,0-8.258-3.698-8.258-8.258v-8.258c0-4.56,3.694-8.258,8.258-8.258
		s8.258,3.698,8.258,8.258v8.258C305.547,186.238,301.854,189.935,297.289,189.935z"/>
</g>
<path style="fill:#FFFFFF;" d="M227.439,222.968c-6.435,0-10.348,7.007-7.099,12.561C227.503,247.774,240.788,256,255.999,256
	c15.211,0,28.497-8.226,35.659-20.471c3.249-5.554-0.664-12.561-7.099-12.561L227.439,222.968L227.439,222.968z"/>
<g>
	<path style="fill:#FFF082;" d="M211.324,314.928l44.676,31.911l-29.747,23.798c-6.572,5.257-16.045,4.733-21.996-1.218
		l-30.837-30.837l15.092-20.123C193.895,311.28,204.023,309.713,211.324,314.928z"/>
	<path style="fill:#FFF082;" d="M300.676,314.927l-44.677,31.912l29.747,23.798c6.572,5.257,16.045,4.733,21.996-1.218
		l30.838-30.838l-15.092-20.123C318.105,311.28,307.976,309.713,300.676,314.927z"/>
</g>
<path style="fill:#9B735A;" d="M247.742,123.871H140.386c0,0-22.533,82.623-24.62,161.907c-0.185,7.045,4.243,13.353,10.868,15.757
	c1.892,0.687,4.012,1.439,6.348,2.243C145.471,179.188,247.742,123.871,247.742,123.871z"/>
<path style="fill:#8C5F50;" d="M135.559,143.443c15.304,3.427,30.966,5.202,46.887,5.202h31.495
	c19.009-16.755,33.8-24.774,33.8-24.774H140.386C140.386,123.871,138.402,131.149,135.559,143.443z"/>
<path style="fill:#E1A546;" d="M329.552,132.129H182.447c-27.731,0-55.153-5.819-80.494-17.082l-18.108-8.048
	c-4.075-1.811-2.783-7.902,1.677-7.902h340.957c4.46,0,5.752,6.091,1.677,7.902l-18.108,8.048
	C384.706,126.31,357.283,132.129,329.552,132.129z"/>
<g>
	<path style="fill:#FFC850;" d="M156.902,344.086l-23.926,7.975c-20.233,6.744-33.88,25.678-33.88,47.006v96.416
		c0,9.121,7.395,16.516,16.516,16.516h41.29V344.086z"/>
	<path style="fill:#FFC850;" d="M355.096,344.086l23.926,7.975c20.233,6.744,33.88,25.678,33.88,47.006v96.416
		c0,9.121-7.395,16.516-16.516,16.516h-41.29V344.086z"/>
</g>
<g>
	<path style="fill:#E1A546;" d="M156.902,512h-16.516v-82.581c0-4.561,3.697-8.258,8.258-8.258l0,0c4.561,0,8.258,3.697,8.258,8.258
		L156.902,512L156.902,512z"/>
	<path style="fill:#E1A546;" d="M371.612,512h-16.516v-82.581c0-4.561,3.697-8.258,8.258-8.258l0,0c4.561,0,8.258,3.697,8.258,8.258
		V512z"/>
</g>
<polygon style="fill:#8CC355;" points="156.902,462.452 173.419,462.452 173.419,338.581 156.902,344.086 "/>
<path style="fill:#B4E66E;" d="M338.58,445.935H173.419c-9.122,0-16.516,7.395-16.516,16.516V512h198.194v-49.548
	C355.096,453.33,347.701,445.935,338.58,445.935z"/>
<g>
	<circle style="fill:#FFF082;" cx="189.939" cy="478.97" r="12.387"/>
	<circle style="fill:#FFF082;" cx="322.059" cy="478.97" r="12.387"/>
</g>
<g>
</g>
<g>
</g>
<g>
</g>
<g>
</g>
<g>
</g>
<g>
</g>
<g>
</g>
<g>
</g>
<g>
</g>
<g>
</g>
<g>
</g>
<g>
</g>
<g>
</g>
<g>
</g>
<g>
</g>
</svg>
