<svg id="Layer_1" height="512" viewBox="0 0 512 512" width="512" xmlns="http://www.w3.org/2000/svg" data-name="Layer 1"><path d="m426.84 281.75s14.52 34.06 13.73 54.15c0 0-11.36-17.29-21.19-23.28 0 0 8.55 41.1-20.94 69.36s-40.61 43.24-40.61 43.24l4.27-25.26s-29.92 36.4-32.91 51.81-3.46-29.54-3.46-29.54-44.34 71.03-69.22 83.66a.976.976 0 0 1 -.91 0c-24.88-12.63-69.33-83.66-69.33-83.66s-.47 44.95-3.46 29.54-32.91-51.81-32.91-51.81l4.27 25.26s-11.11-14.98-40.61-43.24-20.94-69.36-20.94-69.36c-9.83 5.99-21.19 23.28-21.19 23.28-.79-20.09 13.73-54.15 13.73-54.15s35.24-18 48.32-40.53a70.091 70.091 0 0 1 15.59-18.25s-41.91 64.9 13.11 101.53c0 0 19.35 22.95 30.31 47.22 2.29 5.07 4.32 9.33 6.12 12.89q1.125 2.25 2.13 4.14a36.041 36.041 0 0 0 20.7 17.5s4.56 8.45 18.47 13.54a47.758 47.758 0 0 0 33.36-.11c13.38-5.1 17.29-13.43 17.29-13.43a36.041 36.041 0 0 0 20.7-17.5q1-1.89 2.13-4.14c1.8-3.56 3.83-7.82 6.12-12.89 10.96-24.27 30.31-47.22 30.31-47.22 55.02-36.63 13.11-101.53 13.11-101.53a70.091 70.091 0 0 1 15.59 18.25c13.08 22.53 48.32 40.53 48.32 40.53z" fill="#aca6ae"/><path d="m216.27 422.23s-.47 44.95-3.46 29.54-32.91-51.81-32.91-51.81l4.27 25.26s-11.11-14.98-40.61-43.24-20.94-69.36-20.94-69.36c-9.83 5.99-21.19 23.28-21.19 23.28-.79-20.09 13.73-54.15 13.73-54.15a181.181 181.181 0 0 0 18.706-11.437c1.1-25.5 15.2-47.343 15.2-47.343a70.091 70.091 0 0 0 -15.59 18.25c-13.08 22.53-48.32 40.53-48.32 40.53s-14.516 34.06-13.726 54.15c0 0 11.36-17.29 21.19-23.28 0 0-8.55 41.1 20.94 69.36s40.61 43.24 40.61 43.24l-4.27-25.26s29.92 36.4 32.91 51.81 3.46-29.54 3.46-29.54 44.45 71.03 69.33 83.66a.976.976 0 0 0 .91 0c4.363-2.215 9.325-6.23 14.54-11.338-24.55-24.023-54.78-72.322-54.78-72.322z" fill="#8f8891"/><path d="m208.65 84.24c7.34 5.85 13.25 11.56 13.25 11.56-10.57 0-18.08 8.91-22.58 16.53 0 0-4.19-14.14-40.58-38.52-16.01-10.73-30.96-27.17-36.47-49.96 6.51-12.24 11.91-17.85 11.91-17.85s26.45 52.21 58.85 67.81c4.94 2.37 10.61 6.44 15.62 10.43z" fill="#8f858f"/><path d="m377.82 6s5.4 5.61 11.91 17.85c-5.51 22.79-27.94 40-35.55 45.05-36.46 24.2-38.98 48.14-38.98 48.14-3.87-8.01-12.22-21.24-25.1-21.24 0 0 7.25-5.76 17.23-13.43 8.58-6.6 19.18-14.63 28.91-21.63 35.62-25.62 41.58-54.74 41.58-54.74z" fill="#8f858f"/><path d="m290.56 406.25s-3.91 8.33-17.29 13.43a47.758 47.758 0 0 1 -33.36.11c-13.91-5.09-18.47-13.54-18.47-13.54a34.08 34.08 0 0 0 16.43 1.15 28.63 28.63 0 0 0 18.13-11.65 28.63 28.63 0 0 0 18.13 11.65 34.08 34.08 0 0 0 16.43-1.15z" fill="#494449"/><path d="m198.61 384.61c-1.8-3.56-3.83-7.82-6.12-12.89-10.96-24.27-30.31-47.22-30.31-47.22 9.11 6.07 20.88 11.36 35.94 15.45-2.27 14.62-2.75 30.12.49 44.66z" fill="#494449"/><path d="m349.82 324.5s-19.35 22.95-30.31 47.22c-2.29 5.07-4.32 9.33-6.12 12.89 3.24-14.54 2.76-30.04.49-44.66 15.06-4.09 26.83-9.38 35.94-15.45z" fill="#494449"/><path d="m412.63 221.57 30.05 13.89c-.6-17.51-17.3-38.37-34.4-55.25 11.22-82.81-5.79-132.35-18.55-156.36-5.51 22.79-27.94 40-35.55 45.05-36.46 24.2-38.98 48.14-38.98 48.14-3.87-8.01-12.22-21.24-25.1-21.24 0 0 7.25-5.76 17.23-13.43v-.01c-5.01-4.01-13.2-6.69-21.49-8.48a122.039 122.039 0 0 0 -55.73 1.29c-8.26 2.11-16.45 5.05-21.46 9.07 7.34 5.85 13.25 11.56 13.25 11.56-10.57 0-18.08 8.91-22.58 16.53 0 0-4.19-14.14-40.58-38.52-16.01-10.73-30.96-27.17-36.47-49.96-12.76 24.01-29.77 73.55-18.55 156.36-17.1 16.88-33.8 37.74-34.4 55.25l30.05-13.89s-38.53 44.2-35.72 87.8c0 0 9.6-23.38 21.51-27.62 0 0 35.24-18 48.32-40.53a70.091 70.091 0 0 1 15.59-18.25s-41.91 64.9 13.11 101.53c9.11 6.07 20.88 11.36 35.94 15.45-2.27 14.62-2.75 30.12.49 44.66q1.125 2.25 2.13 4.14a36.041 36.041 0 0 0 20.7 17.5 34.08 34.08 0 0 0 16.43 1.15 28.63 28.63 0 0 0 18.13-11.65 28.63 28.63 0 0 0 18.13 11.65 34.08 34.08 0 0 0 16.43-1.15 36.041 36.041 0 0 0 20.7-17.5q1-1.89 2.13-4.14c3.24-14.54 2.76-30.04.49-44.66 15.06-4.09 26.83-9.38 35.94-15.45 55.02-36.63 13.11-101.53 13.11-101.53a70.091 70.091 0 0 1 15.59 18.25c13.08 22.53 48.32 40.53 48.32 40.53 11.91 4.24 21.51 27.62 21.51 27.62 2.81-43.6-35.72-87.8-35.72-87.8z" fill="#726871"/><path d="m217.73 246.41h-.01c-38.08 7.37-36.79-23.81-36.79-23.81 7.28-.37 23.64.75 33.26 16.49a42.587 42.587 0 0 1 3.54 7.32z" fill="#ccd3df"/><path d="m331.07 222.6s1.29 31.18-36.79 23.81h-.01a42.587 42.587 0 0 1 3.54-7.32c9.62-15.74 25.98-16.86 33.26-16.49z" fill="#ccd3df"/><path d="m256.72 348.49c16.68 0 30.21 10.58 30.21 23.63s-13.53 23.64-30.21 23.64c-.24 0-.48 0-.72-.01-16.35-.3-29.49-10.76-29.49-23.63 0-13.05 13.53-23.63 30.21-23.63z" fill="#403c42"/><g fill="#5b535b"><path d="m99.32 235.46c.6-17.51 17.3-38.37 34.4-55.25-7.479-55.2-2.411-95.6 5.577-123.523a78.462 78.462 0 0 1 -17.027-32.837c-12.76 24.01-29.77 73.55-18.55 156.36-17.1 16.88-33.8 37.74-34.4 55.25l30.05-13.89s-38.53 44.2-35.72 87.8c0 0 9.6-23.38 21.51-27.62 0 0 6.11-3.125 14.18-8.389 10.161-29 30.03-51.791 30.03-51.791z"/><path d="m230.74 388.75q-1.005-1.89-2.13-4.14c-3.24-14.54-2.76-30.04-.49-44.66-15.06-4.09-26.83-9.38-35.94-15.45-55.02-36.63-13.11-101.53-13.11-101.53a70.091 70.091 0 0 0 -15.59 18.25c-6.656 11.464-19.045 21.749-29.614 29.093-.8 18.449 5.215 38.809 28.314 54.187 9.11 6.07 20.88 11.36 35.94 15.45-2.27 14.62-2.75 30.12.49 44.66q1.125 2.25 2.13 4.14a36.041 36.041 0 0 0 20.7 17.5 34.08 34.08 0 0 0 16.43 1.15 27.8 27.8 0 0 0 8.683-3.15 36.2 36.2 0 0 1 -15.813-15.5z"/><path d="m255.48 169.4a5 5 0 0 1 -5-5v-65.183a5 5 0 0 1 10 0v65.183a5 5 0 0 1 -5 5z"/><path d="m233.976 263.99a5 5 0 0 1 -4.4-7.363c8.832-16.479 4.085-36.034 4.036-36.23a5 5 0 1 1 9.7-2.429c.238.952 5.714 23.537-4.923 43.384a5 5 0 0 1 -4.413 2.638z"/><path d="m221.443 195.466a4.993 4.993 0 0 1 -4.078-2.1c-2.647-3.719-13.172-5.827-19.451-6.08a5 5 0 1 1 .4-9.992 68.583 68.583 0 0 1 10.525 1.4c8.117 1.748 13.726 4.733 16.671 8.872a5 5 0 0 1 -4.07 7.9z"/><path d="m278.024 263.99a5 5 0 0 1 -4.411-2.638c-10.637-19.847-5.161-42.432-4.923-43.384a5 5 0 0 1 9.7 2.423c-.084.349-4.707 19.925 4.035 36.236a5 5 0 0 1 -4.4 7.363z"/><path d="m290.557 195.466a5 5 0 0 1 -4.07-7.9c2.945-4.139 8.554-7.124 16.671-8.872a68.583 68.583 0 0 1 10.525-1.4 5 5 0 0 1 .4 9.992c-6.477.275-16.792 2.342-19.452 6.08a4.993 4.993 0 0 1 -4.074 2.1z"/></g><path d="m402.626 167.949c-6.44-5.872-12.522-10.955-17.4-14.865l10.021-.457a5.1 5.1 0 0 0 4.561-3.155 5.005 5.005 0 0 0 -2.912-6.534l-26.572-9.853 17.789-16.149a5.114 5.114 0 0 0 1.6-5 5.006 5.006 0 0 0 -5.864-3.694l-47.763 9.825a5.146 5.146 0 0 0 -4.177 5.459 5 5 0 0 0 5.981 4.379l30.076-6.186-10.32 9.367a5.218 5.218 0 0 0 -1.764 3.443 5.007 5.007 0 0 0 3.249 5.073l11.305 4.191a5 5 0 0 0 -4.068 4.258 5.18 5.18 0 0 0 2.193 4.834 324.751 324.751 0 0 1 27.3 22.459 5.009 5.009 0 1 0 6.76-7.394z" fill="#494349"/><path d="m175.909 118.066-47.762-9.825a5.006 5.006 0 0 0 -5.863 3.692 5.114 5.114 0 0 0 1.6 5l17.79 16.149-26.574 9.856a5.005 5.005 0 0 0 -2.912 6.534 5.1 5.1 0 0 0 4.561 3.155l10.021.457c-4.876 3.91-10.958 8.993-17.4 14.865a5.013 5.013 0 0 0 3.371 8.718h.011a5.029 5.029 0 0 0 3.39-1.324 324.942 324.942 0 0 1 27.29-22.459 5.178 5.178 0 0 0 2.192-4.834 5 5 0 0 0 -4.067-4.258l11.133-4.128a5.214 5.214 0 0 0 2.919-2.537 5.006 5.006 0 0 0 -1.125-5.917l-10.457-9.492 30.076 6.186a5 5 0 0 0 5.981-4.379 5.146 5.146 0 0 0 -4.175-5.459z" fill="#494349"/></svg>