<!DOCTYPE svg PUBLIC "-//W3C//DTD SVG 1.1//EN" "http://www.w3.org/Graphics/SVG/1.1/DTD/svg11.dtd">
<!-- Uploaded to: SVG Repo, www.svgrepo.com, Transformed by: SVG Repo Mixer Tools -->
<svg height="800px" width="800px" version="1.1" id="_x36_" xmlns="http://www.w3.org/2000/svg" xmlns:xlink="http://www.w3.org/1999/xlink" viewBox="0 0 512 512" xml:space="preserve" fill="#000000" stroke="#000000" stroke-width="1.536">
<g id="SVGRepo_bgCarrier" stroke-width="0"/>
<g id="SVGRepo_tracerCarrier" stroke-linecap="round" stroke-linejoin="round" stroke="#CCCCCC" stroke-width="7.168000000000001"> <g> <g> <polygon style="fill:#595758;" points="239.002,206.998 128.003,245.998 80.003,269.998 0,293.998 152.003,370.998 392.001,359.997 386.001,323.997 410.001,344.997 512,296.998 "/> <polygon style="fill:#454040;" points="512,296.998 308.388,229.873 125.483,259.017 228.408,361.945 392.001,359.997 386.001,323.997 410.001,344.997 "/> <polygon style="fill:#595758;" points="374.839,259.017 375.02,259.979 125.003,260.998 125.483,259.017 140.12,202.018 182.003,39 260.002,0 371.001,36 437.001,33 368.001,86.999 341.001,83.999 363.8,202.018 "/> <polygon style="fill:#454040;" points="341.001,83.999 335.001,57 368.001,86.999 "/> <polygon style="fill:#8968AB;" points="374.839,259.017 125.483,259.017 140.12,202.018 363.8,202.018 "/> </g> <polygon style="opacity:0.08;fill:#231815;" points="512,296.998 373.339,251.286 363.8,202.018 341.001,83.999 368.001,86.999 437.001,33 371.001,36 260.002,0 257.541,1.231 257.541,366.161 392.001,359.997 386.001,323.997 410.001,344.997 "/> </g> </g>
<g id="SVGRepo_iconCarrier"> <g> <g> <polygon style="fill:#595758;" points="239.002,206.998 128.003,245.998 80.003,269.998 0,293.998 152.003,370.998 392.001,359.997 386.001,323.997 410.001,344.997 512,296.998 "/> <polygon style="fill:#454040;" points="512,296.998 308.388,229.873 125.483,259.017 228.408,361.945 392.001,359.997 386.001,323.997 410.001,344.997 "/> <polygon style="fill:#595758;" points="374.839,259.017 375.02,259.979 125.003,260.998 125.483,259.017 140.12,202.018 182.003,39 260.002,0 371.001,36 437.001,33 368.001,86.999 341.001,83.999 363.8,202.018 "/> <polygon style="fill:#454040;" points="341.001,83.999 335.001,57 368.001,86.999 "/> <polygon style="fill:#8968AB;" points="374.839,259.017 125.483,259.017 140.12,202.018 363.8,202.018 "/> </g> <polygon style="opacity:0.08;fill:#231815;" points="512,296.998 373.339,251.286 363.8,202.018 341.001,83.999 368.001,86.999 437.001,33 371.001,36 260.002,0 257.541,1.231 257.541,366.161 392.001,359.997 386.001,323.997 410.001,344.997 "/> </g> </g>
</svg>